<?xml version="1.0" encoding="utf-8"?>
<!-- Generator: Adobe Illustrator 23.0.1, SVG Export Plug-In . SVG Version: 6.00 Build 0)  -->
<svg version="1.1" id="图层_1" xmlns="http://www.w3.org/2000/svg" xmlns:xlink="http://www.w3.org/1999/xlink" x="0px" y="0px"
	 viewBox="0 0 580 428" style="enable-background:new 0 0 580 428;" xml:space="preserve">
<g>
	<path style="fill:#2C3B80;" d="M90.7,173.7l3.4,0.4c0.4,0,0.6,0.3,0.6,0.7l-0.3,2.6c0,0.3-0.4,0.6-0.7,0.5l-3.4-0.4
		c-0.4,0-0.6-0.3-0.6-0.7l0.3-2.6C90,173.9,90.3,173.7,90.7,173.7z"/>
	<path style="fill:#2C3B80;" d="M83.3,223.3l3.4,0.4c0.4,0,0.6,0.3,0.6,0.7l-0.3,2.6c0,0.3-0.4,0.6-0.7,0.5l-3.4-0.4
		c-0.4,0-0.6-0.3-0.6-0.7l0.3-2.6C82.6,223.5,83,223.3,83.3,223.3z"/>
	<path style="fill:#2C3B80;" d="M292.9,139.9l2.9-0.1c0.5,0,0.9,0.3,1,0.8l0.2,2.3c0,0.5-0.4,0.8-0.9,0.9l-2.9,0.1
		c-0.5,0-0.9-0.3-1-0.8l-0.2-2.3C292.1,140.3,292.4,139.9,292.9,139.9z"/>
	<path style="fill:#2C3B80;" d="M335.7,136.1l2.9-0.1c0.5,0,0.9,0.3,1,0.8l0.2,2.3c0,0.5-0.4,0.8-0.9,0.9l-2.9,0.1
		c-0.5,0-0.9-0.3-1-0.8l-0.2-2.3C334.9,136.6,335.2,136.2,335.7,136.1z"/>
	<path style="fill:#2C3B80;" d="M345.3,134.9l2.9-0.1c0.5,0,0.9,0.3,1,0.8l0.2,2.3c0,0.5-0.4,0.8-0.9,0.9l-2.9,0.1
		c-0.5,0-0.9-0.3-1-0.8l-0.2-2.3C344.4,135.3,344.8,134.9,345.3,134.9z"/>
	<path style="fill:#2C3B80;" d="M321.7,133.3l2.9-0.1c0.5,0,0.9,0.3,1,0.8l0.2,2.3c0,0.5-0.4,0.8-0.9,0.9l-2.9,0.1
		c-0.5,0-0.9-0.3-1-0.8l-0.2-2.3C320.8,133.7,321.2,133.3,321.7,133.3z"/>
	<path style="fill:#2D3B80;" d="M329.9,178.7l2.9-0.1c0.5,0,0.9,0.3,1,0.8l0.2,2.3c0,0.5-0.4,0.8-0.9,0.9l-2.9,0.1
		c-0.5,0-0.9-0.3-1-0.8l-0.2-2.3C329,179.1,329.4,178.7,329.9,178.7z"/>
	<path style="fill:#2D3B80;" d="M224,211.3l2.9,0.3c0.5,0,0.9,0.4,0.8,0.9l-0.2,2.3c0,0.5-0.5,0.8-1,0.8l-2.9-0.3
		c-0.5,0-0.9-0.4-0.8-0.9l0.2-2.3C223.1,211.6,223.5,211.3,224,211.3z"/>
	<path style="fill:#2C3B80;" d="M262.9,290.6l2.9,0.3c0.5,0,0.9,0.4,0.8,0.9l-0.2,2.3c0,0.5-0.5,0.8-1,0.8l-2.9-0.3
		c-0.5,0-0.9-0.4-0.8-0.9l0.2-2.3C261.9,290.9,262.4,290.6,262.9,290.6z"/>
	<path style="fill:#2C3B80;" d="M402,238.5l2.9,0.3c0.5,0,0.9,0.4,0.8,0.9l-0.2,2.3c0,0.5-0.5,0.8-1,0.8l-2.9-0.3
		c-0.5,0-0.9-0.4-0.8-0.9l0.2-2.3C401,238.8,401.5,238.5,402,238.5z"/>
	<path style="fill:#2C3B80;" d="M451,306.6l0.3,2.8c0.1,0.4-0.3,0.8-0.8,0.9l-2.3,0.3c-0.5,0.1-1-0.3-1-0.7l-0.3-2.8
		c-0.1-0.4,0.3-0.8,0.8-0.9l2.3-0.3C450.5,305.8,451,306.1,451,306.6z"/>
	<path style="fill:#2C3B80;" d="M424.2,176.8l0.1,2.8c0,0.4-0.4,0.8-0.9,0.8l-2.4,0.1c-0.5,0-0.9-0.4-0.9-0.8l-0.1-2.8
		c0-0.4,0.4-0.8,0.9-0.8l2.4-0.1C423.7,176,424.2,176.3,424.2,176.8z"/>
	<path style="fill:#2C3B80;" d="M173,294.4l2.9-0.3c0.5-0.1,1,0.3,1,0.7l0.3,2.3c0.1,0.5-0.3,0.9-0.8,0.9l-2.9,0.3
		c-0.5,0.1-1-0.3-1-0.7l-0.3-2.3C172.1,294.9,172.5,294.5,173,294.4z"/>
	<path style="fill:#2C3B80;" d="M150.3,307.7l2.9-0.3c0.5-0.1,1,0.3,1,0.7l0.3,2.3c0.1,0.5-0.3,0.9-0.8,0.9l-2.9,0.3
		c-0.5,0.1-1-0.3-1-0.7l-0.3-2.3C149.5,308.2,149.8,307.8,150.3,307.7z"/>
	<path style="fill:#2C3B80;" d="M272.5,135.7l2.9-0.2c0.5,0,0.9,0.3,1,0.7l0.2,2.3c0,0.5-0.3,0.9-0.8,0.9l-2.9,0.2
		c-0.5,0-0.9-0.3-1-0.7l-0.2-2.3C271.6,136.1,272,135.7,272.5,135.7z"/>
	<path style="fill:#2C3B80;" d="M266.1,202.4l2.9,0.3c0.5,0,0.9,0.4,0.8,0.9l-0.2,2.3c0,0.5-0.5,0.8-1,0.8l-2.9-0.3
		c-0.5,0-0.9-0.4-0.8-0.9l0.2-2.3C265.2,202.7,265.6,202.3,266.1,202.4z"/>
	<path style="fill:#2C3B80;" d="M264.8,229l2.9,0c0.5,0,0.9,0.4,0.9,0.8l0.1,2.3c0,0.5-0.4,0.8-0.9,0.8l-2.9,0
		c-0.5,0-0.9-0.4-0.9-0.8l-0.1-2.3C263.9,229.4,264.3,229,264.8,229z"/>
	<path style="fill:#2C3B80;" d="M313.2,235l2.9,0c0.5,0,0.9,0.4,0.9,0.8l0.1,2.3c0,0.5-0.4,0.8-0.9,0.8l-2.9,0
		c-0.5,0-0.9-0.4-0.9-0.8l-0.1-2.3C312.3,235.4,312.7,235,313.2,235z"/>
	<path style="fill:#2C3B80;" d="M149.4,130.8l2.9,0.3c0.5,0.1,0.9,0.5,0.8,0.9l-0.3,2.3c-0.1,0.5-0.5,0.8-1,0.7l-2.9-0.3
		c-0.5-0.1-0.9-0.5-0.8-0.9l0.3-2.3C148.5,131.1,148.9,130.7,149.4,130.8z"/>
	<path style="fill:#2C3B80;" d="M192.5,137.9l2.9,0.3c0.5,0.1,0.9,0.5,0.8,0.9l-0.3,2.3c-0.1,0.5-0.5,0.8-1,0.7l-2.9-0.3
		c-0.5-0.1-0.9-0.5-0.8-0.9l0.3-2.3C191.5,138.2,192,137.9,192.5,137.9z"/>
	<path style="fill:#3580AF;" d="M344,106.6l10.5-0.7c0,0,0.1,0,0.1,0l155.6-34.6c0.1,0,0.2,0,0.3,0l24.9,1.2c0.5,0,0.9,0.4,0.9,0.9
		l-1,20.8c0,0,0,0.1,0,0.1l-15.7,72.9c-0.1,0.4-0.5,0.7-0.9,0.7l-38-1.8c-0.5,0-0.9-0.4-0.9-0.9l0.3-5.4c0-0.5-0.4-0.8-0.9-0.9
		l-2.4-0.1c-0.5,0-0.9,0.3-0.9,0.8l-0.3,5.4c0,0.5-0.4,0.8-0.9,0.8l-8.5-0.4c-0.7,0-1.3,0.5-1.3,1.1l0,0c0,0.6-0.6,1.1-1.3,1.1
		l-10.7-0.5c-0.7,0-1.2-0.6-1.2-1.2v0c0-0.6-0.5-1.2-1.2-1.2l-26.6-1.3c-0.5,0-0.9,0.3-0.9,0.8l-0.3,7.2c0,0.5-0.4,0.8-0.9,0.8
		l-23.8-1.1c-0.2,0-0.4-0.1-0.5-0.2c-1.6-1.1-11.1-7.5-22.2-6.7c-10.3,0.8-19.9,1.4-22.7,1.5c-0.4,0-0.9-0.3-1-0.7l-0.8-3.4
		c-0.1-0.4-0.5-0.7-1-0.6l-1.1,0.1c-0.5,0-0.9-0.3-1-0.7l-1.7-14.4c-0.1-0.5,0.3-0.9,0.8-0.9l6.1-0.5c0.5,0,0.9-0.4,0.8-0.9
		l-0.6-4.5c-0.1-0.5,0.3-0.9,0.8-0.9l3.6-0.2c0.5,0,0.9-0.4,0.8-0.9l-1.1-8.9c-0.1-0.4-0.5-0.8-1-0.7l-9.9,0.9c-0.5,0-1-0.3-1-0.8
		l-2-19.8C343.1,107,343.5,106.6,344,106.6z"/>
	<path style="fill:#3580AF;" d="M239,201.3l-2.1,21.1c0,0.4,0.3,0.7,0.7,0.7l21,1c0.4,0,0.7-0.3,0.7-0.6l1.4-28.9
		c0-0.4-0.4-0.7-0.8-0.7l-12.8,1.2c-0.1,0-0.3,0.1-0.4,0.1l-7.5,5.7C239.1,201,239,201.2,239,201.3z"/>
	<path style="fill:#3580AF;" d="M274.3,193.2l-0.4,7.7c0,0.4,0.3,0.7,0.7,0.7l2.5,0.1c0.4,0,0.7,0.3,0.7,0.7l0,0.1
		c0,0.4-0.3,0.6-0.7,0.6l0,0c-0.4,0-0.7,0.3-0.7,0.6l-0.6,11.9c0,0.4,0.3,0.7,0.7,0.7l23.2,1.1c0.4,0,0.7-0.3,0.7-0.6l0.7-14.1
		c0-0.4,0.4-0.6,0.8-0.6l8.3,0.6c0.4,0,0.7,0.3,0.7,0.7l-0.1,1.1c0,0.4,0.3,0.7,0.7,0.7l2.1,0c0.4,0,0.7-0.3,0.7-0.6l0.7-14.5
		c0-0.4-0.3-0.7-0.8-0.7l-39.3,3.3C274.6,192.6,274.4,192.8,274.3,193.2z"/>
	<path style="fill:#3580AF;" d="M317.2,190.1c0-0.4,0.4-0.7,0.9-0.6c4.5,1,25.7,5.6,25.7,5.9c-0.1,0.4-2.5,7.9,3.1,19.9
		c0.1,0.3,0,0.6-0.3,0.8l-5.9,3c-0.1,0.1-0.2,0.1-0.4,0.1l-36.3-1.8c-0.4,0-0.7-0.3-0.7-0.7l0.6-11.5c0-0.4,0.3-0.6,0.7-0.6l3.2,0.2
		c0.4,0,0.7,0.3,0.7,0.7l0,0.8c0,0.4,0.3,0.7,0.7,0.7l6.8,0.3c0.4,0,0.7-0.3,0.7-0.6L317.2,190.1z"/>
	<path style="fill:#3580AF;" d="M385.3,224.1l-0.4,9.3c0,0.5,0.4,0.8,0.9,0.9l16.9,0.8c0.5,0,0.9-0.3,0.9-0.8l1.1-23.7
		c0-0.4-0.3-0.8-0.7-0.8l-2.9-0.6c-0.5-0.1-1,0.2-1.1,0.6c-0.5,2.5-3,9.8-14.1,13.6C385.5,223.5,385.3,223.7,385.3,224.1z"/>
	<path style="fill:#3580AF;" d="M398.1,186.8l32.3,1.6c0.5,0,0.9-0.3,0.9-0.8l0.1-1.8c0-0.5,0.4-0.8,0.9-0.8l4.1,0.2
		c0.5,0,0.9,0.4,0.9,0.9l-1.1,22.6c0,0.5-0.4,0.8-0.9,0.8l-33.7-1.6c-0.6,0-1-0.5-0.9-1c0.6-2.6,1.7-10-3.5-18.8
		C396.9,187.4,397.4,186.8,398.1,186.8z"/>
	<path style="fill:#3580AF;" d="M393.5,184.7c5.1,10.4,5.2,20.7,0.7,29.1c-2.8,5.1-9.6,7.7-11.7,8.3c-0.3,0.1-0.6,0.4-0.6,0.7
		l-0.8,13.6c0,0.4,0.3,0.8,0.8,0.9l11.7,1.2c0.5,0,0.8,0.4,0.8,0.9l-0.3,7c0,0.5,0.4,0.8,0.9,0.9l6.2,0.3c0.5,0,0.9,0.4,0.9,0.9
		l-0.3,6c0,0.5,0.4,0.8,0.9,0.9l4.2,0.2c0.5,0,0.9,0.4,0.9,0.9l-0.7,13.6c0,0.5-0.4,0.8-0.9,0.8l-93.4-4.5c-0.5,0-0.9-0.4-0.9-0.9
		l0.8-16.4c0-0.5,0.4-0.8,0.9-0.8l11.5,0.6c0.5,0,0.9-0.3,0.9-0.8l0.4-3.3l11.4,0.6c0.6,0,1.1-1.5,1.2-2.7l0.2-3
		c0.1-1.3,0.4-4.7,0.4-5.2l1.3-10.9c0-0.3,0.2-0.5,0.5-0.7l9.4-4.9c0.4-0.2,0.5-0.6,0.4-1c-0.8-2.3-3.6-10.4-3.5-16
		c0.2-13.6,8.1-30.7,20.7-32.5C378.5,166.9,386.3,170.1,393.5,184.7z"/>
	<path style="fill:#3580AF;" d="M211.8,266.9l-0.1,3c0,0.4-0.3,0.7-0.8,0.8l-2.2,0.3c-0.5,0.1-0.8,0.5-0.8,0.9l2.6,20.8
		c0.1,0.4-0.3,0.8-0.7,0.9l-0.2,0c-0.5,0.1-0.8,0.5-0.7,0.9l0.4,2.1c0.1,0.5-0.3,0.9-0.8,0.9l-9.8,1.2c-0.5,0.1-1-0.3-1-0.7
		l-2.2-15.2c-0.1-0.5-0.5-0.8-1.1-0.7l-6.3,0.9c-0.5,0.1-1-0.2-1.1-0.7l-2.1-14.4c-0.1-0.4,0.3-0.8,0.8-0.9l12.2-1.6
		c0.1,0,0.1,0,0.2,0l13,0.6C211.4,266,211.8,266.4,211.8,266.9z"/>
	<path style="fill:#3580AF;" d="M181.4,267.3l2.4,16.2l-17.4,2l-0.5-3.8l-11.1,1.4l1.7,11.5c0,0-2.1-7.7-15-5.5l-1.8-10.8
		c0,0-9.4,0.4-13,3.1l-1-7.5L181.4,267.3z"/>
	<path style="fill:#3580AF;" d="M100.5,283.6l11.4-1.5c0.5-0.1,1,0.3,1,0.7l1.6,11.2c0.1,0.9,1.5,1,1.8,0.1c1.1-3.5,3.2-8,7.7-11
		c0.3-0.2,0.4-0.5,0.4-0.8l-1.1-7.6c-0.1-0.5-0.5-0.8-1-0.7l-22.7,3.1c-0.5,0.1-0.8,0.5-0.8,0.9l0.7,4.8
		C99.5,283.4,99.9,283.7,100.5,283.6z"/>
	<path style="fill:#3580AF;" d="M140.4,257.5l55.6-8c0.1,0,0.1,0,0.2,0l2.8,0.1c0,0,0.1,0,0.1,0l14.5,2.6c0.5,0.1,1-0.2,1.1-0.7
		l10-103.4c0-0.5-0.3-0.9-0.9-0.9l-2.9-0.1c-0.5,0-0.9-0.4-0.9-0.9l0.7-7c0-0.5-0.3-0.9-0.9-0.9l-4.8-0.2c-0.5,0-0.9-0.5-0.9-1
		l0.3-1.5c0.1-0.5-0.3-0.9-0.8-1l-7.5-1.1c-0.5-0.1-1,0.2-1,0.7l-1.9,11.9c-0.1,0.5-0.6,0.8-1.1,0.7l-17.2-2.9
		c-0.5-0.1-0.8-0.5-0.7-1l0.5-2c0.1-0.5-0.2-0.9-0.8-1l-11.6-1.7c-0.5-0.1-1,0.2-1,0.7L171,141c-0.1,0.4-0.5,0.7-1,0.7l-10.1-1.2
		c-0.5-0.1-0.9,0.2-1,0.7l-19.6,115.4C139.2,257.1,139.8,257.6,140.4,257.5z"/>
	<path style="fill:#3580AF;" d="M106.4,122.6l1.8-9.8c0.1-0.5,0.6-0.8,1.1-0.7l4.4,0.9c0.1,0,0.1,0,0.2,0l70.3,3.1
		c0.5,0,0.9,0.5,0.9,1l-2.5,15.1c-0.1,0.5-0.5,0.8-1,0.7l-16.7-2.5c-0.5-0.1-0.8-0.5-0.8-0.9l0.8-5.2c0.1-0.5-0.3-0.9-0.8-0.9
		l-15.3-2c-0.5-0.1-1,0.2-1,0.7L147,127c-0.1,0.5-0.5,0.8-1,0.7l-13.2-1.9c-0.5-0.1-1,0.2-1,0.7l-1.5,9.6c-0.1,0.4,0.3,0.9,0.8,0.9
		l20.1,2.9c0.5,0.1,1-0.2,1-0.7l0.4-2.4c0.1-0.5,0.5-0.8,1-0.7l2.6,0.4c0.5,0.1,0.8,0.5,0.8,0.9l-20.3,120.4
		c-0.1,0.3-0.3,0.6-0.7,0.7l-26.4,4.5c-0.1,0-0.2,0-0.3,0L98,261.3c-0.5-0.1-0.8-0.4-0.8-0.9l0-0.7c0-0.4-0.3-0.8-0.8-0.9L84.8,257
		c-0.5-0.1-0.8-0.5-0.7-0.9l0.7-4.1c0.1-0.4-0.2-0.9-0.7-0.9l-11.6-1.9c-0.5-0.1-0.8-0.5-0.7-0.9l2-11.7c0.1-0.4,0.5-0.7,1-0.7
		l12.2,1.7c0.5,0.1,1-0.2,1-0.7l3.3-20.1l0.9,0.2l0.7-4.8c0.1-0.5,0.5-0.8,1.1-0.7h0c0.5,0.1,1-0.3,1.1-0.7l0.3-2.6
		c0.1-0.4-0.3-0.8-0.8-0.9l-12.8-1.9c-0.5-0.1-0.8-0.5-0.8-0.9l0.5-3c0.1-0.4,0.5-0.8,1-0.7l6.2,0.9c0.5,0.1,1-0.3,1-0.7l0.3-2.5
		c0-0.4-0.3-0.8-0.8-0.9l-6.3-0.7c-0.5-0.1-0.8-0.5-0.8-0.9l0.2-1.8c0-0.5,0.5-0.8,1-0.7l6.8,0.8c0.5,0.1,0.9-0.2,1-0.7l1.6-10.1
		c0.1-0.4,0.5-0.8,1-0.7l2.2,0.3c0.5,0.1,1-0.2,1-0.7l2.5-17.3c0.1-0.4-0.3-0.9-0.8-0.9L87,162.2c-0.5-0.1-0.8-0.5-0.8-0.9l5-30
		c0.1-0.4,0.5-0.7,1-0.7l3.5,0.5c0.5,0.1,1-0.2,1-0.7l1-7.2c0.1-0.5,0.5-0.8,1-0.7l6.5,0.8C105.9,123.4,106.3,123.1,106.4,122.6z"/>
	<polygon style="fill:#3580AF;" points="236.7,226.4 230.9,279.7 271.9,281.7 271.2,295.6 296.1,296.8 298.7,242.6 296.4,242.4 
		296.6,233.9 286.1,233.4 285.7,242.1 274.7,241.6 274.6,243.8 258.4,243 258.1,249 244.5,248.4 245.3,233.2 242.5,233 242.8,226.7 
			"/>
	<path style="fill:#537BA0;" d="M124.1,324.7l88.6-11.3c0.5-0.1,1,0.3,1,0.8l0.7,7.9c0,0.4-0.3,0.8-0.8,0.9L125,333.4
		c-0.5,0.1-1-0.3-1-0.8l-0.7-7.1C123.3,325.1,123.6,324.8,124.1,324.7z"/>
	<path style="fill:#537BA0;" d="M218.8,313.5l90.1,4.8c0.5,0,0.9,0.4,0.9,0.9l-0.8,6.9c0,0.4-0.5,0.8-0.9,0.7l-89.7-4.3
		c-0.5,0-0.9-0.4-0.9-0.9l0.4-7.4C217.9,313.8,218.3,313.5,218.8,313.5z"/>
	<path style="fill:#537BA0;" d="M175.7,310l38.7-4.8c0.1,0,0.1,0,0.2,0l102.4,4.5c0.5,0,0.9-0.3,0.9-0.8l0.3-7.1
		c0-0.5-0.4-0.8-0.9-0.9l-101-4.3c-0.1,0-0.1,0-0.2,0l-42.1,5.4c-0.5,0.1-0.8,0.5-0.8,1l1.3,6.4C174.7,309.8,175.2,310.1,175.7,310z
		"/>
	<path style="fill:#537BA0;" d="M324.2,311.1l-0.4,7.4c0,0.5,0.4,0.8,0.9,0.9l95.8,4.6c0.5,0,0.9-0.3,0.9-0.8l0.4-7.4
		c0-0.5-0.4-0.8-0.9-0.9l-95.8-4.6C324.6,310.3,324.2,310.6,324.2,311.1z"/>
	<polygon style="fill:#537BA0;" points="469.2,315.3 488.7,312.6 486.3,334.9 468.3,334 	"/>
	<path style="fill:#537BA0;" d="M419.1,230.6l32.8,1.6c0.5,0,0.9,0.4,0.9,0.9l-1.1,22.9c0,0.5-0.4,0.8-0.9,0.8l-32.8-1.6
		c-0.5,0-0.9-0.4-0.9-0.9l1.1-22.9C418.2,231,418.6,230.6,419.1,230.6z"/>
	<path style="fill:#537BA0;" d="M459.3,251.4l-0.5,10.4c0,0.1,0,0.2,0,0.3l6,19.1c0.1,0.4,0.6,0.7,1.1,0.6l6.7-1.6
		c0.5-0.1,0.8-0.6,0.6-1l-5.5-17.4c0-0.1,0-0.2,0-0.3l0.9-9.4c0-0.1,0.1-0.3,0.2-0.4l5.2-7c0.1-0.1,0.1-0.3,0.2-0.4l0.5-7.7
		c0-0.5-0.4-0.9-0.9-0.9l-11.5-0.6c-0.5,0-0.9,0.3-0.9,0.7L459.3,251.4C459.3,251.4,459.3,251.4,459.3,251.4z"/>
	<path style="fill:#537BA0;" d="M440,207.9l37.1,1.8c0.5,0,0.9,0.4,0.9,0.9l-0.9,17.8c0,0.5-0.4,0.8-0.9,0.8l-66.1-3.2
		c-0.5,0-0.9-0.4-0.9-0.9l0.5-9.5c0-0.5,0.4-0.8,0.9-0.8l27,1.3c0.5,0,0.9-0.3,0.9-0.8l0.4-6.6C439.1,208.2,439.5,207.9,440,207.9z"
		/>
	<path style="fill:#537BA0;" d="M440.5,182.9l9.5,0.5c0.5,0,0.9,0.4,0.9,0.9l-0.7,15.4c0,0.5-0.4,0.8-0.9,0.8l-9.5-0.5
		c-0.5,0-0.9-0.4-0.9-0.9l0.7-15.4C439.6,183.3,440,182.9,440.5,182.9z"/>
	<path style="fill:#537BA0;" d="M466.8,184.2l9.8,0.5c0.5,0,0.9,0.4,0.9,0.9l-0.7,15.4c0,0.5-0.4,0.8-0.9,0.8l-9.8-0.5
		c-0.5,0-0.9-0.4-0.9-0.9l0.7-15.4C465.8,184.5,466.3,184.2,466.8,184.2z"/>
	<path style="fill:#537BA0;" d="M492.8,200.3l7.4,0.3c0.6,0,1,0.5,1,1l-0.5,11.3c0,0.6-0.5,1-1,1l-7.4-0.4c-0.6,0-1-0.5-1-1
		l0.5-11.2C491.8,200.7,492.2,200.3,492.8,200.3z"/>
	<path style="fill:#537BA0;" d="M439.9,176.7l24.8,1.2c0.5,0,0.9-0.3,0.9-0.8l0.3-6.6c0-0.5-0.4-0.8-0.9-0.9l-24.8-1.2
		c-0.5,0-0.9,0.3-0.9,0.8l-0.3,6.6C439,176.3,439.4,176.7,439.9,176.7z"/>
	<path style="fill:#537BA0;" d="M117.7,334.6l-63,7.6c-0.5,0.1-1-0.3-1-0.7l-6-39.3l-2.1-13.4c0-0.1,0-0.1,0-0.2l4.3-55.4
		c0-0.5,0.5-0.8,1.1-0.7l20.5,3.2c0.5,0.1,0.8,0.5,0.8,1l-2.5,14.1l-2.1,11.9c0,0.1,0,0.1,0,0.2l2.4,18.8c0.1,0.5,0.5,0.8,1.1,0.7
		l12.7-1.8c0.5-0.1,0.9,0.2,1,0.6L86,286c0.1,0.4,0.5,0.7,1,0.6l23.5-2.2c0.5,0,0.9,0.3,1,0.7l7,48.5
		C118.5,334.1,118.2,334.5,117.7,334.6z"/>
	<path style="fill:#537BA0;" d="M79.3,108.2l-10.9,6.4c-0.2,0.1-0.4,0.3-0.4,0.6l-7,41.7c-0.1,0.4,0.3,0.9,0.8,0.9l20.7,3.2
		c0.5,0.1,1-0.2,1-0.7l5.1-31.8c0.1-0.5,0.6-0.8,1.1-0.7l4.2,0.7c0.5,0.1,1-0.2,1.1-0.7l1.1-7.2c0.1-0.5,0.5-0.8,1-0.7l6.5,0.9
		c0.5,0.1,0.9-0.2,1-0.7l1.4-7.5c0.1-0.5-0.3-0.9-0.8-1L80,108.1C79.8,108.1,79.5,108.1,79.3,108.2z"/>
	<path style="fill:#537BA0;" d="M228.4,118.6l1.4,13.2c0,0.4,0.4,0.7,0.8,0.7l13.6,1c0.4,0,0.8,0.4,0.8,0.8l0.2,2.4
		c0,0.5,0.5,0.8,1,0.8l54.1-5c0.5,0,0.9-0.4,0.8-0.9l-2.1-19.7c0-0.5-0.5-0.8-1-0.7l-68.9,6.5C228.7,117.8,228.3,118.2,228.4,118.6z
		"/>
	<path style="fill:#537BA0;" d="M300.5,111.3l2.3,20.2c0.1,0.5,0.5,0.8,1,0.7l39.1-3.8c0.5,0,0.9-0.4,0.8-0.9l-2.4-20
		c-0.1-0.5-0.5-0.8-1-0.7l-39,3.6C300.8,110.5,300.5,110.9,300.5,111.3z"/>
	<path style="fill:#537BA0;" d="M189.7,117.2l-2.1,10.1c-0.1,0.4,0.2,0.9,0.7,1l14.3,2.4l17.7,2.9c0,0,0.1,0,0.1,0l6.3,0.3
		c0.5,0,1-0.4,0.9-0.9l-1.5-14.6c0-0.5-0.5-0.8-1-0.8l-7.9,0.6c0,0-0.1,0-0.2,0l-26.6-1.8C190.2,116.6,189.8,116.8,189.7,117.2z"/>
	<path style="fill:#537BA0;" d="M312.1,268.9l125.4,6.9c0.4,0,0.8,0.3,0.9,0.7l4.6,35.2c0.1,0.5-0.3,0.9-0.9,0.9l-14.6,0.6
		c0,0-0.1,0-0.1,0l-107.3-4.7c-0.5,0-0.9-0.4-0.9-0.9l0.3-9.2c0-0.5-0.4-0.8-0.9-0.9l-8-0.1c-0.5,0-0.9-0.4-0.9-0.9l1.3-26.9
		C311.1,269.3,311.6,268.9,312.1,268.9z"/>
	<path style="fill:#537BA0;" d="M60.1,162.7l-8.5,50.6c0,0,0,0,0,0.1l-1.2,14.4c0,0.4,0.3,0.8,0.8,0.9l20.6,3.1
		c0.5,0.1,0.9-0.2,1-0.7l12.7-64.7c0.1-0.5-0.3-0.9-0.8-1L61.1,162C60.6,161.9,60.2,162.2,60.1,162.7z"/>
	<path style="fill:#3580AF;" d="M236.2,174.8l11.8,0.6c0,0,0.1,0,0.1,0l13.6-1.3l39.9-3.3c0.5,0,0.9-0.4,0.8-0.9l-1.5-13.1
		c-0.1-0.5-0.5-0.8-1-0.7l-38.8,3.5l-4.2,0.2l-7.9,0.8c0,0-0.1,0-0.1,0l-11.5-0.4"/>
	<path style="fill:#3580AF;" d="M305.9,155.6l36.8-3.6c0.5,0,1,0.3,1,0.7l1.6,13c0.1,0.5-0.3,0.9-0.8,0.9l-37,3.2
		c-0.5,0-1-0.3-1-0.7l-1.4-12.7C305.1,156.1,305.4,155.7,305.9,155.6z"/>
	<path style="fill:#2E3B80;" d="M327.2,235.4l9.9,0.7c0.5,0,1,0.5,0.9,1.1l-0.4,5.7c0,0.6-0.5,1-1.1,0.9l-10.1-0.7
		c-0.6,0-1-0.5-0.9-1.1l0.6-5.7C326.2,235.7,326.7,235.3,327.2,235.4z"/>
	<path style="fill:#2E3B80;" d="M247.5,226.4l4.1,0.3c0.5,0,0.9,0.5,0.9,1.1l-0.6,10.4c0,0.5-0.5,1-1,0.9L247,239c-0.6,0-1-0.5-1-1
		l0.4-10.6C246.4,226.8,246.9,226.4,247.5,226.4z"/>
	<path style="fill:#2E3B80;" d="M246.5,247.3l9.5,0.7c0.5,0,1-0.3,1.1-0.9l0.6-5.1c0.1-0.6-0.4-1.1-0.9-1.1l-9.9-0.8
		c-0.6,0-1.1,0.4-1.1,1l-0.2,5.1C245.5,246.9,246,247.3,246.5,247.3z"/>
</g>
</svg>
