<?xml version="1.0" encoding="utf-8"?>
<!-- Generator: Adobe Illustrator 23.0.1, SVG Export Plug-In . SVG Version: 6.00 Build 0)  -->
<svg version="1.1" id="图层_1" xmlns="http://www.w3.org/2000/svg" xmlns:xlink="http://www.w3.org/1999/xlink" x="0px" y="0px"
	 viewBox="0 0 580 428" style="enable-background:new 0 0 580 428;" xml:space="preserve">
<path style="fill:#537BA0;" d="M491.6,273.5l-79.9-3.7c-0.5,0-0.9-0.5-0.9-1l0.8-17.4c0-0.5,0.5-1,1-0.9l79.9,3.7
	c0.5,0,0.9,0.5,0.9,1l-0.8,17.4C492.6,273.1,492.2,273.5,491.6,273.5z"/>
<path style="fill:#537BA0;" d="M494,220.3l-108.2-5c-0.5,0-0.9-0.5-0.9-1l0.8-17.7c0-0.5,0.5-1,1-0.9l108.2,5c0.5,0,0.9,0.5,0.9,1
	l-0.8,17.7C495,219.9,494.5,220.3,494,220.3z"/>
<path style="fill:#537BA0;" d="M478,142.9l-81.5-3.8c-0.5,0-0.9-0.5-0.9-1l0.8-17.1c0-0.5,0.5-1,1-0.9l81.5,3.8c0.5,0,0.9,0.5,0.9,1
	L479,142C479,142.5,478.5,142.9,478,142.9z"/>
<path style="fill:#537BA0;" d="M376.9,268.2l-17-0.8c-0.5,0-0.9-0.5-0.9-1l4.6-103.4c0-0.5,0.5-1,1-0.9l17,0.8c0.5,0,0.9,0.5,0.9,1
	l-4.6,103.4C377.9,267.8,377.4,268.2,376.9,268.2z"/>
<path style="fill:#537BA0;" d="M348.7,266.9l-17-0.8c-0.5,0-0.9-0.5-0.9-1l4.5-101.2c0-0.5,0.5-1,1-0.9l17,0.8c0.5,0,0.9,0.5,0.9,1
	l-4.5,101.2C349.7,266.5,349.3,266.9,348.7,266.9z"/>
<path style="fill:#537BA0;" d="M321.1,266.9l-17-0.8c-0.5,0-0.9-0.5-0.9-1l4.4-98.8c0-0.5,0.5-1,1-0.9l17,0.8c0.5,0,0.9,0.5,0.9,1
	l-4.4,98.8C322.1,266.5,321.6,266.9,321.1,266.9z"/>
<path style="fill:#537BA0;" d="M293.3,265.6l-17-0.8c-0.5,0-0.9-0.5-0.9-1l4.2-94.9c0-0.5,0.5-1,1-0.9l17,0.8c0.5,0,0.9,0.5,0.9,1
	l-4.2,94.9C294.3,265.2,293.8,265.6,293.3,265.6z"/>
<path style="fill:#537BA0;" d="M266.4,263l-17-0.8c-0.5,0-0.9-0.5-0.9-1l3.9-87.7c0-0.5,0.5-1,1-0.9l17,0.8c0.5,0,0.9,0.5,0.9,1
	l-3.9,87.7C267.4,262.6,266.9,263.1,266.4,263z"/>
<path style="fill:#537BA0;" d="M237.7,263.2l-17-0.8c-0.5,0-0.9-0.5-0.9-1l3.9-87.7c0-0.5,0.5-1,1-0.9l17,0.8c0.5,0,0.9,0.5,0.9,1
	l-3.9,87.7C238.7,262.8,238.2,263.3,237.7,263.2z"/>
<path style="fill:#537BA0;" d="M204.3,259.8l-16.9-2.2c-0.5-0.1-0.9-0.6-0.8-1.1l10.2-83.3c0.1-0.5,0.6-0.9,1.1-0.9l16.9,2.2
	c0.5,0.1,0.9,0.6,0.8,1.1L205.4,259C205.3,259.5,204.8,259.9,204.3,259.8z"/>
<path style="fill:#537BA0;" d="M175.2,255.3l-16.8-2.7c-0.5-0.1-0.9-0.6-0.8-1.1l12.3-81.4c0.1-0.5,0.6-0.9,1.1-0.8l16.8,2.7
	c0.5,0.1,0.9,0.6,0.8,1.1l-12.3,81.4C176.3,255,175.8,255.4,175.2,255.3z"/>
<path style="fill:#537BA0;" d="M147.7,251l-16.8-2.7c-0.5-0.1-0.9-0.6-0.8-1.1l12.3-81.4c0.1-0.5,0.6-0.9,1.1-0.8l16.8,2.7
	c0.5,0.1,0.9,0.6,0.8,1.1l-12.3,81.4C148.7,250.7,148.2,251.1,147.7,251z"/>
<path style="fill:#2C3B80;" d="M444.6,313.2l3-0.4c0.5-0.1,1,0.3,1.1,0.8l0.4,2.7c0.1,0.5-0.3,1-0.8,1.1l-3,0.4
	c-0.5,0.1-1-0.3-1.1-0.8l-0.4-2.7C443.7,313.7,444,313.2,444.6,313.2z"/>
<path style="fill:#2C3B80;" d="M436.1,299.3l3-0.5c0.5-0.1,1,0.3,1.1,0.8l0.5,2.7c0.1,0.5-0.3,1.1-0.8,1.2l-3,0.5
	c-0.5,0.1-1-0.3-1.1-0.8l-0.5-2.7C435.3,299.9,435.6,299.4,436.1,299.3z"/>
<path style="fill:#2C3B80;" d="M113.8,177.7l3-0.2c0.5,0,1,0.4,1,0.9l0.2,2.8c0,0.5-0.4,1-0.9,1.1l-3,0.2c-0.5,0-1-0.4-1-0.9
	l-0.2-2.8C112.8,178.3,113.2,177.8,113.8,177.7z"/>
<path style="fill:#2C3B80;" d="M415.6,178.9l3,0.2c0.5,0,0.9,0.5,0.9,1l-0.1,2.8c0,0.5-0.5,1-1,0.9l-3-0.2c-0.5,0-0.9-0.5-0.9-1
	l0.1-2.8C414.6,179.3,415.1,178.9,415.6,178.9z"/>
<path style="fill:#2C3B80;" d="M286.4,140.7l3-0.2c0.5,0,1,0.4,1,0.9l0.2,2.8c0,0.5-0.4,1-0.9,1.1l-3,0.2c-0.5,0-1-0.4-1-0.9
	l-0.2-2.8C285.4,141.2,285.9,140.7,286.4,140.7z"/>
<path style="fill:#2C3B80;" d="M306.6,139l3-0.2c0.5,0,1,0.4,1,0.9l0.2,2.8c0,0.5-0.4,1-0.9,1.1l-3,0.2c-0.5,0-1-0.4-1-0.9l-0.2-2.8
	C305.6,139.5,306,139.1,306.6,139z"/>
<path style="fill:#2C3B80;" d="M329.3,136.4l3-0.2c0.5,0,1,0.4,1,0.9l0.2,2.8c0,0.5-0.4,1-0.9,1.1l-3,0.2c-0.5,0-1-0.4-1-0.9
	l-0.2-2.8C328.3,136.9,328.7,136.5,329.3,136.4z"/>
<path style="fill:#2C3B80;" d="M316.8,138l3-0.2c0.5,0,1,0.4,1,0.9l0.2,2.8c0,0.5-0.4,1-0.9,1.1l-3,0.2c-0.5,0-1-0.4-1-0.9l-0.2-2.8
	C315.9,138.5,316.3,138,316.8,138z"/>
<path style="fill:#2C3B80;" d="M339.1,135.1l3-0.2c0.5,0,1,0.4,1,0.9l0.2,2.8c0,0.5-0.4,1-0.9,1.1l-3,0.2c-0.5,0-1-0.4-1-0.9
	l-0.2-2.8C338.1,135.6,338.5,135.1,339.1,135.1z"/>
<path style="fill:#2C3B80;" d="M502.7,107.2l3.1,0.1c0.5,0,0.9,0.5,0.9,1l0,2.8c0,0.5-0.4,1-1,1l-3.1-0.1c-0.5,0-0.9-0.5-0.9-1
	l0-2.8C501.8,107.7,502.2,107.2,502.7,107.2z"/>
<path style="fill:#537BA0;" d="M372.9,100.5l0.6,9.2c0,0.5-0.4,1-0.9,1L221.1,125c-0.1,0-0.2,0-0.3,0l-27-4.8l0.1-2.7l16.9,0.8
	c0,0,0.1,0,0.1,0l84.2-8.5l56.1-4.8c0.1,0,0.1,0,0.2,0l20.3-5.4C372.3,99.4,372.9,99.9,372.9,100.5z"/>
<path style="fill:#537BA0;" d="M439.7,84.4l92.9,6.9c0.5,0,1-0.4,1-0.9l0.9-19.2c0-0.5-0.4-1-0.9-1L508.8,69c-0.1,0-0.2,0-0.3,0
	L439.7,84.4z"/>
<path style="fill:#537BA0;" d="M374.5,110.6l106.6,4.9c0.5,0,1-0.4,1-0.9l1.2-22.4c0-0.5-0.4-4.7-0.9-4.7l-42.5-3.2
	c-0.1,0-0.2,0-0.3,0l-65.9,14.7c-0.5,0.1-0.8,0.5-0.8,1l0.7,9.6C373.6,110.2,374,110.6,374.5,110.6z"/>
<path style="fill:#537BA0;" d="M51.5,234.9l70.1,13.2c0.5,0.1,1-0.3,1.1-0.8l11.4-68.1c0.1-0.5-0.3-1-0.8-1.1l-9.3-1.6
	c-0.5-0.1-1,0.3-1.1,0.8l-4.9,23.9c-0.5,2.6-2.3,2.7-4.9,2.1L98.9,201c-2.4-0.6-2.7-2.4-2.3-4.9l4.1-25c0-0.1,0.1-0.2,0.1-0.3
	l1.4-2.5c0.9-1.6,2.7-2.5,4.5-2.3l21.2,1.5c2.2,0.3,4.3-1.1,5-3.3l2.3-7.8c0.1-0.5,0.6-0.8,1.1-0.7l76.1,10.6c0.3,0,0.6-0.1,0.8-0.3
	l4.7-4.8c0.2-0.2,0.3-0.4,0.3-0.7l1.1-24.7c0-0.5-0.4-1-0.9-1L80.7,122.4c-0.2,0-0.5,0-0.6,0.2l-14.6,10.6c-0.2,0.2-0.4,0.4-0.4,0.7
	l-14.2,100C50.7,234.3,51,234.8,51.5,234.9z"/>
<path style="fill:#537BA0;" d="M384.4,151.2l-1.7-29c0-0.6-0.5-1-1.1-0.9l-26.2,2.7c-0.5,0.1-0.9,0.5-0.9,1.1l1.7,16.1
	c0.1,0.5-0.3,1-0.9,1.1l-21,2.2l-68.4,6.5c-0.5,0.1-1-0.4-1.1-0.9l-1.3-15.9c0-0.5-0.5-0.9-1-0.9l-36.4,3c-0.5,0-0.9,0.5-0.9,1.1
	l3,27.4c0.1,0.5,0.5,0.9,1,0.9l31.9-2.7l2.2-0.2l120-10.4C384.1,152.2,384.5,151.7,384.4,151.2z"/>
<path style="fill:#537BA0;" d="M392.4,187.3L407,188c0.5,0,1-0.4,1-0.9l0.6-13.7c0-0.5,0.5-1,1-0.9l10.7,0.5c0.5,0,0.9,0.5,0.9,1
	l-0.2,5.3l-0.4,8c0,0.5,0.4,1,0.9,1l66,3.5c0.5,0,1-0.4,1-0.9l0.3-6.3c0-0.5-0.4-1-0.9-1l-14.1-1.1c-0.5,0-0.9-0.5-0.9-1l1.1-30.3
	c0-0.5-0.4-1-0.9-1l-78.9-2.9c-0.5,0-1,0.4-1,0.9l-1.7,38.3C391.5,186.8,391.9,187.3,392.4,187.3z"/>
<path style="fill:#537BA0;" d="M530.1,101.4l-21.2-1c-0.5,0-1,0.4-1,0.9l-0.6,13.2c0,0.5-0.5,1-1,0.9l-12.8-0.6c-0.5,0-1,0.4-1,1
	l-1.5,51.1c0,0.5,0.4,1,0.9,1l6.2,0.3c0.5,0,0.9,0.4,0.9,0.9l2,47.9c0,0.5,0.4,0.9,0.9,0.9l4.9,0.2c0.5,0,0.9-0.3,1-0.8L531,102.5
	C531.1,101.9,530.7,101.4,530.1,101.4z"/>
<path style="fill:#537BA0;" d="M390.9,223l114.6,5.3c0.6,0,1,0.6,0.9,1.2l-3,16.9c-0.1,0.5-0.5,0.8-1,0.8l-94-4.4
	c-0.5,0-1,0.4-1,0.9l-1.3,23c0,0.5-0.5,0.9-1,0.9l-16.2-0.8c-0.5,0-0.9-0.5-0.9-1l1.9-41.9C389.9,223.4,390.3,222.9,390.9,223z"/>
<path style="fill:#537BA0;" d="M102.1,254.3l15.2,2.4c0.5,0.1,0.9,0.6,0.8,1.1l-2.2,13.1c0,0.1,0,0.2,0,0.3l1.9,15.8
	c0.1,0.5-0.3,1-0.8,1.1l-15,2.6c-0.5,0.1-1-0.3-1.1-0.8l-3.2-18.4c0-0.1,0-0.3,0-0.4l3.3-16.1C101.1,254.6,101.5,254.2,102.1,254.3z
	"/>
<path style="fill:#2C3B80;" d="M254,297.1l3,0.2c0.5,0,0.9,0.5,0.9,1l-0.1,2.8c0,0.5-0.5,1-1,0.9l-3-0.2c-0.5,0-0.9-0.5-0.9-1
	l0.1-2.8C253,297.5,253.5,297,254,297.1z"/>
<path style="fill:#2C3B80;" d="M80.9,309.9l3-0.3c0.5-0.1,1,0.3,1.1,0.9l0.3,2.8c0.1,0.5-0.3,1-0.9,1.1l-3,0.3
	c-0.5,0.1-1-0.3-1.1-0.9L80,311C79.9,310.4,80.3,309.9,80.9,309.9z"/>
<path style="fill:#2C3B80;" d="M163.7,299.4l3-0.3c0.5-0.1,1,0.3,1.1,0.9l0.3,2.8c0.1,0.5-0.3,1-0.9,1.1l-3,0.3
	c-0.5,0.1-1-0.3-1.1-0.9l-0.3-2.8C162.8,300,163.2,299.5,163.7,299.4z"/>
<path style="fill:#2C3B80;" d="M354.6,296.1l3-0.3c0.5-0.1,1,0.3,1.1,0.8l0.4,2.8c0.1,0.5-0.3,1-0.8,1.1l-3,0.3
	c-0.5,0.1-1-0.3-1.1-0.8l-0.4-2.8C353.7,296.7,354.1,296.2,354.6,296.1z"/>
<path style="fill:#537BA0;" d="M396.2,279.3l100.3,4.3c0.6,0,1,0.6,0.9,1.1l-2,13c-0.1,0.4-0.4,0.8-0.8,0.8l-6.7,1l-10.6,1.6
	l-17.4,1.9l-8.1,1.3l-7.3,0.9c-0.5,0.1-1-0.3-1.1-0.8l-1.3-7.1c-0.1-0.5-0.5-0.9-1-0.8l-7.4,0.7c-0.5,0.1-0.9,0.6-0.9,1.1l1,7
	c0.1,0.5-0.3,1-0.8,1.1l-15.2,2c-0.5,0.1-0.9,0.5-0.8,1.1l0.2,2.5c0.1,0.6,0.6,1,1.1,0.9l19.4-2.7c0.5-0.1,1,0.3,1.1,0.9l1,8.8
	c0.1,0.5,0.5,0.9,1,0.9l12.7-0.9c0.5,0,1-0.5,0.9-1.1l-0.8-7.5c-0.1-0.5,0.3-1,0.8-1.1l38.7-6.1c0.6-0.1,1.2,0.4,1.1,1.1l-0.9,7.4
	c-0.1,0.5-0.5,0.9-1,0.9l-20.5-1.2c-0.6,0-1.1,0.5-1,1.1c0.4,3.5,0.2,13.6-14.7,16.6c-0.1,0-0.2,0-0.3,0l-52.2-3.1
	c-0.4,0-0.8-0.4-0.9-0.8l-7.6-45.5C395.1,279.9,395.6,279.3,396.2,279.3z"/>
<path style="fill:#537BA0;" d="M291.7,275.9l-2,33.6c0,0.5-0.5,0.9-1,0.9l-23.6-1.1c-0.5,0-0.9-0.5-0.9-1l0.5-10.5
	c0-0.5-0.4-1-0.9-1l-15.8-0.7c-0.5,0-1,0.4-1,0.9l-0.2,4.6c0,0.6-0.5,1-1.1,0.9l-22.1-2c-0.5,0-0.9-0.4-0.9-0.9l-1.1-26.8
	c0-0.6,0.4-1,1-1l68.3,3.2C291.3,274.9,291.8,275.4,291.7,275.9z"/>
<path style="fill:#537BA0;" d="M228.9,304.6l25.3,1.2c0.5,0,0.9,0.5,0.9,1l-0.2,4.5c0,0.5,0.4,1,0.9,1l32.6,1.5c0.5,0,0.9,0.5,0.9,1
	l-0.3,6.3c0,0.5-0.5,1-1,0.9l-59.9-2c-0.5,0-1-0.5-0.9-1l0.6-13.5C227.9,305,228.4,304.6,228.9,304.6z"/>
<path style="fill:#537BA0;" d="M293,281.9l0.4-4.8c0-1.1,0.9-1,1.9-1l86.9,3.7c0.9,0,1.7,0.7,1.8,1.6l6.6,40.5
	c0.1,0.5-0.3,1-0.8,1.1l-14.3,2.7c-0.5,0.1-1-0.2-1.1-0.8l-3.6-18.5c-0.1-0.5-0.6-0.9-1.1-0.8l-4.1,0.6c-0.5,0.1-1-0.3-1.1-0.8
	l-1.9-11.1c-0.1-0.5-0.6-0.9-1.1-0.8l-10.2,1.4c-0.5,0.1-0.9,0.6-0.8,1.1l1.9,10.9c0.1,0.6-0.3,1.1-0.9,1.1l-3.6,0.3
	c-0.5,0.1-0.9,0.5-0.9,1.1l0.5,5.7c0,0.6-0.4,1.1-1,1.1l-33.3-1.8c-1.1-0.1-1.9-1-1.8-2.1l0.5-27.4c0-0.9-3.9-0.7-5.9-0.6
	c-0.5,0-0.9,0.4-0.9,0.9c-0.2,4.9-1.2,27.9-1.5,34.3c0,1-3.7,0.6-12.3,0C289.6,319.6,293,282,293,281.9z"/>
<path style="fill:#537BA0;" d="M306,322.5l64.4,3.4c0.5,0,1-0.4,1-1l0.1-4.7c0-0.5-0.4-1-0.9-1l-64.3-3.2c-0.5,0-1,0.4-1,0.9
	l-0.2,4.5C305,322,305.5,322.5,306,322.5z"/>
<path style="fill:#537BA0;" d="M353.5,310.8l10.9-1.1c0.5-0.1,1,0.3,1.1,0.8l0.8,5.7c0.1,0.6-0.4,1.2-1,1.1l-11.1-0.5
	c-0.5,0-0.8-0.4-0.9-0.8l-0.6-4.1C352.6,311.4,353,310.9,353.5,310.8z"/>
<path style="fill:#537BA0;" d="M51.6,244.7l12.5,2c0.5,0.1,0.9,0.5,0.8,1.1l-2.4,25.4c0,0,0,0.1,0,0.1l0.3,21.5c0,0.1,0,0.1,0,0.2
	l2.8,16.2c0,0.1,0,0.1,0.1,0.2l3.5,8.6c0.2,0.4,0.6,0.7,1,0.6l12.5-1.3l19.9-2.2c0.5-0.1,1,0.3,1.1,0.8l0.8,4.5
	c0.1,0.5,0.6,0.9,1.1,0.8l26.9-3.7c0.5-0.1,0.9-0.5,0.8-1.1l-0.5-4.6c-0.1-0.5,0.3-1,0.9-1.1l54.2-5.6c0.5,0,0.8-0.4,0.9-0.9
	l0.1-1.4c0-0.5,0.4-0.9,0.8-0.9l12.3-1.7c0.5-0.1,0.9-0.6,0.8-1.1l-3.4-21.5c-0.1-0.4-0.4-0.8-0.8-0.8l-43.2-6.9
	c-0.5-0.1-0.9-0.6-0.8-1.1l1.2-9.3c0.1-0.6,0.6-0.9,1.1-0.8l54.2,9.2c0.4,0.1,0.7,0.4,0.8,0.7l1.1,4.4c0,0,0,0.1,0,0.1l4,42.8
	c0.1,0.5-0.3,1-0.8,1.1L77.9,335.7c0,0,0,0-0.1,0l-16.4,1c-0.2,0-0.4,0-0.6-0.1l-8.4-5.1c-0.2-0.1-0.3-0.3-0.4-0.5l-4.7-13.2
	c0-0.1-0.1-0.2-0.1-0.3l-1.8-27.7c0-0.1,0-0.1,0-0.2l4.9-44C50.6,245.1,51.1,244.7,51.6,244.7z"/>
<path style="fill:#537BA0;" d="M72.9,250.6l-3.6,20.2c0,0.1,0,0.2,0,0.3l3.8,26.2l0.6,5.1c0.1,0.5,0.5,0.9,1.1,0.9l16.3-1.9
	c0.5-0.1,0.9-0.6,0.8-1.1L87,270c0-0.1,0-0.2,0-0.3l2.4-15.8c0.1-0.5-0.3-1-0.8-1.1l-14.5-3C73.5,249.7,73,250.1,72.9,250.6z"/>
<path style="fill:#537BA0;" d="M95.1,302.3l1.2,10.6c0.1,0.5,0.5,0.9,1,0.9l6.8-0.6c0.5,0,0.9-0.4,0.9-0.9l0.1-3.4
	c0-0.5,0.4-0.9,0.8-0.9l25.2-3.5c0.5-0.1,0.9-0.5,0.8-1l-0.3-6.4c0-0.5,0.3-1,0.8-1l22.8-2.8c0.5-0.1,0.9-0.6,0.8-1.1l-3-20.8
	c0-0.1,0-0.2,0-0.3l1.1-8.6c0.1-0.5-0.3-1-0.8-1.1l-25-3.2c-0.5-0.1-1,0.3-1.1,0.9l-1.7,15.5c0,0,0,0.1,0,0.1l0.5,13
	c0,0,0,0.1,0,0.1l0.8,6.5c0.1,0.5-0.3,1-0.8,1.1l-30.2,6.1C95.4,301.4,95.1,301.8,95.1,302.3z"/>
</svg>
