<?xml version="1.0" encoding="utf-8"?>
<!-- Generator: Adobe Illustrator 23.0.1, SVG Export Plug-In . SVG Version: 6.00 Build 0)  -->
<svg version="1.1" id="图层_1" xmlns="http://www.w3.org/2000/svg" xmlns:xlink="http://www.w3.org/1999/xlink" x="0px" y="0px"
	 viewBox="0 0 580 428" style="enable-background:new 0 0 580 428;" xml:space="preserve">
<g>
	<g>
		<path style="fill:#537BA0;" d="M239.2,254.4l-16.3-0.7c-0.5,0-0.9-0.5-0.9-0.9l4.6-96.2c0-0.5,0.5-0.9,1-0.9l16.3,0.7
			c0.5,0,0.9,0.5,0.9,0.9l-4.6,96.2C240.1,254,239.7,254.4,239.2,254.4z"/>
		<path style="fill:#537BA0;" d="M265.9,253.5l-16.3-0.7c-0.5,0-0.9-0.5-0.9-0.9l4.6-96.2c0-0.5,0.5-0.9,1-0.9l16.3,0.7
			c0.5,0,0.9,0.5,0.9,0.9l-4.6,96.2C266.8,253.1,266.4,253.5,265.9,253.5z"/>
		<path style="fill:#537BA0;" d="M294.8,251.9l-16.3-0.2c-0.5,0-0.9-0.4-0.9-0.9l1.2-96.3c0-0.5,0.4-0.9,0.9-0.9l16.3,0.2
			c0.5,0,0.9,0.4,0.9,0.9l-1.2,96.3C295.7,251.5,295.3,252,294.8,251.9z"/>
		<path style="fill:#537BA0;" d="M321.5,252.3l-16.3-0.2c-0.5,0-0.9-0.4-0.9-0.9l1.2-96.3c0-0.5,0.4-0.9,0.9-0.9l16.3,0.2
			c0.5,0,0.9,0.4,0.9,0.9l-1.2,96.3C322.4,251.9,322,252.3,321.5,252.3z"/>
		<path style="fill:#537BA0;" d="M347.1,256.9l-16.3-0.2c-0.5,0-0.9-0.4-0.9-0.9l1.3-106.3c0-0.5,0.4-0.9,0.9-0.9l16.3,0.2
			c0.5,0,0.9,0.4,0.9,0.9L348,256C348,256.5,347.6,256.9,347.1,256.9z"/>
		<path style="fill:#537BA0;" d="M373.8,257.6l-16.3-0.2c-0.5,0-0.9-0.4-0.9-0.9l1.4-108.4c0-0.5,0.4-0.9,0.9-0.9l16.3,0.2
			c0.5,0,0.9,0.4,0.9,0.9l-1.4,108.4C374.7,257.2,374.3,257.6,373.8,257.6z"/>
		<path style="fill:#537BA0;" d="M141,145.4l-2.5,15.8c-0.1,0.5-0.6,0.8-1.1,0.8L72,152c-0.5-0.1-0.8-0.5-0.8-1l2.5-15.8
			c0.1-0.5,0.6-0.8,1.1-0.8l65.4,10C140.7,144.5,141,144.9,141,145.4z"/>
		<path style="fill:#2C3B80;" d="M445.8,148.8l2.9,0.1c0.5,0,0.9,0.4,0.9,0.9l-0.1,2.6c0,0.5-0.4,0.9-1,0.9l-2.9-0.1
			c-0.5,0-0.9-0.4-0.9-0.9l0.1-2.6C444.9,149.2,445.3,148.8,445.8,148.8z"/>
		<path style="fill:#2C3B80;" d="M409,172.4l2.9,0.1c0.5,0,0.9,0.4,0.9,0.9l-0.1,2.6c0,0.5-0.4,0.9-1,0.9l-2.9-0.1
			c-0.5,0-0.9-0.4-0.9-0.9l0.1-2.6C408,172.8,408.5,172.4,409,172.4z"/>
		<path style="fill:#2C3B80;" d="M172.2,219.5l2.9,0.4c0.5,0.1,0.8,0.5,0.8,1l-0.4,2.5c-0.1,0.5-0.5,0.9-1.1,0.8l-2.9-0.4
			c-0.5-0.1-0.8-0.5-0.8-1l0.4-2.5C171.3,219.8,171.7,219.4,172.2,219.5z"/>
		<path style="fill:#2C3B80;" d="M256.1,288.2l2.9,0.1c0.5,0,0.9,0.4,0.9,0.9l-0.1,2.6c0,0.5-0.5,0.9-1,0.9l-2.9-0.1
			c-0.5,0-0.9-0.4-0.9-0.9l0.1-2.6C255.2,288.6,255.6,288.2,256.1,288.2z"/>
		<path style="fill:#2C3B80;" d="M349.8,287.3l2.9-0.3c0.5-0.1,1,0.3,1,0.8l0.3,2.5c0.1,0.5-0.3,1-0.8,1l-2.9,0.3
			c-0.5,0.1-1-0.3-1-0.8l-0.3-2.5C348.9,287.8,349.3,287.4,349.8,287.3z"/>
		<path style="fill:#2C3B80;" d="M87.5,301.7l2.9-0.3c0.5-0.1,1,0.3,1,0.8l0.3,2.5c0.1,0.5-0.3,1-0.8,1L88,306c-0.5,0.1-1-0.3-1-0.8
			l-0.3-2.5C86.6,302.2,87,301.7,87.5,301.7z"/>
		<path style="fill:#2C3B80;" d="M166.9,291.4l2.9-0.3c0.5-0.1,1,0.3,1,0.8l0.3,2.5c0.1,0.5-0.3,1-0.8,1l-2.9,0.3
			c-0.5,0.1-1-0.3-1-0.8l-0.3-2.5C166,291.9,166.4,291.5,166.9,291.4z"/>
		<path style="fill:#2C3B80;" d="M121.6,172.7l2.9,0.4c0.5,0.1,0.8,0.5,0.8,1l-0.4,2.5c-0.1,0.5-0.5,0.9-1.1,0.8L121,177
			c-0.5-0.1-0.8-0.5-0.8-1l0.4-2.5C120.6,172.9,121.1,172.6,121.6,172.7z"/>
		<path style="fill:#2C3B80;" d="M283.4,134l2.9-0.3c0.5-0.1,1,0.3,1,0.8l0.3,2.5c0.1,0.5-0.3,1-0.8,1l-2.9,0.3
			c-0.5,0.1-1-0.3-1-0.8l-0.3-2.5C282.5,134.5,282.9,134,283.4,134z"/>
		<path style="fill:#2C3B80;" d="M187.6,135.8l2.9,0.5c0.5,0.1,0.8,0.5,0.8,1l-0.4,2.5c-0.1,0.5-0.6,0.8-1.1,0.8l-2.9-0.5
			c-0.5-0.1-0.8-0.5-0.8-1l0.4-2.5C186.6,136,187.1,135.7,187.6,135.8z"/>
		<path style="fill:#2C3B80;" d="M312,130.8l2.9-0.3c0.5-0.1,1,0.3,1,0.8l0.3,2.5c0.1,0.5-0.3,1-0.8,1l-2.9,0.3
			c-0.5,0.1-1-0.3-1-0.8l-0.3-2.5C311.1,131.3,311.5,130.9,312,130.8z"/>
		<path style="fill:#537BA0;" d="M495.3,223.3L523.9,87c0,0,0-0.1,0-0.1l0.9-18.3c0-0.5-0.4-0.9-0.9-0.9l-24.8-1.1
			c-0.1,0-0.2,0-0.3,0L386.6,92.1c-0.4,0.1-0.7,0.5-0.7,0.9l0.9,40.6c0,0.5,0.4,0.9,0.9,0.9l19.1,0.7c0.5,0,0.9-0.4,1-0.9l0.7-26.2
			c0-0.5,0.5-0.9,1-0.9l6.4,0.4c0.5,0,0.9,0.5,0.9,1l-1.4,25.9c0,0.5,0.4,0.9,0.9,1l15.8,0.5c0.5,0,0.9-0.4,1-0.9l1.4-42.6
			c0-0.5,0.4-0.9,1-0.9l6.7,0.2c0.5,0,0.9,0.4,0.9,0.9l-2,42.9c0,0.5,0.4,0.9,0.9,0.9l16.3,0.5c0.5,0,0.9-0.4,1-0.9l2.7-56.4
			c0-0.5,0.4-0.9,0.9-0.9l7.3,0.1c0.5,0,0.9,0.4,0.9,1l-2.7,55.9c0,0.5,0.4,0.9,0.9,0.9l16.3,0.6c0.5,0,0.9-0.4,1-0.9l3-62.3
			c0-0.5,0.4-0.9,0.9-0.9l6.4,0.1c0.5,0,0.9,0.4,0.9,0.9L490.6,223c0,0.5,0.4,0.9,0.9,0.9l2.9,0.1
			C494.9,224.1,495.3,223.8,495.3,223.3z"/>
		<path style="fill:#537BA0;" d="M380.6,256.4l5.4-113.2c0-0.5,0.5-0.9,1-0.9l51.5,2.4c0.5,0,0.9,0.4,0.9,0.9l-0.3,6.8
			c0,0.5,0.4,0.9,0.9,0.9L454,154c0.5,0,0.9-0.4,1-0.9l0.3-5.9c0-0.5,0.5-0.9,1-0.9l26.6,1.2c0.5,0,0.9,0.4,0.9,0.9L478.3,262
			c0,0.5-0.5,0.9-1,0.9l-14-0.6c-0.5,0-0.9-0.5-0.9-1l4.8-87.3c0-0.5-0.4-0.9-0.9-1l-8.6-0.4c-0.5,0-0.9,0.4-1,0.9l-4.2,87.3
			c0,0.5-0.5,0.9-1,0.9l-16-0.7c-0.5,0-0.9-0.4-0.9-0.9l4.1-86.8c0-0.5-0.4-0.9-0.9-0.9l-6-0.3c-0.5,0-0.9,0.4-1,0.9l-4.1,86.8
			c0,0.5-0.5,0.9-1,0.9l-15.8-0.7c-0.5,0-0.9-0.4-0.9-0.9l4.3-89.9c0-0.5-0.4-0.9-0.9-0.9l-8.8-0.4c-0.5,0-0.9,0.4-1,0.9l-4.2,88.8
			c0,0.5-0.5,0.9-1,0.9l-16.3-0.7C381,257.4,380.6,257,380.6,256.4z"/>
		<path style="fill:#537BA0;" d="M136.4,239.8l71.6,10.9c0.5,0.1,1-0.3,1.1-0.8l11.5-92.6c0.1-0.5-0.3-1-0.8-1l-16.6-1.9
			c-0.5-0.1-1,0.3-1,0.8l-6.5,47.3c-0.1,0.5-0.5,0.8-1,0.8l-3.5-0.3c-0.5,0-0.9,0.3-1,0.8l-2,15.2c-0.1,0.5-0.5,0.8-1,0.8l-7.7-1
			c-0.5-0.1-1,0.3-1,0.8l-0.9,5.7c-0.1,0.5-0.5,0.8-1.1,0.8l-10.1-1.5c-0.5-0.1-0.8-0.5-0.8-1l1.4-9.8c0.1-0.5-0.3-1-0.8-1l-8.9-1.2
			c-0.5-0.1-0.9-0.5-0.8-1l9.5-59.9c0.1-0.5-0.3-1-0.8-1l-14.6-1.9c-0.5-0.1-1,0.3-1,0.8l-14.1,90.2
			C135.5,239.3,135.9,239.7,136.4,239.8z"/>
		<path style="fill:#537BA0;" d="M177.2,151.3l16.5,2.6c0.5,0.1,0.8,0.5,0.8,1l-8.3,50.4c-0.1,0.5-0.6,0.8-1.1,0.8l-15.7-2.5
			c-0.5-0.1-0.8-0.5-0.8-1l7.6-50.5C176.2,151.6,176.6,151.2,177.2,151.3z"/>
		<path style="fill:#537BA0;" d="M233.5,130.6l135.7-13.9c0.5-0.1,1,0.3,1,0.8l1,15.2c0,0.5-0.4,0.9-0.9,1l-50,3.3
			c-0.5,0-0.9-0.3-1-0.8l-1.1-8.9c-0.1-0.5-0.5-0.8-1-0.8l-7.6,0.6c-0.5,0-0.9,0.5-0.8,0.9l0.3,9.8c0,0.5-0.4,0.9-0.9,0.9l-17.1,1.3
			c-0.5,0-0.9-0.3-1-0.8l-0.9-9.1c-0.1-0.5-0.5-0.9-1-0.8l-7.2,0.6c-0.5,0-0.9,0.5-0.8,1l0.7,8.6c0,0.5-0.3,0.9-0.8,1l-45.2,5.3
			c-0.5,0.1-1-0.3-1-0.8l-1.1-13.5C232.7,131.1,233,130.7,233.5,130.6z"/>
		<path style="fill:#537BA0;" d="M57.1,227.4l26.8,4.9c0.5,0.1,1-0.2,1.1-0.7l4.1-21.7c0.1-0.5,0.6-0.8,1.1-0.7l10.2,1.6
			c0.5,0.1,1-0.3,1.1-0.7l4.9-27.1c0.1-0.5,0.6-0.8,1-0.7l9.4,1.4c0.5,0.1,0.9,0.5,0.8,1l-8,50c-0.1,0.5,0.3,1,0.8,1l14.5,1.8
			c0.5,0.1,1-0.3,1-0.8l10.5-65.3c0.1-0.5-0.3-1-0.8-1l-6.5-0.9c-0.5-0.1-1,0.3-1,0.7l-2,11.5c-0.1,0.5-0.6,0.8-1.1,0.7l-17.4-3
			c-0.5-0.1-0.8-0.5-0.8-1l1.5-10.1c0.1-0.5-0.3-0.9-0.8-1l-38.8-6.3c-0.5-0.1-1,0.3-1.1,0.7l-11.1,64.7
			C56.3,226.8,56.6,227.3,57.1,227.4z"/>
		<path style="fill:#537BA0;" d="M64.4,123.7l117.1,17c0.5,0.1,1-0.3,1-0.8l1-5.9c0.1-0.5,0.6-0.8,1.1-0.7l9.8,1.7
			c0.5,0.1,0.8,0.5,0.8,1l-0.8,6.4c-0.1,0.5,0.3,0.9,0.8,1l1.2,0.2c0.5,0.1,1-0.3,1.1-0.8l3.7-25.3c0.1-0.5,0.5-0.8,1-0.8l4.7,0.6
			c0.5,0.1,0.9,0.5,0.8,1l-4.2,27.2c-0.1,0.5,0.3,1,0.8,1l17.9,2c0.5,0.1,0.9-0.3,1-0.7l4.9-25.2c0.1-0.4,0.4-0.7,0.8-0.7
			l146.5-14.4c0.5,0,0.9-0.5,0.8-1l-0.7-10.2c0-0.6-0.6-1-1.1-0.8l-26.1,6.2c0,0-0.1,0-0.1,0L226,113.8l-14.5,1.3c0,0-0.1,0-0.1,0
			l-31.4-1.4l-61.6-3.1l-13.6-0.9c0,0-0.1,0-0.1,0l-13.2-2.3L76.5,105c-0.2,0-0.5,0-0.6,0.1l-10.4,6.6c-0.2,0.1-0.4,0.4-0.4,0.6
			l-1.5,10.3C63.6,123.2,63.9,123.6,64.4,123.7z"/>
		<path style="fill:#537BA0;" d="M61.6,323.7l66.8-7.8c0.5-0.1,0.9-0.5,0.8-1l-6.5-50.7c0-0.1,0-0.2,0-0.2l2.1-14
			c0.1-0.5-0.3-0.9-0.8-1l-16.1-2.8c-0.5-0.1-1,0.3-1.1,0.8l-2.2,14c0,0.1,0,0.2,0,0.2L108,291c0.1,0.5-0.3,0.9-0.8,1l-6.8,1
			c-0.5,0.1-0.8,0.5-0.8,1l1.7,14c0.1,0.5-0.3,1-0.8,1l-24.2,2.5c-0.5,0.1-1-0.3-1-0.8l-4-42.8c0,0,0-0.1,0-0.1l1.3-26.3
			c0-0.5-0.3-0.9-0.8-0.9l-13.2-1.3c-0.5,0-0.9,0.3-1,0.8l-3.5,21.4c0,0.1,0,0.1,0,0.2l0.7,35.1c0,0.1,0,0.1,0,0.2l5.8,26.3
			C60.7,323.5,61.1,323.8,61.6,323.7z"/>
		<path style="fill:#537BA0;" d="M81.3,242.1l16.2,2.2c0.5,0.1,0.9,0.6,0.8,1.1l-2.8,15.1c0,0.1,0,0.2,0,0.3l3.4,29.4
			c0.1,0.5-0.3,0.9-0.8,1l-15,1.9c-0.5,0.1-1-0.3-1-0.8L78,259.4c0-0.1,0-0.2,0-0.2l2.2-16.3C80.3,242.3,80.8,242,81.3,242.1z"/>
		<path style="fill:#537BA0;" d="M47.8,331.5l2.2,10.7c0.1,0.5,0.5,0.8,1,0.7l158.9-19.8c0.1,0,0.1,0,0.2,0l81.5,3.7
			c0.6,0,1-0.4,1-1l-0.9-9.6c0-0.4-0.4-0.8-0.9-0.8l-80.2-3.7c-0.1,0-0.1,0-0.2,0L48.6,330.4C48,330.4,47.7,330.9,47.8,331.5z"/>
		<path style="fill:#537BA0;" d="M132.8,251.5l-1.1,13c0,0.1,0,0.1,0,0.2l5.4,35.7c0.1,0.5,0.5,0.8,1,0.8l25.9-3.2
			c0.5-0.1,0.9-0.5,0.8-1l-0.9-6c-0.1-0.5,0.3-1,0.8-1l6.4-0.7c0.5-0.1,0.9,0.3,1,0.7l1,5.6c0.1,0.5,0.5,0.8,1,0.7l16.7-1.7
			c0.5-0.1,1,0.3,1,0.8l0.2,3c0,0.5-0.3,0.9-0.8,1l-52.2,6.4c-0.5,0.1-0.9,0.5-0.8,1l0.4,4.8c0,0.5,0.5,0.9,1,0.8l69.7-8.7
			c0.5-0.1,0.8-0.5,0.8-0.9l-1.7-41.7c0-0.4-0.4-0.8-0.8-0.9l-42.8-4.6c0,0-1.5-0.1-2.5-0.2c-0.5,0-0.9,0.3-1,0.7l-2.3,12.8
			c0,0.1,0,0.2,0,0.3l2,17.1c0.1,0.5-0.3,1-0.8,1l-7.3,0.7c-0.5,0-0.9-0.3-1-0.8l-3.2-20.3c0-0.1,0-0.2,0-0.3l2-12.9
			c0.1-0.5-0.3-0.9-0.7-1l-15.2-2.8C133.9,249.7,132.9,250.4,132.8,251.5z"/>
		<path style="fill:#537BA0;" d="M232.1,304.3l42.9,2c0.5,0,0.9-0.4,1-0.9l0.9-18.6c0-0.5-0.4-0.9-0.9-0.9l-6.5-0.3
			c-0.5,0-0.9,0.4-1,0.9l-0.7,11.3c0,0.5-0.5,0.9-1,0.9l-34.5-1c-0.5,0-0.9,0.4-1,0.9l-0.2,5C231.2,303.9,231.6,304.3,232.1,304.3z"
			/>
		<path style="fill:#537BA0;" d="M344.6,269.8l2.1,15.8c0.1,0.5,0.5,0.8,1,0.8l6.6-0.8c0.5-0.1,0.9,0.3,1,0.7l1,5.6
			c0.1,0.5-0.2,0.9-0.7,1l-6.8,1.4c-0.5,0.1-0.8,0.5-0.7,1l1.9,14.2c0,0.1,0,0.2,0,0.3l-1.2,7.2c-0.1,0.5,0.3,1,0.9,1.1l18.6,0.9
			c0.6,0,1-0.5,1-1l-7.2-48.8c-0.1-0.5-0.5-0.8-0.9-0.8l-15.7,0.4C344.9,268.8,344.5,269.3,344.6,269.8z"/>
		<path style="fill:#537BA0;" d="M345,309.4l-3.3-24.7c0,0,0,0,0-0.1l-0.8-14.9c-0.1-0.9-0.8-1.7-1.7-1.7l-33-1.8
			c-0.2,0-0.4,0-0.5,0l-84.2-4.3c-1,0-1.8,0.7-1.7,1.7l0.9,39.3c0,0.5,0.4,0.9,0.9,0.9l5.6,0.3c0.5,0,0.9-0.4,1-0.9l0.6-9.8
			c0-0.5,0.5-0.9,1-0.9l5.5,0.3c0.5,0,0.9-0.4,1-0.9l0.7-12.5c0-0.5,0.5-0.9,1-0.9l9.6,0.9c0,0,0,0,0.1,0l17.3,0.4
			c0.7,0,1.1,0.6,0.9,1.2c-0.4,1.1,0.4,2.2,1.5,2.2l10,0.5l10.8,0.5c0.5,0,0.9,0.4,0.9,0.9l-1,21.1c0,0.5,0.4,0.9,0.9,0.9l13.2,0.6
			c0.5,0,0.9,0.4,0.9,0.9l-0.3,6.3c0,0.5,0.4,0.9,0.9,0.9l40.4,1.9c0.5,0,0.9-0.4,1-0.9l0.4-7.4C345,309.5,345,309.5,345,309.4z"/>
		<path style="fill:#537BA0;" d="M376.3,270.9l88.6,2.4c0.5,0,0.9,0.4,0.9,0.9l-1,42.6c0,0.1,0,0.2,0,0.2l-1.6,5.6
			c-0.1,0.4-0.5,0.7-0.9,0.7l-17.6-0.8c-0.5,0-0.9-0.4-0.9-0.9l-0.3-5.7c0-0.5,0.4-1,1-0.9l1.7,0.1c0.6,0,1.1-0.5,1-1.1l-2.1-11.6
			c-0.1-0.5-0.5-0.8-1-0.7l-11.7,1.4c-0.5,0.1-0.9,0.5-0.8,1l1.5,9.6c0.1,0.4,0.4,0.7,0.8,0.8l3.3,0.3c0.5,0,0.9,0.4,0.9,0.9
			l-0.1,5.6c0,0.5-0.5,0.9-1,0.9l-54.2-2.5c-0.4,0-0.8-0.4-0.9-0.8l-6.4-47C375.2,271.4,375.7,270.9,376.3,270.9z"/>
		<path style="fill:#537BA0;" d="M486.2,275.7l-10-1c-0.5-0.1-1,0.3-1,0.9l-2.8,58.3c0,0.5,0.4,0.9,0.9,0.9l4.9,0.2
			c0.5,0,0.9-0.3,1-0.8l7.9-57.5C487.1,276.2,486.7,275.7,486.2,275.7z"/>
	</g>
</g>
</svg>
