<?xml version="1.0" encoding="utf-8"?>
<!-- Generator: Adobe Illustrator 23.0.1, SVG Export Plug-In . SVG Version: 6.00 Build 0)  -->
<svg version="1.1" id="图层_1" xmlns="http://www.w3.org/2000/svg" xmlns:xlink="http://www.w3.org/1999/xlink" x="0px" y="0px"
	 viewBox="0 0 580 428" style="enable-background:new 0 0 580 428;" xml:space="preserve">
<path style="opacity:0.3;fill:#4A7793;enable-background:new    ;" d="M79.6,70.2l75.3,5.5c6.5,0.5,13.1-0.7,19.1-3.3
	C199.3,61.2,277.4,32.4,370,56c5.9,1.5,12,1.6,17.9,0.4c102.5-21,117.3-31.3,140.5-29.3c23.9,2,43.9,22.9,42.9,59.9
	c-0.8,30-17.4,207.7-23.6,273.1c-1.5,16.3-12.8,30.1-28.5,34.7c-25.7,7.5-67.4,12.6-112.4-10.5c-69.8-35.8-285.1-7.5-308.3-4.4
	c-1.1,0.2-2.2,0.3-3.3,0.6c-10.1,2.3-77.7,14.2-81.4-78C11.1,239,6.9,179.2,9.4,132.2C11.3,95.5,42.9,67.6,79.6,70.2z"/>
</svg>
