<?xml version="1.0" encoding="utf-8"?>
<!-- Generator: Adobe Illustrator 23.0.1, SVG Export Plug-In . SVG Version: 6.00 Build 0)  -->
<svg version="1.1" id="图层_1" xmlns="http://www.w3.org/2000/svg" xmlns:xlink="http://www.w3.org/1999/xlink" x="0px" y="0px"
	 viewBox="0 0 580 428" style="enable-background:new 0 0 580 428;" xml:space="preserve">
<g>
	<path style="fill:#3580AF;" d="M171,107.8l-2.6,17.4c-0.1,0.5,0.3,0.9,0.8,1l12.6,2.1c0.5,0.1,1-0.2,1.1-0.7l0.7-4.3
		c0.1-0.5,0.6-0.8,1.1-0.7l11.9,1.9c0.5,0.1,1-0.2,1.1-0.7l2.2-15.1l-0.6-0.3L172,107C171.5,107,171.1,107.3,171,107.8z"/>
	<path style="fill:#3580AF;" d="M201.8,110.1c-0.5-0.5-1.5-0.3-1.6,0.4l-2.1,14.1l0.4,0l-3.1,18.6c-0.1,0.5,0.3,0.9,0.8,1l15,2
		c0.5,0.1,1-0.3,1.1-0.8l2-21.7c0,0,0.3-0.7-0.9-1.9C212.4,121,204.9,113.3,201.8,110.1z"/>
	<path style="fill:#3580AF;" d="M190.3,169.9l0.5,0l20-11.4c0.3-0.1,0.4-0.4,0.4-0.7l0.8-10.1c0-0.5-0.3-0.9-0.8-0.9l-16.1-2.1
		c-0.5-0.1-1,0.3-1,0.7L190.3,169.9z"/>
	<path style="fill:#3580AF;" d="M354.8,140.6l17.7-1.8c0.5-0.1,1,0.3,1,0.8l0.2,2.6c0,0.1,0,0.1,0,0.2l-3.4,21.4
		c-0.1,0.4-0.4,0.7-0.8,0.7c-1.7,0.2-6.2,1-12,4.3c-0.6,0.3-1.4,0-1.4-0.7c-0.5-6.6-1.9-22.8-2.2-26.6
		C353.9,141.1,354.3,140.7,354.8,140.6z"/>
	<path style="fill:#3580AF;" d="M285.8,154.2c0.2,2.7,0.9,11.2,1.1,14c0,0.5,0.5,0.9,1,0.8l11.2-1.1c0.5-0.1,0.9-0.5,0.8-0.9
		l-1.6-14c-0.1-0.5-0.5-0.8-1-0.8c-2.3,0.2-8.5,0.8-10.8,1.1C286.1,153.4,285.7,153.8,285.8,154.2z"/>
	<path style="fill:#3580AF;" d="M244.6,156.3l-0.2,3.2c0,0.3,0.1,0.5,0.3,0.7l13.2,11.3c0.2,0.2,0.4,0.2,0.7,0.2l2.1-0.1
		c0.5,0,0.9-0.4,0.9-0.9l-1.3-15.6c0-0.5-0.5-0.8-1-0.8l-13.8,1.1C244.9,155.6,244.6,155.9,244.6,156.3z"/>
	<path style="fill:#3580AF;" d="M411.8,189.1l16,0.8c0.5,0,1-0.3,1-0.8l0.2-4.5c0-0.5,0.5-0.8,1-0.8l8,0.4c0.5,0,0.9,0.4,0.9,0.9
		l-0.1,2.2c0,0.5,0.4,0.9,0.9,0.9l5.1,0.4c0.5,0,0.9,0.4,0.9,0.9l-2.5,49.3c0,0.5-0.5,0.8-1,0.8l-33-1.6l0-0.6l-15.1-0.6
		c-0.2,0-0.4,0-0.5,0.1l-0.6,0.4c-0.5,0.3-1.1,0.1-1.3-0.3l-0.4-0.8c-0.2-0.4-0.1-0.9,0.3-1.1l3.8-2.1c1.2-0.7,2.3-1.5,3.3-2.4
		l4.1-3.8c0.8-0.8,1.6-1.6,2.3-2.6l1.6-2.2c0.5-0.7,0.9-1.4,1.3-2.1l2.2-4.8c0,0,0-0.1,0-0.1l1.7-5.2c0,0,0-0.1,0-0.1l0.5-3.7
		l0.3-3.8c0,0,0-0.1,0-0.1l-0.3-4.5c0,0,0,0,0-0.1l-0.5-3.7c0,0,0-0.1,0-0.1l-1-3.3C410.7,189.6,411.2,189.1,411.8,189.1z"/>
	<path style="fill:#3580AF;" d="M431.6,290.1"/>
	<path style="fill:#3580AF;" d="M315.4,305.7l15.9,1c0.6,0,1.1-0.4,1-1l-1.1-7c-0.1-0.5,0.3-0.9,0.8-1l4.7-0.6
		c0.5-0.1,0.9-0.5,0.8-0.9l-2.2-16.9c-0.1-0.5-0.5-0.8-1.1-0.8l-17.8,2.3c-0.4,0.1-0.8,0.4-0.8,0.8l-0.1,2.1c0,0.6,0.5,1,1.1,0.9
		l3.6-0.7c0.6-0.1,1.1,0.3,1.1,0.8l0.2,3c0,0.4-0.3,0.8-0.8,0.9l-4.8,0.7c-0.4,0.1-0.8,0.4-0.8,0.8l-0.7,14.7
		C314.5,305.3,314.9,305.7,315.4,305.7z"/>
	<path style="fill:#3580AF;" d="M391,167.2c1.5,0.4,5.2,2.2,12.1,9.4c0.4,0.4,1,0.4,1.4,0.1c6-5.5,7.9-7.5,8.5-8.1
		c0.2-0.2,0.5-0.3,0.8-0.3l11,0.5c0.5,0,1-0.3,1-0.8l0.7-14.1c0-0.5,0.5-0.8,1-0.8l55.7,2.8c0.4,0,0.8-0.2,0.9-0.6
		c1.3-3.8,9.8-23.6,43-17.8c0.5,0.1,1-0.2,1.1-0.7l2.1-11.2c0,0,7.6-33-23.4-50.1c0,0-0.1,0-0.1,0c-6.7-2.9-18.5-9.4-39.8-0.8
		c-19,8.6-60.8,27.1-65.5,29.1c-0.3,0.1-0.5,0.4-0.5,0.6l-10.6,61.8C390.3,166.7,390.6,167.1,391,167.2z"/>
	<path style="fill:#3580AF;" d="M327.2,219.7c-0.5,0-0.9-0.4-0.9-0.9l1.1-22.6c0-0.5,0.6-0.9,1.2-0.8l9.4,2.4
		c0.4,0.1,0.7,0.5,0.7,0.9c-0.1,2.7-0.1,12.9,4.5,21.2c0.3,0.6-2.3,0.4-3,0.4"/>
	<path style="fill:#3580AF;" d="M313.3,219c-0.5,0-0.9-0.4-0.9-0.9l1.3-25.2c0-0.5,0.6-0.9,1.2-0.8l11.4,2.9
		c0.4,0.1,0.7,0.5,0.7,0.9l-1.1,23c0,0.5-0.5,0.8-1,0.8"/>
	<path style="fill:#3580AF;" d="M299.5,218.2c-0.5,0-0.9-0.4-0.9-0.9l1.2-23.4c0-0.4,0.4-0.8,0.8-0.8l11.5-1.1
		c0.6-0.1,1.1,0.4,1,0.9l-1.3,25.1c0,0.5-0.5,0.8-1,0.8"/>
	<path style="fill:#3580AF;" d="M285.7,217.6c-0.5,0-0.9-0.4-0.9-0.9l1.1-21.4c0-0.4,0.4-0.8,0.8-0.8l11.3-1c0.6-0.1,1.1,0.4,1,0.9
		l-1.1,22.9c0,0.5-0.5,0.8-1,0.8"/>
	<path style="fill:#3580AF;" d="M271.8,216.8c-0.5,0-0.9-0.4-0.9-0.9l1-19.3c0-0.4,0.4-0.8,0.8-0.8l11.4-1.1c0.6-0.1,1.1,0.4,1,0.9
		l-1,20.9c0,0.5-0.5,0.8-1,0.8"/>
	<path style="fill:#3580AF;" d="M258.8,197.3l11.3-1.1c0.6-0.1,1.1,0.4,1,0.9l-1,19.2c0,0.5-0.5,0.8-1,0.8l-11.2-0.6
		c-0.5,0-0.9-0.4-0.9-0.9l0.9-17.6C258,197.7,258.4,197.3,258.8,197.3z"/>
	<path style="fill:#3580AF;" d="M161.9,257l2-11.5c0.1-0.5,0.6-0.8,1.1-0.7l11.9,1.8c0.5,0.1,0.9,0.5,0.8,1L177,252
		c0,0.1,0,0.1,0,0.2l0.1,1.4c0,0,0,0.1,0,0.1l0.3,1.1l-14.4,3.1C162.4,258.1,161.8,257.6,161.9,257z"/>
	<path style="fill:#2C3B80;" d="M262.3,231.6l2.9,0.1c0.5,0,0.9,0.4,0.9,0.9l-0.1,2.2c0,0.5-0.4,0.8-1,0.8l-2.9-0.1
		c-0.5,0-0.9-0.4-0.9-0.9l0.1-2.2C261.4,232,261.8,231.6,262.3,231.6z"/>
	<path style="fill:#2C3B80;" d="M313.2,239.6l2.9,0.1c0.5,0,0.9,0.4,0.9,0.9l-0.1,2.2c0,0.5-0.4,0.8-1,0.8l-2.9-0.1
		c-0.5,0-0.9-0.4-0.9-0.9l0.1-2.2C312.2,239.9,312.7,239.6,313.2,239.6z"/>
	<path style="fill:#2C3B80;" d="M258.6,299.2l2.9,0.1c0.5,0,0.9,0.4,0.9,0.9l-0.1,2.2c0,0.5-0.4,0.8-1,0.8l-2.9-0.1
		c-0.5,0-0.9-0.4-0.9-0.9l0.1-2.2C257.7,299.5,258.1,299.2,258.6,299.2z"/>
	<path style="fill:#2C3B80;" d="M316.1,285.2l2.9-0.4c0.5-0.1,1,0.2,1.1,0.7l0.4,2.2c0.1,0.5-0.3,0.9-0.8,1l-2.9,0.4
		c-0.5,0.1-1-0.2-1.1-0.7l-0.4-2.2C315.2,285.7,315.6,285.3,316.1,285.2z"/>
	<path style="fill:#2C3B80;" d="M245.4,276l-0.1,2.7c0,0.5-0.4,0.8-1,0.8l-2.4-0.1c-0.5,0-0.9-0.4-0.9-0.9l0.1-2.7
		c0-0.5,0.4-0.8,1-0.8l2.4,0.1C245,275.2,245.4,275.6,245.4,276z"/>
	<path style="fill:#2C3B80;" d="M168.2,301.7l2.9-0.3c0.5-0.1,1,0.3,1,0.8l0.3,2.2c0.1,0.5-0.3,0.9-0.8,0.9l-2.9,0.3
		c-0.5,0.1-1-0.3-1-0.8l-0.3-2.2C167.4,302.2,167.7,301.8,168.2,301.7z"/>
	<path style="fill:#2C3B80;" d="M188,133.1l2.9,0.4c0.5,0.1,0.9,0.5,0.8,1l-0.3,2.2c-0.1,0.5-0.5,0.8-1,0.7l-2.9-0.4
		c-0.5-0.1-0.9-0.5-0.8-1l0.3-2.2C187,133.4,187.5,133,188,133.1z"/>
	<path style="fill:#2C3B80;" d="M120,174.2l2.9,0.4c0.5,0.1,0.9,0.5,0.8,1l-0.3,2.2c-0.1,0.5-0.5,0.8-1,0.7l-2.9-0.4
		c-0.5-0.1-0.9-0.5-0.8-1l0.3-2.2C119,174.5,119.5,174.1,120,174.2z"/>
	<path style="fill:#2C3B80;" d="M85.3,170.1l2.9,0.4c0.5,0.1,0.9,0.5,0.8,1l-0.3,2.2c-0.1,0.5-0.5,0.8-1,0.7l-2.9-0.4
		c-0.5-0.1-0.9-0.5-0.8-1l0.3-2.2C84.3,170.4,84.8,170.1,85.3,170.1z"/>
	<path style="fill:#2C3B80;" d="M76.4,225.9l2.9,0.4c0.5,0.1,0.9,0.5,0.8,1l-0.3,2.2c-0.1,0.5-0.5,0.8-1,0.7l-2.9-0.4
		c-0.5-0.1-0.9-0.5-0.8-1l0.3-2.2C75.5,226.2,75.9,225.8,76.4,225.9z"/>
	<path style="fill:#2D3B80;" d="M178.4,177.1l2.9,0.4c0.5,0.1,0.9,0.5,0.8,1l-0.3,2.2c-0.1,0.5-0.5,0.8-1,0.7l-2.9-0.4
		c-0.5-0.1-0.9-0.5-0.8-1l0.3-2.2C177.4,177.4,177.9,177.1,178.4,177.1z"/>
	<path style="fill:#2D3B80;" d="M111.2,207.1l2.9,0.4c0.5,0.1,0.9,0.5,0.8,1l-0.3,2.2c-0.1,0.5-0.5,0.8-1,0.7l-2.9-0.4
		c-0.5-0.1-0.9-0.5-0.8-1l0.3-2.2C110.2,207.4,110.7,207.1,111.2,207.1z"/>
	<path style="fill:#2C3B80;" d="M173,223.5l2.9,0.4c0.5,0.1,0.9,0.5,0.8,1l-0.3,2.2c-0.1,0.5-0.5,0.8-1,0.7l-2.9-0.4
		c-0.5-0.1-0.9-0.5-0.8-1l0.3-2.2C172,223.8,172.5,223.5,173,223.5z"/>
	<path style="fill:#2D3B80;" d="M283.1,180.2l2.9,0.4c0.5,0.1,0.9,0.5,0.8,1l-0.3,2.2c-0.1,0.5-0.5,0.8-1,0.7l-2.9-0.4
		c-0.5-0.1-0.9-0.5-0.8-1l0.3-2.2C282.1,180.5,282.6,180.2,283.1,180.2z"/>
	<path style="fill:#2C3B80;" d="M219.9,211.1l2.9,0.4c0.5,0.1,0.9,0.5,0.8,1l-0.3,2.2c-0.1,0.5-0.5,0.8-1,0.7l-2.9-0.4
		c-0.5-0.1-0.9-0.5-0.8-1l0.3-2.2C219,211.3,219.4,211,219.9,211.1z"/>
	<path style="fill:#2D3B80;" d="M324.1,174.5l2.9,0.4c0.5,0.1,0.9,0.5,0.8,1l-0.3,2.2c-0.1,0.5-0.5,0.8-1,0.7l-2.9-0.4
		c-0.5-0.1-0.9-0.5-0.8-1l0.3-2.2C323.1,174.7,323.5,174.4,324.1,174.5z"/>
	<path style="fill:#2C3B80;" d="M352,201.4l2.9,0.4c0.5,0.1,0.9,0.5,0.8,1l-0.3,2.2c-0.1,0.5-0.5,0.8-1,0.7l-2.9-0.4
		c-0.5-0.1-0.9-0.5-0.8-1l0.3-2.2C351,201.6,351.4,201.3,352,201.4z"/>
	<path style="fill:#2C3B80;" d="M402.8,242l2.9,0.2c0.5,0,0.9,0.4,0.9,0.9l-0.1,2.2c0,0.5-0.5,0.8-1,0.8l-2.9-0.2
		c-0.5,0-0.9-0.4-0.9-0.9l0.1-2.2C401.8,242.4,402.2,242,402.8,242z"/>
	<path style="fill:#2C3B80;" d="M452.7,316.8l0.4,2.7c0.1,0.5-0.3,0.9-0.8,1l-2.4,0.3c-0.5,0.1-1-0.3-1.1-0.7l-0.4-2.7
		c-0.1-0.5,0.3-0.9,0.8-1l2.4-0.3C452.2,316,452.6,316.3,452.7,316.8z"/>
	<path style="fill:#2D3B80;" d="M392.7,208.9l2.9,0.4c0.5,0.1,0.9,0.5,0.8,1l-0.3,2.2c-0.1,0.5-0.5,0.8-1,0.7l-2.9-0.4
		c-0.5-0.1-0.9-0.5-0.8-1l0.3-2.2C391.7,209.2,392.2,208.9,392.7,208.9z"/>
	<path style="fill:#2C3B80;" d="M422.1,176l2.9,0.4c0.5,0.1,0.9,0.5,0.8,1l-0.3,2.2c-0.1,0.5-0.5,0.8-1,0.7l-2.9-0.4
		c-0.5-0.1-0.9-0.5-0.8-1l0.3-2.2C421.2,176.2,421.6,175.9,422.1,176z"/>
	<path style="fill:#2C3B80;" d="M455,155l2.9,0.2c0.5,0,0.9,0.4,0.9,0.9l-0.1,2.2c0,0.5-0.5,0.8-1,0.8l-2.9-0.2
		c-0.5,0-0.9-0.4-0.9-0.9l0.1-2.2C454.1,155.4,454.5,155,455,155z"/>
	<path style="fill:#2C3B80;" d="M497.9,159.2l2.9,0.2c0.5,0,0.9,0.4,0.9,0.9l-0.1,2.2c0,0.5-0.5,0.8-1,0.8l-2.9-0.2
		c-0.5,0-0.9-0.4-0.9-0.9l0.1-2.2C497,159.5,497.4,159.1,497.9,159.2z"/>
	<path style="fill:#2C3B80;" d="M272.4,130.5l2.9-0.4c0.5-0.1,1,0.3,1.1,0.7l0.4,2.2c0.1,0.5-0.3,0.9-0.8,1l-2.9,0.4
		c-0.5,0.1-1-0.3-1.1-0.7l-0.4-2.2C271.6,131,271.9,130.5,272.4,130.5z"/>
	<path style="fill:#2C3B80;" d="M291.1,135l2.9-0.4c0.5-0.1,1,0.3,1.1,0.7l0.4,2.2c0.1,0.5-0.3,0.9-0.8,1l-2.9,0.4
		c-0.5,0.1-1-0.3-1.1-0.7l-0.4-2.2C290.2,135.5,290.5,135,291.1,135z"/>
	<path style="fill:#2C3B80;" d="M344.5,130l2.9-0.1c0.5,0,0.9,0.3,1,0.8l0.2,2.2c0,0.5-0.4,0.9-0.9,0.9l-2.9,0.1
		c-0.5,0-0.9-0.3-1-0.8l-0.2-2.2C343.6,130.4,344,130,344.5,130z"/>
	<path style="fill:#2C3B80;" d="M334.4,131.4l2.9-0.1c0.5,0,0.9,0.3,1,0.8l0.2,2.2c0,0.5-0.4,0.9-0.9,0.9l-2.9,0.1
		c-0.5,0-0.9-0.3-1-0.8l-0.2-2.2C333.5,131.8,333.9,131.4,334.4,131.4z"/>
	<path style="fill:#2C3B80;" d="M317.1,128.4l2.9-0.1c0.5,0,0.9,0.3,1,0.8l0.2,2.2c0,0.5-0.4,0.9-0.9,0.9l-2.9,0.1
		c-0.5,0-0.9-0.3-1-0.8l-0.2-2.2C316.1,128.8,316.5,128.4,317.1,128.4z"/>
	<path style="fill:#2C3B80;" d="M145.8,125.2l2.9,0.4c0.5,0.1,0.9,0.5,0.8,1l-0.3,2.2c-0.1,0.5-0.5,0.8-1,0.7l-2.9-0.4
		c-0.5-0.1-0.9-0.5-0.8-1l0.3-2.2C144.9,125.4,145.3,125.1,145.8,125.2z"/>
	<path style="fill:#2C3B80;" d="M85.3,311.7l2.9-0.4c0.5-0.1,1,0.3,1.1,0.8l0.3,2.2c0.1,0.5-0.3,0.9-0.8,0.9l-2.9,0.4
		c-0.5,0.1-1-0.3-1.1-0.8l-0.3-2.2C84.5,312.2,84.8,311.8,85.3,311.7z"/>
	<path style="fill:#2C3B80;" d="M439.5,293.9l2.9-0.3c0.5-0.1,1,0.3,1.1,0.8l0.3,2.2c0.1,0.5-0.3,0.9-0.8,0.9l-2.9,0.3
		c-0.5,0.1-1-0.3-1.1-0.8l-0.3-2.2C438.7,294.4,439,294,439.5,293.9z"/>
	<path style="fill:#2C3B80;" d="M350.9,300.3l2.9-0.3c0.5-0.1,1,0.3,1,0.8l0.2,2.2c0,0.5-0.3,0.9-0.8,0.9l-2.9,0.3
		c-0.5,0.1-1-0.3-1-0.8l-0.2-2.2C350,300.7,350.4,300.3,350.9,300.3z"/>
	<path style="fill:#537BA0;" d="M155.1,218.7l12.3,2c0.5,0.1,0.8,0.5,0.8,1l-2,12.4c-0.1,0.5-0.6,0.8-1.1,0.7l-12.5-2l0-0.8
		l-0.7-0.1l2.1-12.5C154.1,218.9,154.6,218.6,155.1,218.7z"/>
	<path style="fill:#2C3B80;" d="M338.8,297.9l4.6-0.6c0.5-0.1,1,0.3,1.1,0.8l1.1,10.9c0,0.5-0.3,0.9-0.8,0.9l-4.5,0.5
		c-0.5,0.1-1-0.3-1-0.8l-1.1-10.9C338,298.4,338.3,298,338.8,297.9z"/>
	<path style="fill:#2C3B80;" d="M409.4,240.6l-0.2,5c0,0.5,0.4,0.9,0.9,0.9l10.3,0.5c0.5,0,0.9-0.3,1-0.8l0.2-5
		c0-0.5-0.4-0.9-0.9-0.9l-10.3-0.5C409.8,239.8,409.4,240.2,409.4,240.6z"/>
	<path style="fill:#537BA0;" d="M452,268.2l-8.5-0.4c-0.5,0-0.9-0.4-0.8-0.9l4-80.9c0-0.5,0.4-0.9,0.9-0.8l8.5,0.4
		c0.5,0,0.9,0.4,0.8,0.9l-4,80.9C452.9,267.8,452.5,268.2,452,268.2z"/>
	<path style="fill:#537BA0;" d="M475.5,254.3l-8.5-0.4c-0.5,0-0.9-0.4-0.8-0.9l3.3-65.9c0-0.5,0.4-0.9,0.9-0.8l8.5,0.4
		c0.5,0,0.9,0.4,0.8,0.9l-3.3,65.9C476.4,254,476,254.3,475.5,254.3z"/>
	<path style="fill:#537BA0;" d="M82,317.1l13.9-1.9c0.5-0.1,1,0.3,1.1,0.8l1.9,14.4c0.1,0.5-0.3,0.9-0.8,0.9l-14,1.9
		c-0.5,0.1-1-0.3-1.1-0.8L81.2,318C81.2,317.6,81.5,317.2,82,317.1z"/>
	<path style="fill:#537BA0;" d="M163.8,307.8l14-2.1c0.5-0.1,1,0.3,1.1,0.8l1.7,14.1c0.1,0.5-0.3,0.9-0.8,0.9l-13.7,1.9
		c-0.5,0.1-1-0.3-1.1-0.7l-2-13.9C163,308.3,163.3,307.9,163.8,307.8z"/>
	<path style="fill:#537BA0;" d="M253.9,303.4l12.8,0.6c0.5,0,0.9,0.4,0.9,0.8l-0.7,13.4c0,0.4-0.5,0.8-1,0.7l-12.8-0.6
		c-0.5,0-0.9-0.4-0.9-0.8l0.7-13.4C252.9,303.7,253.4,303.3,253.9,303.4z"/>
	<path style="fill:#537BA0;" d="M340.2,311.6l47.5-6.2c0.5-0.1,1,0.3,1.1,0.8l1.1,10.1c0.1,0.5-0.3,0.9-0.8,0.9l-8.2,1
		c-0.4,0.1-0.8,0.4-0.8,0.8l-0.5,7.2c0,0.5-0.5,0.8-1,0.8l-37.4-1.7c-0.5,0-0.9-0.4-0.9-0.9l0.2-3.6c0-0.1,0-0.1,0-0.2l-1.1-8
		C339.4,312,339.7,311.6,340.2,311.6z"/>
	<path style="fill:#537BA0;" d="M375.1,301.5l12-1.4c0.5-0.1,1,0.3,1.1,0.8l0.2,2.3c0,0.5-0.3,0.9-0.8,0.9l-11.9,1.3
		c-0.5,0.1-1-0.3-1-0.8l-0.3-2.3C374.2,302,374.6,301.5,375.1,301.5z"/>
	<path style="fill:#537BA0;" d="M457.2,284.5l2.5,19.9c0.1,0.4-0.3,0.9-0.8,0.9l-1.8,0.3c-0.5,0.1-0.8,0.5-0.8,0.9l2.6,18.8
		c0.1,0.5,0.5,0.8,1,0.8l0.5-0.1c0.3,0,0.5-0.2,0.6-0.4l14.3-18.6c0.1-0.2,0.4-0.3,0.6-0.3l22.1-3.5c0.4-0.1,0.7-0.4,0.8-0.8
		l0.3-5.9c0-0.5-0.4-0.9-1-0.9l-2.9,0.2c-0.6,0-1-0.4-1-0.9l0.4-8.7c0-0.5-0.4-0.9-0.9-0.9l-35.7-1.8
		C457.5,283.5,457.1,283.9,457.2,284.5z"/>
	<path style="fill:#537BA0;" d="M440.5,184.3l11.7,0.6c0.5,0,1-0.3,1-0.8l0.7-13.3c0-0.5-0.4-0.9-0.9-0.9l-11.7-0.6
		c-0.5,0-1,0.3-1,0.8l-0.7,13.3C439.5,183.9,439.9,184.3,440.5,184.3z"/>
	<path style="fill:#537BA0;" d="M463.1,272.3l12.1,0.6c0.5,0,1-0.3,1-0.8l0.8-15.7c0-0.5-0.4-0.9-0.9-0.9l-12.1-0.6
		c-0.5,0-0.9,0.3-1,0.8l-0.8,15.7C462.2,271.9,462.6,272.3,463.1,272.3z"/>
	<path style="fill:#537BA0;" d="M498.8,165.4l17.3,1c0.3,0,0.6,0.2,0.8,0.4l4.8,7.7c0.1,0.2,0.1,0.4,0.1,0.6l-16.9,96.9
		c-0.1,0.4-0.5,0.7-1,0.7l-11.5-0.6c-0.5,0-0.9-0.4-0.9-0.9l6.4-105.1C497.8,165.7,498.2,165.4,498.8,165.4z"/>
	<path style="fill:#3580AF;" d="M350.2,110.4l1.2,11.2c0,0.5,0.5,0.8,1,0.8l18.9-1.4c0.5,0,0.9-0.5,0.8-0.9l-0.4-4.1
		c0-0.3-0.3-0.6-0.7-0.7l-19.6-5.6C350.7,109.3,350.1,109.8,350.2,110.4z"/>
	<path style="fill:#3580AF;" d="M260.7,155.1l1.4,15.3c0,0.5,0.5,0.8,1,0.8l8.3-0.7c0.5,0,0.9-0.5,0.8-0.9l-1.9-15.2
		c-0.1-0.5-0.5-0.8-1-0.8l-7.8,0.6C261.1,154.2,260.7,154.6,260.7,155.1z"/>
	<path style="fill:#3580AF;" d="M271.2,154.3l1.8,15c0.1,0.5,0.5,0.8,1,0.8l11.4-1c0.5,0,0.9-0.5,0.8-0.9l-1.4-15
		c0-0.5-0.5-0.8-1-0.8l-11.8,1C271.5,153.4,271.2,153.8,271.2,154.3z"/>
	<path style="fill:#3580AF;" d="M454.2,283.1l0.4,2.3c0.1,0.5-0.3,0.9-0.8,1l-33.9,4.4c-0.1,0-0.1,0-0.2,0l-15.4-0.8
		c-0.1,0-0.1,0-0.2,0l-2.2,0.3c-0.5,0.1-1-0.3-1.1-0.7l-1-5.7c-0.1-0.4,0.2-0.9,0.7-1l11.6-2.6c0.1,0,0.2,0,0.3,0l40.8,2
		C453.7,282.4,454.1,282.7,454.2,283.1z"/>
	<path style="fill:#3580AF;" d="M297.5,244.9l7.6,0.4c0.5,0,0.9,0.4,0.9,0.9l-0.6,12.2c0,0.5-0.5,0.9-1,0.8l-7.6-0.9
		c-0.5-0.1-0.8-0.4-0.8-0.9l0.6-11.7C296.6,245.3,297,244.9,297.5,244.9z"/>
	<polygon style="fill:#3580AF;" points="188.3,223.6 203.4,225.1 201.2,250.7 191.4,250.2 184.6,251.8 184.1,250.3 	"/>
	<path style="fill:#3580AF;" d="M89.1,206.2l-2.4,14.4c-0.1,0.4,0.2,0.8,0.6,0.8l12.4,2.1c0.5,0.1,0.9-0.3,0.9-0.7l-0.2-15
		c0-0.4-0.3-0.7-0.7-0.7l-9.7-1.5C89.6,205.5,89.1,205.8,89.1,206.2z"/>
	<path style="fill:#3580AF;" d="M67.7,133.7l21.7,3.7c0.1,0,0.2,0.1,0.3,0.1l12.6,7.4c0.1,0.1,0.2,0.1,0.3,0.2l6.6,9
		c0.1,0.2,0.2,0.4,0.1,0.6l-2.7,16.3c0,0,0,0,0,0c-0.1,0.5-0.9,9.5,5,17.5c0.2,0.3,0.2,0.8-0.1,1c-5.2,5.6-7.2,7.6-7.9,8.3
		c-0.2,0.2-0.5,0.3-0.8,0.2l-11-2c-0.5-0.1-0.8-0.5-0.8-1l4.9-31.1c0.1-0.5-0.3-0.9-0.8-1l-12.6-2.1c-0.5-0.1-0.8-0.5-0.8-0.9l1-10
		c0-0.5-0.3-0.9-0.8-0.9l-16.3-2.4c-0.5-0.1-0.9-0.5-0.8-1l1.7-11.5C66.7,134,67.2,133.6,67.7,133.7z"/>
	<path style="fill:#3580AF;" d="M130.4,106.7l-4,26.7c-0.1,0.5,0.3,0.9,0.7,1l11.7,2.2c0.5,0.1,0.8,0.6,0.7,1l-1.9,8.5
		c-0.1,0.4-0.6,0.7-1,0.7l-13-1.9c-0.2,0-0.5-0.2-0.6-0.3l-6.8-8.4c-0.1-0.1-0.1-0.2-0.2-0.3l-3.9-16.2c0-0.1,0-0.2,0-0.3l2.1-12.7
		c0-0.2,0.1-0.4,0.3-0.5l1-0.8c0.2-0.1,0.4-0.2,0.7-0.2l13.2,0.7C130.1,105.8,130.5,106.2,130.4,106.7z"/>
	<path style="fill:#3580AF;" d="M141.2,138.2l-2,8.4c-0.1,0.3,0,0.6,0.3,0.8l15.6,14c0.5,0.5,1.4,0.2,1.6-0.5l3.5-19.5
		c0.1-0.5-0.3-0.9-0.8-1l-17.1-2.9C141.8,137.4,141.3,137.7,141.2,138.2z"/>
	<path style="fill:#3580AF;" d="M165,141.7l-3.6,22.4c-0.1,0.5,0.3,0.9,0.8,1l12.8,2.1c0.5,0.1,1-0.2,1.1-0.7l4.1-22.2
		c0.1-0.5-0.3-0.9-0.8-1l-13.2-2.2C165.6,140.9,165.1,141.3,165,141.7z"/>
	<path style="fill:#3580AF;" d="M182.3,143.8l9.5,1.5c0.5,0.1,0.8,0.5,0.8,1l-3.5,22.1c-0.1,0.5-0.6,0.8-1.1,0.7l-9.4-1.6
		c-0.5-0.1-0.8-0.5-0.8-1l3.4-22C181.3,144.1,181.8,143.7,182.3,143.8z"/>
	<path style="fill:#3580AF;" d="M129.9,119.8c-0.1,0.5,0.3,0.9,0.8,1l11,1.7l16.4,2.7c0.5,0.1,1-0.2,1.1-0.7l2.6-15.7
		c0.1-0.5-0.3-1-0.9-1l-28.1-1.4c-0.5,0-0.9,0.3-1,0.7L129.9,119.8z"/>
	<path style="fill:#3580AF;" d="M90.7,289l1.4,10.2c0.1,0.5-0.3,0.9-0.8,1l-13.1,1.8c-0.5,0.1-0.8,0.5-0.8,0.9l3.7,29.8
		c0.1,0.5-0.3,0.9-0.8,0.9l-11.7,1.3c-0.5,0.1-1-0.3-1-0.8L64,306.6c0-0.2,0-0.4,0.2-0.6l12.7-16.1c0.2-0.2,0.4-0.3,0.6-0.3
		l12.1-1.3C90.2,288.2,90.6,288.5,90.7,289z"/>
	<path style="fill:#3580AF;" d="M107,285.8l8.7,10l4,32.4l-19.1,2.5l-5.1-31l-0.8,0.1c-0.5,0.1-1-0.3-1.1-0.7l-1.9-11.4L107,285.8z"
		/>
	<path style="fill:#3580AF;" d="M149.4,281.7c6-0.8,34.6-4.4,39.3-5c0.4-0.1,0.8,0.1,1,0.5l9.5,16.7c0.1,0.1,0.1,0.3,0.1,0.4
		l-0.8,23.6c0,0.4-0.4,0.8-0.8,0.8l-9.2,0.9c-0.5,0-1-0.3-1-0.7l-4-26.5c-0.1-0.5-0.5-0.8-1-0.7l-22.1,2.6c-0.3,0-0.7-0.1-0.9-0.3
		c-1.2-1.5-5.6-6.8-9.3-8.3c-0.2-0.1-0.4-0.2-0.5-0.4c-0.4-0.8-0.7-1.7-0.9-2.3C148.5,282.3,148.8,281.8,149.4,281.7z"/>
	<path style="fill:#3580AF;" d="M370.4,278.5l2.6,20c0.1,0.5,0.5,0.8,1.1,0.8l13.8-1.7c0.5-0.1,0.9-0.5,0.8-0.9l-2.2-17.6
		c-0.1-0.4-0.4-0.7-0.9-0.8l-14.3-0.7C370.8,277.5,370.3,277.9,370.4,278.5z"/>
	<path style="fill:#3580AF;" d="M401,278.3l39.2,1.6c0.5,0,0.9-0.3,1-0.8l1.9-37.5c0-0.5-0.4-0.9-0.9-0.9l-18.1-0.9
		c-0.5,0-1,0.3-1,0.8l-0.4,7.1c0,0.5-0.4,0.8-1,0.8l-19.3-0.6c-0.5,0-0.9,0.3-1,0.8l-1.4,28.6C400,277.9,400.4,278.3,401,278.3z"/>
	<path style="fill:#3580AF;" d="M299.3,146.8l15.8-1.4c0.5,0,1,0.3,1,0.8l1.1,11.3c0,0.3-0.1,0.6-0.4,0.7l-12.3,8.8
		c-0.1,0.1-0.3,0.2-0.5,0.2l-2.3,0.1c-0.5,0-0.9-0.3-1-0.8l-2.3-18.8C298.4,147.2,298.8,146.8,299.3,146.8z"/>
	<path style="fill:#3580AF;" d="M352.7,142.4l1.9,26.5c0,0.2,0,0.3-0.1,0.5c-0.7,1.1-4,5.3-11.4,1.6c-7.6-3.8-16.8-11-18.4-12.4
		c-0.2-0.1-0.3-0.3-0.3-0.5l-1.7-12.7c-0.1-0.5,0.3-0.9,0.8-1l28.1-2.9C352.1,141.5,352.6,141.9,352.7,142.4z"/>
	<path style="fill:#3580AF;" d="M326.3,108.1l11.7-1.4c0.2,0,0.3,0,0.5,0l7.5,2.6c0.3,0.1,0.6,0.4,0.6,0.7l1.4,12.3
		c0.1,0.5-0.3,0.9-0.8,0.9l-19.2,1.9c-0.5,0.1-1-0.3-1-0.8l-1.5-15.5C325.4,108.5,325.8,108.1,326.3,108.1z"/>
	<path style="fill:#3580AF;" d="M274.7,111.2l16.7-1.7c0.5-0.1,1,0.3,1,0.8l1.7,16.5c0,0.5-0.3,0.9-0.8,0.9l-16.5,1.9
		c-0.5,0.1-1-0.3-1.1-0.8l-1.8-16.7C273.9,111.7,274.2,111.3,274.7,111.2z"/>
	<path style="fill:#3580AF;" d="M272.4,112.5l1.9,16.7c0.1,0.5-0.3,0.9-0.8,0.9l-3,0.4c-0.5,0.1-0.8,0.5-0.8,0.9l0.8,10.2
		c0,0.5-0.3,0.9-0.8,0.9l-23.8,2.5c-0.6,0.1-1.1-0.4-1-0.9c0.3-3.7,1.3-16.3,1.6-16.9c0.4-0.6,16.4-12.8,18.3-14.3
		c0.1-0.1,0.3-0.2,0.4-0.2l6.1-1C271.8,111.7,272.3,112,272.4,112.5z"/>
	<path style="fill:#537BA0;" d="M235.6,298.9v9V298.9z"/>
	<path style="fill:#3580AF;" d="M231.1,297.9l6.8,0.4c0.5,0,1,0.5,0.9,1l-0.1,4.5c0,0.5,0.4,1,0.9,1l5.1,0.3c0.5,0,1,0.5,0.9,1.1
		l-0.6,10.7c0,0.6-0.5,1-1,0.9l-10.8-0.5c-0.5,0-0.9-0.4-0.9-0.9l-2.2-17.5C230,298.4,230.5,297.8,231.1,297.9z"/>
	<path style="fill:#3580AF;" d="M255.3,276l0,0.1c-0.1,0.5-0.5,0.9-1,0.9l-4.4-0.2c-0.6,0-1,0.4-1,1l-0.4,10.2c0,0.6-0.5,1-1.1,1
		l-2.1-0.1l0.1-1.4l-4.9-0.2c-0.6,0-1,0.4-1,1l-0.4,8.7c0,0.6-0.5,1-1.1,1l-7.1-0.4c-0.5,0-0.9-0.4-0.9-0.9l-0.5-3.6
		c0-0.2,0-0.4,0.1-0.6l9.4-17.5c0.2-0.3,0.5-0.5,0.9-0.5l0.7,0l-0.2,4.5c0,0.5,0.4,1,0.9,1l3.4,0.2c0.6,0,1-0.4,1.1-1l0.1-3.4
		c0-0.5,0.5-1,1-1l7.4,0.2C254.9,275,255.3,275.5,255.3,276z"/>
	<path style="fill:#3580AF;" d="M251.5,288l0-0.3c0-0.6,0.5-1,1.1-0.9l15.8,0.9c0.5,0,1,0.5,0.9,1l-0.2,5.6c0,0.5,0.4,1,0.9,1
		l18.8,0.9c0.6,0,1-0.4,1-1l0.4-8c0-0.2,0-0.4-0.1-0.6l-6.1-9.8c-0.2-0.3-0.5-0.5-0.8-0.5l-26.2-1.2c-0.5,0-1,0.4-1,0.9l-0.1,0.5
		c-0.1,0.5-0.5,0.9-1,0.9l-5.2-0.2l-0.5,0.4l-0.3,10.1c0,0.5,0.4,1,0.9,1l0.5,0C251,289,251.4,288.6,251.5,288z"/>
	<path style="fill:#3580AF;" d="M270,296l18.8,1c0.5,0,1,0.5,0.9,1l-0.9,21c0,0.6-0.5,1-1,1l-18.9-0.8c-0.6,0-1-0.5-1-1.1l1.1-21.2
		C269,296.4,269.5,296,270,296z"/>
	<path style="fill:#3580AF;" d="M147.5,282.3l0.2,1.9c0,0.1,0,0.3-0.1,0.4l-3.8,10.2l0.6,0.6l-0.1,1.2l-2.8,0.4
		c-0.5,0.1-1-0.3-1-0.8l-0.5-3.7c0-0.2,0-0.4,0.1-0.5l5.2-9.9c0.1-0.3,0.4-0.4,0.7-0.5l0.4-0.1C147,281.4,147.5,281.8,147.5,282.3z"
		/>
	<path style="fill:#3580AF;" d="M144.9,324.9l7.6-1c0.5-0.1,0.9-0.5,0.8-1l-0.5-3.6c-0.1-0.5-0.5-0.8-1-0.8l0,0
		c-0.5,0-0.9-0.3-1-0.8l-0.1-0.4c-0.1-0.5-0.5-0.8-1-0.8l-0.6,0.1c-0.5,0.1-0.9,0.5-0.8,1l0,0.4c0.1,0.5-0.3,0.9-0.8,1l-3.3,0.4
		c-0.5,0.1-0.8,0.5-0.8,1l0.3,3.5C143.9,324.6,144.4,325,144.9,324.9z"/>
	<path style="fill:#3580AF;" d="M143,308.5l7.5-1.1c0.5-0.1,1,0.3,1,0.8l0.2,1.6c0.1,0.5-0.3,0.9-0.7,1l-0.3,0.1
		c-0.5,0.1-0.8,0.5-0.7,1l0.5,3.3c0.1,0.5-0.3,1-0.8,1l-0.6,0.1c-0.5,0.1-0.9-0.3-1-0.7l0-0.2c-0.1-0.5-0.5-0.8-1-0.7l-3.2,0.4
		c-0.5,0.1-1-0.3-1-0.8l-0.6-4.7C142.2,309,142.5,308.6,143,308.5z"/>
	<path style="fill:#3580AF;" d="M141.7,297.5l2.4-0.4c0.4-0.1,0.8-0.4,0.8-0.9l0-0.6l2.8,1.7c0.1,0.1,0.2,0.1,0.2,0.2l1.5,2
		c0,0.1,0.1,0.1,0.1,0.2l1,2.1c0,0.1,0.1,0.2,0.1,0.2l0.6,3.5c0.1,0.5-0.3,1-0.8,1.1l-7.4,1.2c-0.5,0.1-1-0.3-1-0.8l-1.1-8.6
		C140.8,298,141.2,297.6,141.7,297.5z"/>
	<path style="fill:#3580AF;" d="M337.1,278.3l8.2-1.2c0.1,0,0.1,0,0.2,0l10.2,0.7c0.5,0,0.8,0.4,0.9,0.8l2.1,13.8
		c0.1,0.6-0.3,1.1-0.9,1.1l-18.3,2.5c-0.5,0.1-1.1-0.3-1.1-0.9l-2.1-15.9C336.2,278.9,336.6,278.4,337.1,278.3z"/>
	<path style="fill:#3580AF;" d="M358.7,278l8,0.5c0.5,0,0.9,0.4,0.9,0.9l0.2,3.6c0,0.5-0.4,1-0.9,1l-0.8,0.1c-0.6,0-1,0.6-0.9,1.1
		l0.9,6.1c0.1,0.6-0.3,1.1-0.9,1.1l-4.6,0.6c-0.5,0.1-1.1-0.3-1.1-0.9l-1.8-13.2C357.5,278.5,358,277.9,358.7,278z"/>
	<path style="fill:#3580AF;" d="M314.4,322.1l23,1.2c0.5,0,1-0.4,1.1-0.9l0.2-3.1c0-0.1,0-0.1,0-0.2l-0.9-6.4l-1.1,0.1l-0.3-2
		c-0.1-0.5-0.5-0.9-1.1-0.8l-1.6,0.1c-0.6,0-1.1-0.4-1.1-1l0-0.8c0-0.5-0.4-0.9-1-1l-16.3-0.7c-0.5,0-1,0.4-1,0.9l-0.8,13.4
		C313.4,321.6,313.8,322,314.4,322.1z"/>
	<path style="fill:#3580AF;" d="M127.5,199.9l-3.4,22.2c-0.1,0.6,0.3,1.1,0.9,1.1l13.2,1.7c0.5,0.1,1-0.3,1.1-0.8l3.9-25
		c0.1-0.7-0.5-1.3-1.2-1.1l-6.3,1.4c-0.1,0-0.2,0-0.3,0l-6.8-0.4C128,199,127.5,199.4,127.5,199.9z"/>
	<path style="fill:#3580AF;" d="M155,189.4l2.8,0.4c0.6,0.1,0.9,0.6,0.8,1.2l-3.6,21.4c-0.1,0.5-0.6,0.9-1.1,0.8l-2.3-0.2
		c-0.5-0.1-1,0.3-1.1,0.8l-1.8,11.8c-0.1,0.5-0.6,0.9-1.1,0.8l-6.3-1c-0.5-0.1-0.9-0.6-0.8-1.1l4-26.4c0-0.3,0.2-0.6,0.5-0.7
		c1-0.5,3.4-1.9,5.1-3.3c1.6-1.3,3.2-3.2,3.9-4.1C154.3,189.4,154.7,189.3,155,189.4z"/>
	<path style="fill:#3580AF;" d="M172.3,193.1l-1.2,8.4c-0.1,0.6-0.6,0.9-1.1,0.8l-2.3-0.4c-0.5-0.1-1.1,0.3-1.1,0.8l-1.8,12.1
		c-0.1,0.5-0.6,0.9-1.1,0.8l-7-1c-0.6-0.1-0.9-0.6-0.8-1.2l4-22.5c0.1-0.5,0.6-0.9,1.1-0.8l10.6,1.7
		C172,192,172.4,192.5,172.3,193.1z"/>
	<path style="fill:#3580AF;" d="M190.4,196l-1.4,8.8c-0.1,0.5-0.6,0.9-1.1,0.8l-15.1-1.9c-0.6-0.1-0.9-0.6-0.9-1.1l1.4-9.3
		c0.1-0.5,0.6-0.9,1.1-0.8l15.1,2.4C190.2,194.9,190.5,195.4,190.4,196z"/>
	<path style="fill:#3580AF;" d="M206.1,198.5l-2.1,22.2c-0.1,0.6-0.6,1-1.1,0.9l-14.6-1.7c-0.6-0.1-1-0.6-0.9-1.2l4.1-22.4
		c0.1-0.5,0.6-0.9,1.1-0.8l12.6,2C205.7,197.5,206.1,198,206.1,198.5z"/>
	<path style="fill:#3580AF;" d="M64.8,148.5l14.7,2.2c0.5,0.1,0.9,0.6,0.8,1.1l-1,8c-0.1,0.6-0.6,0.9-1.1,0.9l-0.8-0.1
		c-0.5-0.1-1,0.3-1.1,0.8l-2.4,15.4c-0.1,0.5-0.6,0.9-1.2,0.8l-12.4-2.1c-0.5-0.1-0.9-0.6-0.8-1.2l4.2-25.1
		C63.8,148.8,64.3,148.4,64.8,148.5z"/>
	<path style="fill:#3580AF;" d="M60.1,176.6l12.1,1.9c0.6,0.1,0.9,0.6,0.8,1.2l-0.1,0.5c-0.1,0.6,0.3,1.1,0.8,1.2l1.9,0.3
		c0.6,0.1,0.9,0.6,0.8,1.1l-1.7,10.3c-0.1,0.5-0.6,0.9-1.1,0.8l-15.9-2.5c-0.5-0.1-0.9-0.6-0.8-1.1l1.9-12.9
		C59,176.9,59.5,176.5,60.1,176.6z"/>
	<path style="fill:#3580AF;" d="M56.2,200.4l11.4,1.9c0.5,0.1,0.9,0.6,0.8,1.1l-2.2,13.2c-0.1,0.5-0.6,0.9-1.1,0.8l-11.3-1.7
		c-0.5-0.1-0.9-0.6-0.8-1.1l2-13.4C55.1,200.7,55.6,200.3,56.2,200.4z"/>
	<path style="fill:#3580AF;" d="M53.5,216.9l12.5,2c0.5,0.1,0.9,0.6,0.8,1.1c-0.3,3.1-1.4,12.8-1.7,12.8c-0.3,0-10.6-1.6-13.9-2.2
		c-0.5-0.1-0.9-0.6-0.8-1.2l2-11.7C52.4,217.2,53,216.9,53.5,216.9z"/>
	<path style="fill:#3580AF;" d="M51,231.7l15.1,2.4c0.5,0.1,0.9,0.6,0.8,1.1l-1.6,10c-0.1,0.5-0.6,0.9-1.2,0.8l-15-2.5
		c-0.5-0.1-0.9-0.6-0.8-1.1l1.5-9.9C50,232,50.5,231.7,51,231.7z"/>
	<path style="fill:#3580AF;" d="M87.5,222.5l12,2.2c0.5,0.1,0.9,0.6,0.8,1.1l-1.8,10.8c-0.1,0.5-0.6,0.9-1.1,0.8l-11.8-1.8
		c-0.5-0.1-0.9-0.6-0.8-1.1l1.6-11.2C86.5,222.7,87,222.4,87.5,222.5z"/>
	<path style="fill:#3580AF;" d="M95.6,252.8l-15.8,3.5c-0.1,0-0.2,0-0.4,0l-31.2-4.9c-0.5-0.1-0.9-0.6-0.8-1.1l0.6-4.6
		c0.1-0.6,0.6-0.9,1.2-0.8l16,2.7c0.5,0.1,1.1-0.3,1.2-0.8l1.9-11.2c0.1-0.5,0.6-0.9,1.1-0.8l27.7,4.4c0.5,0.1,0.9,0.6,0.8,1.1
		l-1.5,11.6C96.4,252.3,96.1,252.7,95.6,252.8z"/>
	<path style="fill:#3580AF;" d="M124,226.9l13.2,2.4c0.5,0.1,0.9,0.6,0.8,1.1l-4.3,26.8c-0.1,0.5-0.6,0.9-1.1,0.8l-13.5-1.8
		c-0.6-0.1-0.9-0.6-0.9-1.2l4.6-27.3C122.9,227.1,123.5,226.8,124,226.9z"/>
	<path style="fill:#3580AF;" d="M147.6,259.6l4-25.3c0.1-0.5-0.3-1.1-0.8-1.1l-10.9-1.6c-0.5-0.1-1.1,0.3-1.1,0.8l-3.8,25
		c-0.1,0.5,0.3,1,0.8,1.1l10.7,1.9C147,260.5,147.5,260.1,147.6,259.6z"/>
	<path style="fill:#3580AF;" d="M153.7,233.8l13,2.2c0.5,0.1,0.9,0.6,0.8,1.1l-0.4,3.3c-0.1,0.6-0.6,0.9-1.1,0.9l-1.4-0.2
		c-0.5-0.1-1,0.3-1.1,0.8l-2.5,15.1c-0.1,0.4-0.4,0.7-0.8,0.8l-10,2.3c-0.7,0.2-1.3-0.4-1.2-1.1l3.6-24.4
		C152.7,234.1,153.2,233.7,153.7,233.8z"/>
	<path style="fill:#3580AF;" d="M239.6,198.9l16.4-1.5c0.6-0.1,1.1,0.4,1.1,1.1l-1,16.2c0,0.5-0.5,1-1,0.9l-17-0.8
		c-0.6,0-1-0.5-0.9-1.1l1.6-13.9C238.7,199.3,239.1,199,239.6,198.9z"/>
	<path style="fill:#3580AF;" d="M237.7,215.6l14.1,0.7c0.6,0,1,0.5,0.9,1.1l-0.4,7.2c0,0.6-0.5,1-1.1,0.9l-7.4-0.6
		c-0.6,0-1,0.4-1.1,0.9l-0.2,2.8c0,0.6-0.5,1-1.1,0.9l-4.6-0.5c-0.5-0.1-0.9-0.5-0.9-1.1l0.7-11.5
		C236.6,216,237.1,215.6,237.7,215.6z"/>
	<path style="fill:#3580AF;" d="M235.9,234.7l8.5,0.5c0.5,0,1,0.5,0.9,1.1l-0.4,7.2c0,0.6-0.5,1-1.1,0.9l-8.7-0.5
		c-0.6,0-1-0.5-0.9-1.1l0.7-7.3C234.9,235.1,235.3,234.7,235.9,234.7z"/>
	<path style="fill:#3580AF;" d="M234.9,244.6l8.8,0.6c0.5,0,0.9,0.5,0.9,1l-0.2,5.4c0,0.6-0.5,1-1.1,1l-9.1-0.5
		c-0.6,0-1-0.5-0.9-1.1l0.5-5.5C233.9,245,234.4,244.6,234.9,244.6z"/>
	<path style="fill:#3580AF;" d="M251.8,245.6l16.7,0.8c0.6,0,1,0.5,0.9,1.1l-0.3,5.7c0,0.5-0.5,1-1,0.9l-16.6-0.8
		c-0.5,0-1-0.5-0.9-1l0.2-5.7C250.8,246,251.3,245.5,251.8,245.6z"/>
	<path style="fill:#3580AF;" d="M271.9,244.3l11,0.3c0.6,0,1,0.5,1,1l-0.4,8c0,0.6-0.5,1-1,1l-11.2-0.5c-0.6,0-1-0.5-1-1.1l0.5-7.9
		C270.9,244.7,271.3,244.3,271.9,244.3z"/>
	<path style="fill:#3580AF;" d="M314.2,236.7l10.8,0.6c0.6,0,1,0.5,0.9,1.1l-0.1,1.7c0,0.5,0.4,1,0.9,1.1l17,1.1c0.5,0,1,0.5,0.9,1
		l-0.3,5.8l0.8-0.1l7.5-10.9l0.6,0.3l3.1-4.5c0.3-0.5,0.2-1.1-0.2-1.4c-1.8-1.2-6-4.4-8.2-7.2c-0.2-0.2-0.4-0.4-0.7-0.4l-25.1-1.2
		c-0.6,0-1,0.4-1,1l-0.3,7.5c0,0.6-0.5,1-1.1,1l-5.3-0.4c-0.6,0-1,0.4-1.1,1l-0.1,2C313.2,236.2,313.6,236.6,314.2,236.7z"/>
	<path style="fill:#3580AF;" d="M316,258.1l8.2-2.7c0.4-0.1,0.7-0.5,0.7-0.9l0.4-6.7c0-0.6-0.4-1-0.9-1.1l-4.7-0.3
		c-0.5,0-1,0.4-1.1,0.9l-0.1,1c0,0.5-0.5,0.9-1,0.9l-1.6-0.1c-0.5,0-1,0.4-1,0.9l-0.4,6.2c0,0.2,0,0.3,0.1,0.4l0.3,0.7
		C314.9,258.1,315.5,258.3,316,258.1z"/>
	<path style="fill:#3580AF;" d="M327.4,241.8l15.7,1c0.5,0,1,0.5,0.9,1l-0.2,4.6c0,0.4-0.3,0.8-0.7,0.9l-16.3,5.3
		c-0.7,0.2-1.4-0.3-1.3-1l0.7-10.9C326.3,242.2,326.8,241.8,327.4,241.8z"/>
	<path style="fill:#3580AF;" d="M418.9,293.1l8.6-0.8c0.5,0,1,0.3,1.1,0.9l0.4,3.6c0.1,0.6,0.6,1,1.1,0.9l2.6-0.4
		c0.6-0.1,1.1,0.3,1.1,0.9l1,7.6c0.1,0.6,0.6,0.9,1.1,0.9l5.7-0.8c0.6-0.1,1.1,0.3,1.1,0.9l0.5,3.8c0.1,0.5-0.3,1-0.8,1.1l-5.7,0.8
		c-0.5,0.1-0.9,0.6-0.9,1.1l1.5,13c0.1,0.6-0.4,1.1-1,1.1l-15.9-0.5c-0.5,0-0.9-0.4-1-0.9l-2.1-16.8c0,0,0-0.1,0-0.1
		c0-1,0.3-12.3,0.7-15.4C418.1,293.5,418.4,293.2,418.9,293.1z"/>
	<path style="fill:#3580AF;" d="M443.6,313.3l1.8,12.6c0.1,0.6-0.3,1.1-0.9,1.1l-5.1,0.6c-0.6,0.1-1.1-0.3-1.1-0.9l-1.3-12.5
		c-0.1-0.5,0.3-1,0.8-1.1l4.7-0.7C443,312.4,443.5,312.8,443.6,313.3z"/>
</g>
</svg>
