<?xml version="1.0" encoding="utf-8"?>
<!-- Generator: Adobe Illustrator 23.0.1, SVG Export Plug-In . SVG Version: 6.00 Build 0)  -->
<svg version="1.1" id="图层_1" xmlns="http://www.w3.org/2000/svg" xmlns:xlink="http://www.w3.org/1999/xlink" x="0px" y="0px"
	 viewBox="0 0 580 428" style="enable-background:new 0 0 580 428;" xml:space="preserve">
<g>
	<path style="fill:#3580AF;" d="M370.5,155c4.2-0.4,21.9-0.9,33.1,12.3c0.3,0.4,1,0.5,1.4,0.1l8-7.5c0.2-0.2,0.4-0.3,0.7-0.3
		l11.1,0.2c0.5,0,0.9-0.3,0.9-0.8l0.6-14.7c0-0.5,0.4-0.8,1-0.8l26.7,1l26.5,1c0.5,0,0.9,0.4,0.9,0.9l-0.2,5.7
		c0,0.5,0.4,0.8,0.9,0.9l11.5,0.4l0.7,0l5.7,0.2l0.9,0l15.1,0.5c0.5,0,0.8-0.3,0.9-0.7l1.6-7.4c0.1-0.4,0.5-0.7,0.9-0.7l2.1,0.1
		c0.4,0,0.8-0.3,0.9-0.6c1.1-4.6,7.7-32,6.3-41.1c-1.5-10-4.6-33.4-36.1-40.5c-3.8-0.7-14.4-4.8-48,13.4c-11.7,5.6-40,18.3-43.8,20
		c-0.3,0.1-0.5,0.4-0.5,0.6l-1.6,10.4c-0.1,0.4-0.4,0.7-0.9,0.7l-25.7,0.2c-0.5,0-0.9,0.4-0.9,0.8l-0.1,2.4c0,0.4-0.4,0.7-0.8,0.8
		l-12.5,1.2c-0.5,0-0.9,0.4-0.8,0.9l0.8,9.3c0,0.5,0.5,0.8,1,0.8l7.1-0.5c0.5,0,1,0.3,1,0.8l2.5,29.4
		C369.6,154.7,370,155.1,370.5,155z"/>
	<path style="fill:#3580AF;" d="M413.3,184.8c-0.6,0-1,0.4-0.9,0.9c0.4,2.8,2.9,10.9,19,11.7c14,0.6,19.3,0.8,21.2,0.8
		c0.5,0,0.9-0.4,0.9-0.8l0.2-18.8c0-0.5-0.4-0.8-0.9-0.8l-18.9-0.7c-0.5,0-0.9,0.3-1,0.8l-0.4,6.8c0,0.5-0.4,0.8-0.9,0.8
		L413.3,184.8z"/>
	<path style="fill:#3580AF;" d="M508.3,206.8l-2.6,67.6c0,0.5-0.4,0.8-1,0.8L403,271.3c-0.5,0-0.9-0.4-0.9-0.9l0.8-20.3
		c0-0.1,0-0.2-0.1-0.3l-2.4-5.7c-0.2-0.6,0.2-1.1,0.9-1.1l8.5,0.3c0.5,0,0.9-0.3,0.9-0.8l0.4-7.2c0-0.4-0.3-0.8-0.8-0.9l-14-1.3
		c-0.3,0-0.6-0.2-0.8-0.5l-2.5-5.1c-0.1-0.3,0-0.6,0.2-0.7c1.4-1,6.2-4.1,7-4.3c0.9-0.2,8.9-0.2,10.6,0.1c1.6,0.3,6.4,2.3,6,6.3
		c0,0.5,0.3,0.9,0.9,0.9l5.5,0.3c0.5,0,1-0.3,1-0.8l1-26.7c0-0.5,0.5-0.8,1-0.8l81.2,4C507.9,206,508.3,206.4,508.3,206.8z"/>
	<path style="fill:#3580AF;" d="M361.2,272.1l25.9,1c0.5,0,0.8,0.3,0.9,0.7l3.4,22.9c0.1,0.4-0.3,0.8-0.7,0.9l-10.8,2
		c-0.5,0.1-1-0.2-1.1-0.7l-2-14.7c-0.1-0.5-0.5-0.8-1.1-0.7l-12.5,1.7c-0.5,0.1-1-0.2-1.1-0.7l-1.8-11.5
		C360.2,272.6,360.7,272.1,361.2,272.1z"/>
	<path style="fill:#3580AF;" d="M153,152.1c1.1,0.9,4.5,3.7,6.2,7.5c0.1,0.3,0.4,0.5,0.7,0.5l11.9,1.8c0.5,0.1,1-0.2,1.1-0.7
		l4.2-31.1c0.1-0.4,0.5-0.7,0.9-0.7l0.7,0c0.5,0,0.9-0.3,0.9-0.7l2.9-19.6c0.1-0.5-0.3-0.9-0.9-0.9l-20.6-0.8
		c-0.5,0-0.9,0.3-0.9,0.7l-7.3,43.3C152.6,151.7,152.7,151.9,153,152.1z"/>
	<path style="fill:#3580AF;" d="M246.1,160l0.7-18.2c0-0.4-0.4-0.8-0.8-0.9l-7.6-0.6c-0.5,0-1,0.3-1,0.8l-1.4,18.6
		c0,0.5,0.4,0.9,0.9,0.9l8.3,0.1C245.7,160.8,246.1,160.4,246.1,160z"/>
	<path style="fill:#3580AF;" d="M235,159.9l1.5-19c0-0.5-0.4-0.9-0.9-0.9l-12-0.7c-0.5,0-0.9,0.3-1,0.8l-1.7,19.5
		c0,0.5,0.4,0.9,0.9,0.9l12.1,0.3C234.5,160.7,234.9,160.4,235,159.9z"/>
	<path style="fill:#3580AF;" d="M307.4,121.3l-1.6-15.5c0-0.5-0.5-0.8-1-0.8l-28.5,3.2c-0.5,0.1-0.9,0.5-0.8,0.9l1.9,15.2
		c0.1,0.5,0.5,0.8,1,0.7l28.2-3C307.1,122.1,307.5,121.7,307.4,121.3z"/>
	<path style="fill:#3580AF;" d="M327.9,145.8l0.5,9.7c0,0.2,0.1,0.5,0.3,0.6l12.6,9.2c0.6,0.5,1.6,0,1.5-0.7l-1.9-20.2
		c0-0.5-0.5-0.8-1-0.8l-11.2,1.3C328.2,145,327.9,145.4,327.9,145.8z"/>
	<path style="fill:#3580AF;" d="M341.9,144.3l2.1,21.1c0,0.5,0.5,0.8,1.1,0.8l11.5-1.5c0.5-0.1,0.8-0.5,0.8-0.9l-3.5-28
		c-0.1-0.4-0.5-0.8-1-0.7l-1.6,0.1c-0.5,0-0.9,0.4-0.8,0.9l0.5,5.8c0,0.4-0.3,0.8-0.8,0.9l-7.4,0.8
		C342.2,143.5,341.8,143.9,341.9,144.3z"/>
	<path style="fill:#3580AF;" d="M132.7,199.1c2.1,0.3,7.5,0.8,12.9-0.9c0.6-0.2,1.3,0.3,1.2,0.9l-1,8.2c-0.1,0.4,0.3,0.8,0.8,0.9
		l7.9,1.2c0.5,0.1,0.8,0.5,0.8,0.9l-2.3,15.3c-0.1,0.5-0.5,0.8-1,0.7l-22.7-2.9c-0.5-0.1-0.9-0.5-0.8-0.9l3.2-22.6
		C131.7,199.3,132.2,199,132.7,199.1z"/>
	<path style="fill:#3580AF;" d="M158.5,188.7c0.2-0.3,1.8,0.1,2.8,0.4c0.4,0.1,0.7,0.5,0.7,0.9l-3.2,21.8c-0.1,0.5-0.6,0.8-1.1,0.7
		l-0.4-0.1c-0.5-0.1-0.8-0.5-0.7-0.9l0.3-2.1c0.1-0.4-0.3-0.9-0.8-0.9l-8.1-1.2c-0.5-0.1-0.8-0.5-0.8-0.9l0.9-8.7
		c0-0.3,0.2-0.5,0.5-0.7C150,196.4,155.3,193.8,158.5,188.7z"/>
	<path style="fill:#3580AF;" d="M169.7,206.8l-1.2,7.8c-0.1,0.5-0.5,0.8-1.1,0.7l-6.6-1c-0.5-0.1-0.8-0.5-0.8-0.9l3.4-23.1
		c0.1-0.5,0.6-0.8,1.1-0.7l10.6,1.7c0.5,0.1,0.8,0.5,0.8,0.9l-1.9,13.4c-0.1,0.4-0.5,0.8-1,0.7l-2.2-0.2
		C170.2,206,169.7,206.4,169.7,206.8z"/>
	<path style="fill:#3580AF;" d="M185.6,193.5l-1.4,9.9c-0.1,0.5-0.5,0.8-1,0.7l-4-0.5c-0.5-0.1-1,0.3-1,0.7l-0.3,1.8
		c-0.1,0.4-0.5,0.7-0.9,0.7l-0.4,0c-0.5,0-1-0.5-0.9-0.9l1.9-13.4c0.1-0.5,0.5-0.8,1-0.7l6.3,0.8C185.3,192.6,185.7,193,185.6,193.5
		z"/>
	<path style="fill:#2C3B80;" d="M264.6,228.2l2.9,0.1c0.5,0,0.9,0.4,0.9,0.9l-0.1,2.2c0,0.5-0.4,0.8-0.9,0.8l-2.9-0.1
		c-0.5,0-0.9-0.4-0.9-0.9l0.1-2.2C263.7,228.5,264.1,228.2,264.6,228.2z"/>
	<path style="fill:#2C3B80;" d="M315.1,235.4l2.9,0.1c0.5,0,0.9,0.4,0.9,0.9l-0.1,2.2c0,0.5-0.4,0.8-0.9,0.8l-2.9-0.1
		c-0.5,0-0.9-0.4-0.9-0.9l0.1-2.2C314.2,235.7,314.6,235.3,315.1,235.4z"/>
	<path style="fill:#2C3B80;" d="M261.9,293.7l2.9,0.1c0.5,0,0.9,0.4,0.9,0.9l-0.1,2.2c0,0.5-0.4,0.8-0.9,0.8l-2.9-0.1
		c-0.5,0-0.9-0.4-0.9-0.9l0.1-2.2C260.9,294.1,261.3,293.7,261.9,293.7z"/>
	<path style="fill:#2C3B80;" d="M173.2,298l2.9-0.4c0.5-0.1,1,0.2,1.1,0.7l0.4,2.1c0.1,0.5-0.2,0.9-0.7,1l-2.9,0.4
		c-0.5,0.1-1-0.2-1.1-0.7l-0.4-2.1C172.3,298.5,172.7,298.1,173.2,298z"/>
	<path style="fill:#2C3B80;" d="M149.7,317.8l2.9-0.4c0.5-0.1,1,0.2,1.1,0.7l0.4,2.1c0.1,0.5-0.2,0.9-0.7,1l-2.9,0.4
		c-0.5,0.1-1-0.2-1.1-0.7l-0.4-2.1C148.8,318.3,149.2,317.8,149.7,317.8z"/>
	<path style="fill:#2C3B80;" d="M189.9,133.5l2.9,0.3c0.5,0.1,0.9,0.5,0.8,0.9l-0.3,2.1c-0.1,0.5-0.5,0.8-1,0.7l-2.9-0.3
		c-0.5-0.1-0.9-0.5-0.8-0.9l0.3-2.1C188.9,133.8,189.4,133.4,189.9,133.5z"/>
	<path style="fill:#2C3B80;" d="M123,174.1l2.9,0.3c0.5,0.1,0.9,0.5,0.8,0.9l-0.3,2.1c-0.1,0.5-0.5,0.8-1,0.7l-2.9-0.3
		c-0.5-0.1-0.9-0.5-0.8-0.9l0.3-2.1C122.1,174.3,122.5,174,123,174.1z"/>
	<path style="fill:#2C3B80;" d="M88.6,170.5l2.9,0.3c0.5,0.1,0.9,0.5,0.8,0.9l-0.3,2.1c-0.1,0.5-0.5,0.8-1,0.7l-2.9-0.3
		c-0.5-0.1-0.9-0.5-0.8-0.9l0.3-2.1C87.7,170.7,88.1,170.4,88.6,170.5z"/>
	<path style="fill:#2C3B80;" d="M81.4,226.7l2.9,0.3c0.5,0.1,0.9,0.5,0.8,0.9l-0.3,2.1c-0.1,0.5-0.5,0.8-1,0.7l-2.9-0.3
		c-0.5-0.1-0.9-0.5-0.8-0.9l0.3-2.1C80.5,226.9,80.9,226.6,81.4,226.7z"/>
	<path style="fill:#2D3B80;" d="M180.9,176.3l2.9,0.3c0.5,0.1,0.9,0.5,0.8,0.9l-0.3,2.1c-0.1,0.5-0.5,0.8-1,0.7l-2.9-0.3
		c-0.5-0.1-0.9-0.5-0.8-0.9l0.3-2.1C179.9,176.5,180.4,176.2,180.9,176.3z"/>
	<path style="fill:#2D3B80;" d="M115.4,209.5l2.9,0.3c0.5,0.1,0.9,0.5,0.8,0.9l-0.3,2.1c-0.1,0.5-0.5,0.8-1,0.7l-2.9-0.3
		c-0.5-0.1-0.9-0.5-0.8-0.9l0.3-2.1C114.4,209.8,114.9,209.5,115.4,209.5z"/>
	<path style="fill:#2C3B80;" d="M176.6,223.3l2.9,0.3c0.5,0.1,0.9,0.5,0.8,0.9l-0.3,2.1c-0.1,0.5-0.5,0.8-1,0.7l-2.9-0.3
		c-0.5-0.1-0.9-0.5-0.8-0.9l0.3-2.1C175.7,223.6,176.1,223.3,176.6,223.3z"/>
	<path style="fill:#2D3B80;" d="M273.4,179.6l2.9,0.3c0.5,0.1,0.9,0.5,0.8,0.9l-0.3,2.1c-0.1,0.5-0.5,0.8-1,0.7l-2.9-0.3
		c-0.5-0.1-0.9-0.5-0.8-0.9l0.3-2.1C272.4,179.9,272.9,179.5,273.4,179.6z"/>
	<path style="fill:#2D3B80;" d="M329.1,173.6l2.9,0.3c0.5,0.1,0.9,0.5,0.8,0.9l-0.3,2.1c-0.1,0.5-0.5,0.8-1,0.7l-2.9-0.3
		c-0.5-0.1-0.9-0.5-0.8-0.9l0.3-2.1C328.1,173.9,328.6,173.6,329.1,173.6z"/>
	<path style="fill:#2C3B80;" d="M352.3,198.2l2.9,0.3c0.5,0.1,0.9,0.5,0.8,0.9l-0.3,2.1c-0.1,0.5-0.5,0.8-1,0.7l-2.9-0.3
		c-0.5-0.1-0.9-0.5-0.8-0.9l0.3-2.1C351.3,198.5,351.8,198.2,352.3,198.2z"/>
	<path style="fill:#2D3B80;" d="M394,209.1l2.9,0.3c0.5,0.1,0.9,0.5,0.8,0.9l-0.3,2.1c-0.1,0.5-0.5,0.8-1,0.7l-2.9-0.3
		c-0.5-0.1-0.9-0.5-0.8-0.9l0.3-2.1C393,209.4,393.4,209.1,394,209.1z"/>
	<path style="fill:#2C3B80;" d="M404.8,236.6l2.9,0.1c0.5,0,0.9,0.4,0.9,0.9l-0.1,2.2c0,0.5-0.4,0.8-1,0.8l-2.9-0.1
		c-0.5,0-0.9-0.4-0.9-0.9l0.1-2.2C403.8,237,404.2,236.6,404.8,236.6z"/>
	<path style="fill:#2C3B80;" d="M455.4,306.5l0.4,2.6c0.1,0.5-0.3,0.9-0.8,0.9l-2.4,0.3c-0.5,0.1-1-0.3-1.1-0.7l-0.4-2.6
		c-0.1-0.5,0.3-0.9,0.8-0.9l2.4-0.3C454.8,305.7,455.3,306,455.4,306.5z"/>
	<path style="fill:#2C3B80;" d="M424.7,172.2l2.9,0.3c0.5,0.1,0.9,0.5,0.8,0.9l-0.3,2.1c-0.1,0.5-0.5,0.8-1,0.7l-2.9-0.3
		c-0.5-0.1-0.9-0.5-0.8-0.9l0.3-2.1C423.7,172.5,424.2,172.2,424.7,172.2z"/>
	<path style="fill:#2C3B80;" d="M458,151l2.9,0.1c0.5,0,0.9,0.4,0.9,0.9l-0.1,2.2c0,0.5-0.4,0.8-1,0.8l-2.9-0.1
		c-0.5,0-0.9-0.4-0.9-0.9l0.1-2.2C457,151.3,457.5,151,458,151z"/>
	<path style="fill:#2C3B80;" d="M334.9,127.2l2.9-0.1c0.5,0,0.9,0.3,1,0.8l0.2,2.2c0,0.5-0.3,0.9-0.9,0.9l-2.9,0.1
		c-0.5,0-0.9-0.3-1-0.8l-0.2-2.2C334,127.6,334.4,127.2,334.9,127.2z"/>
	<path style="fill:#2C3B80;" d="M344.1,125.6l2.9-0.1c0.5,0,0.9,0.3,1,0.8l0.2,2.2c0,0.5-0.3,0.9-0.9,0.9l-2.9,0.1
		c-0.5,0-0.9-0.3-1-0.8l-0.2-2.2C343.2,126,343.6,125.6,344.1,125.6z"/>
	<path style="fill:#2C3B80;" d="M315.1,124.8l2.9-0.1c0.5,0,0.9,0.3,1,0.8l0.2,2.2c0,0.5-0.3,0.9-0.9,0.9l-2.9,0.1
		c-0.5,0-0.9-0.3-1-0.8l-0.2-2.2C314.2,125.2,314.5,124.8,315.1,124.8z"/>
	<path style="fill:#2C3B80;" d="M270.9,127.6l2.9-0.1c0.5,0,0.9,0.3,1,0.8l0.2,2.2c0,0.5-0.3,0.9-0.9,0.9l-2.9,0.1
		c-0.5,0-0.9-0.3-1-0.8l-0.2-2.2C270,128,270.4,127.6,270.9,127.6z"/>
	<path style="fill:#2C3B80;" d="M291.1,131.3l2.9-0.1c0.5,0,0.9,0.3,1,0.8l0.2,2.2c0,0.5-0.3,0.9-0.9,0.9l-2.9,0.1
		c-0.5,0-0.9-0.3-1-0.8l-0.2-2.2C290.2,131.7,290.6,131.3,291.1,131.3z"/>
	<path style="fill:#2C3B80;" d="M148,126.3l2.9,0.3c0.5,0.1,0.9,0.5,0.8,0.9l-0.3,2.1c-0.1,0.5-0.5,0.8-1,0.7l-2.9-0.3
		c-0.5-0.1-0.9-0.5-0.8-0.9l0.3-2.1C147.1,126.5,147.5,126.2,148,126.3z"/>
	<path style="fill:#2C3B80;" d="M90.9,309.1l2.9-0.4c0.5-0.1,1,0.3,1.1,0.7l0.3,2.1c0.1,0.4-0.3,0.9-0.8,0.9l-2.9,0.4
		c-0.5,0.1-1-0.3-1.1-0.7l-0.3-2.1C90.1,309.6,90.4,309.2,90.9,309.1z"/>
	<path style="fill:#2C3B80;" d="M439.4,289.2l2.9-0.4c0.5-0.1,1,0.3,1.1,0.7l0.3,2.1c0.1,0.4-0.3,0.9-0.8,0.9l-2.9,0.4
		c-0.5,0.1-1-0.3-1.1-0.7l-0.3-2.1C438.5,289.6,438.9,289.2,439.4,289.2z"/>
	<path style="fill:#2C3B80;" d="M354.3,293.9l2.9-0.3c0.5-0.1,1,0.3,1,0.8l0.2,2.1c0,0.4-0.3,0.8-0.8,0.9l-2.9,0.3
		c-0.5,0.1-1-0.3-1-0.8l-0.2-2.1C353.4,294.3,353.8,293.9,354.3,293.9z"/>
	<path style="fill:#2C3B80;" d="M320.1,280.8l2.9-0.3c0.5-0.1,1,0.3,1,0.8l0.2,2.1c0,0.4-0.3,0.8-0.8,0.9l-2.9,0.3
		c-0.5,0.1-1-0.3-1-0.8l-0.2-2.1C319.2,281.3,319.6,280.9,320.1,280.8z"/>
	<path style="fill:#3580AF;" d="M184.9,236.2l22.8,3.1c0.5,0.1,0.8,0.4,0.8,0.9l-0.3,8.9c0,0.5-0.4,0.8-0.9,0.8l-22.3-0.4
		c-0.1,0-0.2,0-0.3,0l-16.2,5.3c-0.7,0.2-1.3-0.3-1.2-0.9l1.7-9.6c0.1-0.4,0.5-0.8,1-0.7l11.4,1.5c0.5,0.1,0.9-0.2,1-0.7l1.6-7.6
		C184,236.5,184.4,236.2,184.9,236.2z"/>
	<path style="fill:#3580AF;" d="M291.3,229.3l8.4,0.3c0.5,0,0.9,0.4,0.9,0.9l-0.9,23.6c0,0.5-0.5,0.9-1.1,0.8l-11.7-2
		c-0.4-0.1-0.8-0.4-0.8-0.9l0.6-16.2c0-0.4,0.4-0.8,0.9-0.8l1.6,0c0.5,0,0.9-0.4,0.9-0.8l0.2-4.2
		C290.3,229.6,290.7,229.3,291.3,229.3z"/>
	<path style="fill:#3580AF;" d="M313.8,245.4l-0.4,11.2c0,0.5-0.5,0.9-1.1,0.8l-10.5-1.9c-0.4-0.1-0.8-0.4-0.7-0.9l0.9-24.1
		c0-0.5,0.4-0.8,1-0.8l6.5,0.2c0.5,0,0.9,0.4,0.9,0.9l-0.5,12.7c0,0.5,0.4,0.8,0.9,0.9l2.2,0.1C313.4,244.5,313.8,244.9,313.8,245.4
		z"/>
	<path style="fill:#3580AF;" d="M259.7,244.4l10.7,0.4c0.5,0,0.9,0.4,0.9,0.9l-0.2,5.5c0,0.5-0.4,0.8-1,0.8l-10.7-0.4
		c-0.5,0-0.9-0.4-0.9-0.9l0.2-5.5C258.8,244.7,259.2,244.3,259.7,244.4z"/>
	<path style="fill:#3580AF;" d="M186.4,225l2.1,0.2c0.5,0.1,1-0.3,1-0.7l0.1-1.3c0-0.5,0.5-0.8,1-0.7l2.7,0.3
		c0.5,0.1,0.9,0.5,0.8,0.9l-1.7,11.9c-0.1,0.5-0.5,0.8-1.1,0.7l-6.7-0.9c-0.5-0.1-0.8-0.5-0.8-0.9l1.4-8.7
		C185.4,225.2,185.9,224.9,186.4,225z"/>
	<path style="fill:#3580AF;" d="M239.3,196.5l11-1.1c0.6-0.1,1,0.4,1,0.9l-0.9,24.4c0,0.5,0.4,0.8,0.9,0.9l1.8,0.1
		c0.5,0,0.9,0.4,0.9,0.9l-0.2,4c0,0.5-0.4,0.8-1,0.8l-16.3-0.6c-0.5,0-0.9-0.4-0.9-0.9l2.7-28.5
		C238.5,196.9,238.8,196.6,239.3,196.5z"/>
	<path style="fill:#3580AF;" d="M260.2,195.5l-0.9,24.7c0,0.5-0.4,0.8-1,0.8l-6.1-0.2c-0.5,0-0.9-0.4-0.9-0.9l0.9-23.8
		c0-0.4,0.4-0.7,0.8-0.8l6.1-0.7C259.7,194.5,260.2,194.9,260.2,195.5z"/>
	<path style="fill:#3580AF;" d="M263.6,194.6l-0.7,18.1c0,0.5,0.4,0.8,0.9,0.9l7.6,0.3c0.5,0,0.9-0.3,1-0.8l0.7-19.4
		c0-0.5-0.5-0.9-1.1-0.9l-7.6,0.9C264,193.8,263.6,194.2,263.6,194.6z"/>
	<path style="fill:#3580AF;" d="M287.4,192.2l-0.8,21.4c0,0.5-0.4,0.8-1,0.8l-11.5-0.4c-0.5,0-0.9-0.4-0.9-0.9l0.8-19.7
		c0-0.4,0.4-0.7,0.8-0.8l11.5-1.3C286.9,191.3,287.4,191.7,287.4,192.2z"/>
	<path style="fill:#3580AF;" d="M301,190.7l-0.9,23.4c0,0.5-0.4,0.8-1,0.8l-10.6-0.4c-0.5,0-0.9-0.4-0.9-0.9l0.8-21.7
		c0-0.4,0.3-0.7,0.8-0.8l10.7-1.3C300.6,189.8,301.1,190.2,301,190.7z"/>
	<path style="fill:#3580AF;" d="M314.9,189.1l-1,25.5c0,0.5-0.4,0.8-1,0.8l-10.9-0.4c-0.5,0-0.9-0.4-0.9-0.9l0.9-23.8
		c0-0.4,0.4-0.7,0.8-0.8l10.9-1.2C314.4,188.2,314.9,188.6,314.9,189.1z"/>
	<path style="fill:#3580AF;" d="M328.7,192l-0.9,23.1c0,0.5-0.4,0.8-1,0.8l-10.9-0.4c-0.5,0-0.9-0.4-0.9-0.9l1-25.3
		c0-0.5,0.6-0.9,1.1-0.8l10.9,2.5C328.4,191.3,328.7,191.6,328.7,192z"/>
	<path style="fill:#3580AF;" d="M339.9,194.7c-0.1,2.6-0.1,12.2,4.3,19.9c0.2,0.4,0.1,0.9-0.3,1.1c-0.8,0.5-1.3,0.7-1.6,0.8
		c-0.1,0.1-0.3,0.1-0.4,0.1l-12.2-0.5c-0.5,0-0.9-0.4-0.9-0.9l0.9-22.5c0-0.5,0.6-0.9,1.1-0.8l8.5,1.9
		C339.6,193.9,339.9,194.3,339.9,194.7z"/>
	<path style="fill:#3580AF;" d="M329.6,252l17.6-5.9c0.2-0.1,0.4-0.2,0.5-0.3l6.1-9.3c0.4-0.5-0.1-1.2-0.8-1.3l-23.1-0.6
		c-0.5,0-0.9,0.3-0.9,0.8l-0.6,15.8C328.4,251.8,329,252.2,329.6,252z"/>
	<path style="fill:#3580AF;" d="M165,238.3l-1,8.5c-0.1,0.5,0.3,0.9,0.8,0.9l1.7,0.2c0.5,0.1,0.9,0.5,0.8,1l-1.1,6.3
		c-0.1,0.3-0.3,0.5-0.6,0.6l-11.1,3.9c-0.7,0.2-1.3-0.3-1.3-0.9l3-21.8c0.1-0.5,0.5-0.8,1.1-0.7l7,1
		C164.7,237.4,165.1,237.8,165,238.3z"/>
	<path style="fill:#3580AF;" d="M109.2,170.2l2-13.8c0-0.2,0-0.4-0.1-0.6l-6-8.5c-0.1-0.1-0.2-0.2-0.3-0.3l-13-7.6
		c-0.1-0.1-0.2-0.1-0.3-0.1l-20-3.2c0,0-2.5-0.5-2.4,2.3c0,0.1,0,0.1,0,0.2c-0.8,3.7-3,18.8-3.5,22.3c-0.1,0.4,0.2,0.8,0.7,0.9
		l11.2,2.3c0.5,0.1,1-0.2,1.1-0.6l0.2-0.6c0.1-0.4,0.6-0.7,1-0.6l17.5,2.7c0.5,0.1,0.8,0.5,0.8,0.9l-0.4,2.5
		c-0.1,0.4,0.3,0.9,0.8,0.9l9.8,1.5C108.7,170.9,109.2,170.6,109.2,170.2z"/>
	<path style="fill:#3580AF;" d="M102.2,242.2l-1.6,12.9c0,0.4-0.3,0.6-0.7,0.7l-15.4,3c-0.1,0-0.2,0-0.3,0l-29-4.3
		c0,0-2.2,0.5-1.6-3.5c0.6-3.7,6-39.2,6.8-45c0.1-0.5,0.5-0.8,1-0.7l12.7,1.6c0.5,0.1,0.9,0.5,0.8,0.9l-1.2,9.8
		c-0.1,0.4-0.5,0.8-0.9,0.7l-0.3,0c-0.5,0-0.9,0.3-0.9,0.7l-2,16.4c-0.1,0.4,0.3,0.8,0.8,0.9l31.1,4.9
		C101.9,241.3,102.2,241.7,102.2,242.2z"/>
	<path style="fill:#3580AF;" d="M115.1,192l-9.8,14.9c-0.2,0.3-0.5,0.4-0.9,0.4l-8.5-1c-0.5-0.1-0.9-0.5-0.8-0.9l2.8-18
		c0.1-0.5,0.6-0.8,1.1-0.7l6.3,1.2c0.2,0,0.4,0,0.5,0l4.7-1.8c0.5-0.2,1,0,1.2,0.5l1.1,2.3c0,0.1,0.1,0.2,0.2,0.2l1.9,2.1
		C115.2,191.3,115.3,191.7,115.1,192z"/>
	<path style="fill:#3580AF;" d="M92.8,221.3l9.7,1.2c0.4,0.1,0.8,0.4,0.8,0.8l0.8,8.3c0,0.1,0,0.1,0,0.2l-0.6,5
		c-0.1,0.5-0.6,0.8-1.1,0.7l-11.8-2.1c-0.5-0.1-0.8-0.5-0.7-0.9l1.8-12.4C91.9,221.6,92.3,221.2,92.8,221.3z"/>
	<path style="fill:#3580AF;" d="M94.3,208.7l10.1,1.5c0.6,0.1,1,0.7,0.7,1.2l-3.3,5.1c-0.1,0.2-0.1,0.3-0.1,0.5l0.3,2.3
		c0.1,0.5-0.4,1-1,0.9l-7.8-0.9c-0.5-0.1-0.9-0.5-0.8-0.9l0.9-9C93.3,208.9,93.8,208.6,94.3,208.7z"/>
	<path style="fill:#3580AF;" d="M99.1,172.1l10.2,1.6c0.4,0.1,0.8,0.4,0.8,0.8c0,1.3,0.2,4.2,0.9,6.3c0.4,1.4,0.7,2.2,0.8,2.7
		c0.1,0.4-0.1,0.8-0.5,1l-4.2,1.6c-0.2,0.1-0.4,0.1-0.6,0l-9.4-1.8c-0.5-0.1-0.8-0.5-0.7-0.9l1.6-10.6
		C98.1,172.4,98.5,172.1,99.1,172.1z"/>
	<path style="fill:#3580AF;" d="M66.2,164.3l10.8,2.1c0.5,0.1,0.8,0.5,0.7,0.9l-1.7,16c0,0.4,0.3,0.8,0.7,0.9l18.3,3.3
		c0.5,0.1,0.8,0.5,0.7,0.9l-2.3,17.8c-0.1,0.5-0.5,0.8-1,0.7l-31.5-3.8c-0.5-0.1-0.9-0.5-0.8-0.9l5-37.3
		C65.2,164.5,65.7,164.2,66.2,164.3z"/>
	<path style="fill:#3580AF;" d="M199.5,109.1l13.6,13.2c0.2,0.2,0.3,0.4,0.2,0.6l-1.1,14.3c0,0.5,0.3,0.8,0.8,0.9l6.7,0.6
		c0.5,0,0.9,0.4,0.8,0.9l-1.7,19.9c0,0.4-0.5,0.8-1,0.8l-10.5-0.4c-0.1,0-0.3,0-0.4,0.1l-14.8,5.1c-0.1,0.1-0.3,0.1-0.5,0l-13-1.8
		c-0.5-0.1-0.9-0.5-0.8-0.9l3.1-19.6c0.1-0.5,0.6-0.8,1.1-0.7l12.7,2.1c0.5,0.1,1-0.2,1.1-0.7l2.4-18.7c0.1-0.4-0.3-0.9-0.8-0.9
		l-14.4-1.9c-0.5-0.1-0.9-0.5-0.8-0.9l1.9-12c0.1-0.4,0.5-0.7,0.9-0.7l13.6,0.5C199.1,108.9,199.3,109,199.5,109.1z"/>
	<path style="fill:#3580AF;" d="M274.2,109.7l1.8,15.2c0.1,0.4-0.3,0.8-0.8,0.9l-5.1,0.7c-0.5,0.1-0.8,0.4-0.8,0.8l0.4,11.1
		c0,0.4-0.4,0.8-0.8,0.8l-19.7,1.4c-0.3,0-0.7-0.1-0.9-0.4l-1.9-2.6c-0.1-0.1-0.2-0.3-0.1-0.5l0.5-13.2c0-0.2,0.1-0.5,0.3-0.6
		l17.9-13.4c0.1-0.1,0.3-0.2,0.5-0.2l7.6-1C273.7,108.9,274.1,109.2,274.2,109.7z"/>
	<path style="fill:#3580AF;" d="M355.1,135.3l3.6,27c0.1,0.6,0.7,0.9,1.3,0.7c1.9-0.8,5.4-2.2,6.6-2.6l1-0.4
		c0.4-0.1,0.6-0.5,0.6-0.8l-2.3-25c0-0.5-0.5-0.8-1-0.8l-8.9,1.1C355.4,134.5,355,134.9,355.1,135.3z"/>
	<path style="fill:#3580AF;" d="M458.4,163.1l21.6,0.8c0.5,0,0.9-0.3,1-0.8l0.2-5.7c0-0.5,0.4-0.8,1-0.8l37.7,1.4c0.6,0,1,0.5,0.9,1
		l-1.5,6.6c-0.1,0.4-0.5,0.7-0.9,0.7l-7.5-0.3c-0.5,0-0.9,0.3-1,0.8l-2.1,31.8c0,0.5-0.5,0.8-1,0.8l-49.7-1.9
		c-0.5,0-0.9-0.4-0.9-0.9l1.3-32.8C457.5,163.4,457.9,163.1,458.4,163.1z"/>
	<path style="fill:#3580AF;" d="M390.3,274.1l5.3,34.5c0.1,0.5,0.5,0.8,1,0.7l7.3-0.8c0.5-0.1,0.8-0.5,0.8-0.9l-4.1-33.4
		c-0.1-0.4-0.4-0.7-0.9-0.7l-8.4-0.3C390.7,273.2,390.2,273.6,390.3,274.1z"/>
	<path style="fill:#3580AF;" d="M356.4,273.1l1.7,14.8c0.1,0.4-0.3,0.8-0.7,0.9l-20.5,3.3c-0.5,0.1-1-0.3-1.1-0.7l-2-16.3
		c-0.1-0.4,0.3-0.8,0.7-0.9l12.2-2.1c0.1,0,0.1,0,0.2,0l8.6,0.3C355.9,272.4,356.3,272.7,356.4,273.1z"/>
	<path style="fill:#3580AF;" d="M236.9,231.9l14.5,1.1c0.5,0,0.9,0.4,0.9,0.9l-0.4,9.4c0,0.5,0.4,0.8,0.9,0.9l3.4,0.1
		c0.5,0,0.9,0.4,0.9,0.9l-0.2,5.5c0,0.5-0.5,0.8-1,0.8l-20.1-1.2c-0.5,0-0.9-0.4-0.9-0.9l1-16.6
		C235.9,232.2,236.4,231.9,236.9,231.9z"/>
	<path style="fill:#3580AF;" d="M285.4,234.2l-0.7,17.4c0,0.5-0.4,0.8-1,0.8l-10.1-0.4c-0.5,0-0.9-0.4-0.9-0.9l0.3-8.1
		c0-0.5,0.4-0.8,1-0.8l2.7,0.1c0.5,0,0.9-0.3,1-0.8l0.4-7.6c0-0.5,0.4-0.8,1-0.8l5.4,0.2C285.1,233.4,285.5,233.8,285.4,234.2z"/>
	<path style="fill:#3580AF;" d="M327.2,245.4l-0.3,7c0,0.3-0.2,0.6-0.6,0.7l-10.3,3.4c-0.6,0.2-1.3-0.2-1.2-0.8l0.4-10.8
		c0-0.5,0.4-0.8,1-0.8l10.1,0.4C326.9,244.5,327.3,244.9,327.2,245.4z"/>
	<path style="fill:#3580AF;" d="M319.9,280.3l3.5-0.4c0.5-0.1,1,0.3,1,0.7l0.5,3.5c0.1,0.5-0.3,0.9-0.8,0.9l-5.3,0.7
		c-0.4,0.1-0.8,0.4-0.8,0.8l-1.2,31.1c0,0.5,0.4,0.8,0.9,0.9c4.9,0.3,28.3,1.5,28.3,1.1c0-0.4-1.1-9.6-1.5-12.5
		c-0.1-0.5-0.5-0.8-1.1-0.7l-6.7,0.9c-0.5,0.1-1-0.3-1.1-0.7l-3.3-30.3c-0.1-0.5-0.5-0.8-1.1-0.7l-11.9,1.6
		c-0.5,0.1-0.8,0.4-0.8,0.8l0,1.8C318.8,279.9,319.3,280.3,319.9,280.3z"/>
	<path style="fill:#3580AF;" d="M204.8,195.9l6.5,1c0.5,0.1,0.8,0.5,0.8,0.9l-1.9,22c0,0.5-0.5,0.8-1,0.8l-17.9-1.7
		c-0.5,0-0.9-0.5-0.8-0.9l0.6-3.9c0.1-0.4,0.5-0.8,1-0.7l8,0.7c0.5,0,0.9-0.3,1-0.7l2.7-16.8C203.8,196.1,204.3,195.8,204.8,195.9z"
		/>
	<path style="fill:#3580AF;" d="M190.1,193.6l11.6,2.1c0.5,0.1,0.8,0.5,0.7,1l-2.7,15.4c-0.1,0.4-0.5,0.7-1,0.7l-6.4-0.5
		c-0.5,0-0.9-0.5-0.8-1l0.7-4.7c0.1-0.4-0.3-0.9-0.7-0.9l-3.3-0.6c-0.5-0.1-0.8-0.5-0.7-0.9l1.6-9.8
		C189.1,193.8,189.6,193.5,190.1,193.6z"/>
	<path style="fill:#3580AF;" d="M196.3,223.3l12.5,1.2c0.5,0,0.9,0.4,0.8,0.9l-1,12c0,0.5-0.5,0.8-1,0.8l-13.1-1.6
		c-0.5-0.1-0.9-0.5-0.8-0.9l1.6-11.5C195.4,223.6,195.8,223.3,196.3,223.3z"/>
	<path style="fill:#3580AF;" d="M155.1,237l-3.4,21.8c-0.1,0.5-0.5,0.8-1,0.7l-10.5-1.4c-0.5-0.1-0.9-0.5-0.8-1l4.4-26.5
		c0.1-0.4,0.5-0.8,1-0.7l6.4,0.7c0.5,0.1,0.9,0.5,0.8,0.9l-0.4,3.1c-0.1,0.4,0.3,0.8,0.7,0.9l2,0.4
		C154.9,236.1,155.2,236.6,155.1,237z"/>
	<path style="fill:#3580AF;" d="M128.5,226.7l13.4,1.7c0.5,0.1,0.9,0.5,0.8,1l-4.7,27.5c-0.1,0.5-0.5,0.8-1,0.7l-12.7-1.8
		c-0.5-0.1-0.8-0.5-0.8-0.9l3.9-27.4C127.5,226.9,128,226.6,128.5,226.7z"/>
	<path style="fill:#3580AF;" d="M314.6,219.9l29.8,0.3c0.2,0,0.4-0.1,0.6-0.2l1.7-1.2c0.4-0.3,0.9-0.2,1.3,0.1
		c1.4,1.5,5,5.5,6.5,6.2c1.2,0.6,2.6,1.5,3.5,1.9c0.4,0.2,0.5,0.7,0.3,1.1l-2.2,3.9c-0.2,0.3-0.5,0.5-0.8,0.5h-40.3
		c-0.5,0-0.9-0.4-0.9-0.8l-0.3-11C313.6,220.3,314,219.9,314.6,219.9z"/>
	<path style="fill:#3580AF;" d="M324.4,100.8l11.4-1.6c0.1,0,0.3,0,0.4,0l31.7,7.5c0.4,0.1,0.7,0.4,0.7,0.7l0.3,3.4
		c0,0.4-0.3,0.8-0.8,0.9l-16,2.2c-0.5,0.1-0.8,0.5-0.8,0.9l0.6,4.8c0.1,0.5-0.3,0.9-0.8,0.9l-18.7,1.9c-0.5,0.1-0.9,0.5-0.8,0.9
		l0.5,4.9c0,0.4-0.3,0.8-0.8,0.9l-2.2,0.3c-0.5,0.1-1-0.2-1.1-0.7l-4.4-27.2C323.5,101.3,323.9,100.9,324.4,100.8z"/>
	<path style="fill:#3580AF;" d="M73,310.5L84,309c0.5-0.1,0.9-0.6,0.9-1.1l-0.2-1.2c-0.1-0.5,0.3-1,0.8-1.1l15.3-2.4
		c0.5-0.1,1.1,0.3,1.1,0.8l2,12.3c0.1,0.5,0.6,0.9,1.1,0.8l19.1-3c0.5-0.1,0.9-0.6,0.8-1.1l-2.5-15.4c0-0.2-0.1-0.4-0.3-0.5
		l-8.4-8.8c-0.2-0.2-0.6-0.4-0.9-0.3l-29.3,4.8c-0.3,0-0.5,0.2-0.7,0.4l-11,15.7C71.6,309.6,72.2,310.6,73,310.5z"/>
	<path style="fill:#3580AF;" d="M72.1,312l5.8-0.9c0.5-0.1,1.1,0.3,1.1,0.8l1.8,12.3c0.1,0.6,0.6,0.9,1.2,0.8l13.6-2.4
		c0.6-0.1,0.9-0.6,0.8-1.2l-0.1-0.7c-0.1-0.6,0.3-1.1,0.8-1.2l27.2-4.2c0.5-0.1,1.1,0.3,1.1,0.8l2.1,14c0.1,0.5-0.3,1.1-0.8,1.1
		l-50.2,7.7c-0.5,0.1-1-0.3-1.1-0.8l-4.1-25C71.2,312.6,71.5,312,72.1,312z"/>
	<path style="fill:#3580AF;" d="M164.7,281.6l1.5,10.5c0.1,0.4,0.5,0.7,0.9,0.7l15.8-2.6c0.4-0.1,0.8,0.2,0.9,0.6l0.2,0.8
		c0.1,0.4,0.5,0.7,0.9,0.6l9.2-1.5c0.4-0.1,0.9,0.2,0.9,0.7l1.3,10.7c0.1,0.4-0.3,0.8-0.7,0.9l-4.9,0.7c-0.4,0.1-0.7,0.4-0.7,0.8
		l0.1,1.5c0,0.4-0.3,0.8-0.7,0.8l-24,4c-0.4,0.1-0.7,0.5-0.7,0.9l2,12.3c0.1,0.4,0.5,0.7,0.9,0.7l36.2-5.8c0.4-0.1,0.7-0.4,0.7-0.8
		l0.7-24.3c0-0.2,0-0.3-0.1-0.4l-10.1-17c-0.2-0.3-0.5-0.4-0.8-0.4l-28.9,4.6C164.9,280.8,164.6,281.2,164.7,281.6z"/>
	<path style="fill:#3580AF;" d="M150.3,283.7l-4.8,10.5c-0.1,0.1-0.1,0.3-0.1,0.4l3.1,20.9c0.1,0.4,0.5,0.7,0.9,0.7l4.5-0.7
		c0.4-0.1,0.8,0.2,0.9,0.7l0.7,4.6c0.1,0.4-0.2,0.8-0.6,0.9l-4.6,0.8c-0.4,0.1-0.7,0.5-0.6,0.9l0.6,3.9c0.1,0.4,0.5,0.7,0.9,0.7
		l13.7-2.4c0.4-0.1,0.7-0.5,0.6-0.9l-2.3-14.2c-0.1-0.4,0.2-0.8,0.7-0.9l4.3-0.6c0.4-0.1,0.7-0.5,0.7-0.9l-2-13.1
		c-0.1-0.4-0.5-0.7-0.9-0.7l0,0c-0.4,0.1-0.8-0.2-0.9-0.7l-1.8-11.6c-0.1-0.4-0.5-0.7-0.9-0.7l-11.5,1.9
		C150.6,283.3,150.4,283.4,150.3,283.7z"/>
	<path style="fill:#3580AF;" d="M243.6,272.7l13.7,0.1c0.6,0,1,0.5,1,1l-0.3,10.3c0,0.5-0.5,1-1,1h-0.1c-0.6,0-1,0.4-1,1v0.6
		c0,0.6-0.5,1-1,1l-9.8-0.2c-0.6,0-1,0.4-1,1l-0.2,10.2c0,0.6,0.4,1,1,1l6.1,0c0.6,0,1,0.5,1,1l0,0.8c0,0.6,0.4,1,1,1l17.5,0.2
		c0.6,0,1,0.5,1,1L271,317c0,0.6-0.5,1-1,1l-31.9-0.5c-0.5,0-0.9-0.4-1-0.9l-3.6-24.6c0-0.2,0-0.4,0.1-0.6l9.1-18.2
		C242.9,272.9,243.2,272.7,243.6,272.7z"/>
	<path style="fill:#3580AF;" d="M274.2,292.6l5.7,0.1c0.6,0,1,0.5,1,1l-0.1,5.7c0,0.6,0.4,1,1,1l11.8,0.2c0.5,0,1,0.5,1,1l-0.2,15.9
		c0,0.6-0.5,1-1,1l-20.3-0.3c-0.6,0-1-0.5-1-1.1l1.2-23.6C273.2,293,273.7,292.6,274.2,292.6z"/>
	<path style="fill:#3580AF;" d="M259.2,274.1l-0.3,10c0,0.6,0.4,1,1,1l12.6,0.3c0.5,0,1,0.5,1,1l0,4.5c0,0.5,0.4,1,1,1l6.2,0.1
		c0.6,0,1,0.5,1,1l-0.1,6c0,0.6,0.4,1,1,1l11.1,0.1c0.5,0,1-0.4,1-1l0.4-14.6c0-0.2-0.1-0.4-0.2-0.6l-6.4-9.8
		c-0.2-0.3-0.5-0.4-0.8-0.4l-27.4-0.5C259.7,273.1,259.2,273.5,259.2,274.1z"/>
	<path style="fill:#3580AF;" d="M416.8,278.1l-0.4-3.1c-0.1-0.6,0.4-1.1,1-1.1l37.4,0.9c0.5,0,0.9,0.4,1,0.8l0.7,4.8
		c0.1,0.5-0.3,1-0.8,1.1l-22.3,3.9c-0.5,0.1-0.9,0.6-0.8,1.1l0.5,3.1c0.1,0.5-0.3,1.1-0.8,1.1l-20.1,3.3c-0.5,0.1-1.1-0.3-1.1-0.8
		l-1.9-11.7c-0.1-0.5,0.3-1,0.8-1.1l6.1-1.3C416.5,279,416.8,278.6,416.8,278.1z"/>
	<path style="fill:#3580AF;" d="M409.2,319.6l30.6,0.5c0.6,0,1.1-0.5,1-1.2l-4.1-26.7c-0.1-0.6-0.6-0.9-1.2-0.8l-29.5,5.1
		c-0.5,0.1-0.9,0.6-0.8,1.1l3.1,21C408.3,319.2,408.7,319.6,409.2,319.6z"/>
	<path style="fill:#3580AF;" d="M247.9,146.8l-0.4,12.9c0,0.4,0.2,0.8,0.6,1l9.7,4c0.7,0.3,1.5-0.3,1.4-1l-2-17.6
		c-0.1-0.5-0.5-0.9-1.1-0.9l-7.3,0.7C248.3,145.9,247.9,146.3,247.9,146.8z"/>
	<path style="fill:#3580AF;" d="M270.9,143.9l2.4,18.8c0.1,0.6-0.3,1.1-0.9,1.1l-10.9,1.3c-0.6,0.1-1.1-0.3-1.1-0.9l-2-18.6
		c-0.1-0.5,0.3-1,0.9-1.1l10.4-1.5C270.3,143,270.8,143.4,270.9,143.9z"/>
	<path style="fill:#3580AF;" d="M275.5,163.3l10.8-1.3c0.5-0.1,0.9-0.6,0.9-1.1l-0.7-6.7c-0.1-0.6-0.6-1-1.1-0.9l-11,1.3
		c-0.6,0.1-0.9,0.6-0.9,1.1l0.9,6.7C274.5,163,275,163.3,275.5,163.3z"/>
	<path style="fill:#3580AF;" d="M289.3,141.6l2.4,18.8c0.1,0.6,0.6,0.9,1.1,0.9l6.6-0.9c0.5-0.1,0.9-0.6,0.9-1.1l-2.3-18.4
		c-0.1-0.5-0.5-0.9-1.1-0.9l-6.6,0.5C289.7,140.5,289.2,141,289.3,141.6z"/>
	<path style="fill:#3580AF;" d="M312.3,138.8l1.9,15.8c0,0.3-0.1,0.7-0.4,0.9l-3.8,3.1c-0.1,0.1-0.3,0.2-0.5,0.2l-7,1
		c-0.6,0.1-1.1-0.3-1.1-0.9l-2.3-18.5c-0.1-0.5,0.3-1,0.9-1.1l11.2-1.5C311.7,137.8,312.2,138.2,312.3,138.8z"/>
	<path style="fill:#3580AF;" d="M322.2,137.2l1.7,14.4c0.1,0.5-0.3,1-0.9,1.1l-6.6,0.8c-0.2,0-0.4,0.1-0.6,0.3l-0.6,0.5l-1.8-15.6
		c-0.1-0.5,0.3-1,0.8-1.1l6.8-1.2C321.5,136.2,322.1,136.6,322.2,137.2z"/>
	<path style="fill:#3580AF;" d="M117.1,107.1l25.9,0.4c0.6,0,1,0.5,1,1.1l-1.4,13.2c-0.1,0.6-0.6,1-1.1,0.9l-12.3-1.6
		c-0.6-0.1-1.1,0.3-1.1,0.9l-1,9.3c-0.1,0.5,0.3,1,0.9,1.1l0.4,0.1c0.6,0.1,0.9,0.6,0.9,1.1l-0.3,1.7c-0.1,0.6,0.3,1.1,0.8,1.1
		l17.6,2.5c0.5,0.1,0.9,0.6,0.8,1.1l-1.2,8c-0.1,0.5-0.6,0.9-1.1,0.8l-20.8-2.9c-0.3,0-0.5-0.2-0.7-0.4l-6.2-7.9
		c-0.1-0.1-0.1-0.2-0.2-0.4l-4-15.2c0-0.1,0-0.3,0-0.4l2.1-13.8C116.2,107.5,116.6,107.1,117.1,107.1z"/>
	<path style="fill:#3580AF;" d="M145,108.4l-1.1,10.4c-0.1,0.5,0.3,1,0.9,1.1l10.9,1.5c0.5,0.1,1-0.3,1.1-0.8l1.7-11.7
		c0.1-0.6-0.4-1.1-1-1.1l-11.5-0.2C145.5,107.4,145.1,107.8,145,108.4z"/>
	<path style="fill:#2C3B80;" d="M158.5,219.1l11.8,1.1c0.6,0.1,1,0.5,0.9,1.1l-1.1,11.1c-0.1,0.6-0.6,1-1.1,0.9l-11.8-1.7
		c-0.5-0.1-0.9-0.6-0.9-1.1l1.1-10.5C157.5,219.4,157.9,219,158.5,219.1z"/>
	<path style="fill:#2C3B80;" d="M292.7,218l17.6,0.1c0.6,0,1,0.5,1,1l-0.1,6.5c0,0.6-0.5,1-1,1l-17.8-0.4c-0.6,0-1-0.5-1-1l0.3-6.2
		C291.7,218.4,292.1,218,292.7,218z"/>
	<path style="fill:#2C3B80;" d="M273.4,142.6l9.6-1.2c0.5-0.1,1,0.3,1.1,0.8l1.3,8.2c0.1,0.6-0.3,1.1-0.8,1.2l-9.5,1.4
		c-0.5,0.1-1-0.3-1.1-0.8l-1.5-8.3C272.5,143.2,272.9,142.6,273.4,142.6z"/>
	<path style="fill:#2C3B80;" d="M439.2,159.7h12.4c0.6,0,1,0.5,1,1l-0.6,11.6c0,0.5-0.5,1-1,1h-12c-0.6,0-1-0.5-1-1l0.1-11.6
		C438.2,160.1,438.6,159.7,439.2,159.7z"/>
	<path style="fill:#2C3B80;" d="M347.2,304.1l4.7-0.9c0.5-0.1,0.9-0.6,0.8-1.1l-1.2-9.1c-0.1-0.6-0.6-1-1.2-0.8l-5.1,1.2
		c-0.5,0.1-0.9,0.6-0.8,1.2l1.6,8.9C346.1,303.9,346.7,304.2,347.2,304.1z"/>
</g>
</svg>
