<?xml version="1.0" encoding="utf-8"?>
<!-- Generator: Adobe Illustrator 23.0.1, SVG Export Plug-In . SVG Version: 6.00 Build 0)  -->
<svg version="1.1" id="图层_1" xmlns="http://www.w3.org/2000/svg" xmlns:xlink="http://www.w3.org/1999/xlink" x="0px" y="0px"
	 viewBox="0 0 580 428" style="enable-background:new 0 0 580 428;" xml:space="preserve">
<g>
	<path style="fill:#2C3B80;" d="M257.8,298.3l3.5,0.1c0.4,0,0.7,0.3,0.6,0.6l-0.1,2.7c0,0.3-0.3,0.6-0.7,0.6l-3.5-0.1
		c-0.4,0-0.7-0.3-0.6-0.6l0.1-2.7C257.1,298.6,257.4,298.3,257.8,298.3z"/>
	<path style="fill:#2C3B80;" d="M318.6,285.9l3.5-0.2c0.4,0,0.7,0.2,0.7,0.6l0.2,2.7c0,0.3-0.2,0.6-0.6,0.6l-3.5,0.2
		c-0.4,0-0.7-0.2-0.7-0.6l-0.2-2.7C317.9,286.2,318.2,285.9,318.6,285.9z"/>
	<path style="fill:#2C3B80;" d="M353,300.1l3.5-0.2c0.4,0,0.7,0.2,0.7,0.6l0.2,2.7c0,0.3-0.2,0.6-0.6,0.6l-3.5,0.2
		c-0.4,0-0.7-0.2-0.7-0.6l-0.2-2.7C352.4,300.4,352.7,300.1,353,300.1z"/>
	<path style="fill:#2C3B80;" d="M450.4,318.9l3.5-0.2c0.4,0,0.7,0.2,0.7,0.6l0.2,2.7c0,0.3-0.2,0.6-0.6,0.6l-3.5,0.2
		c-0.4,0-0.7-0.2-0.7-0.6l-0.2-2.7C449.8,319.2,450.1,318.9,450.4,318.9z"/>
	<path style="fill:#2C3B80;" d="M445.8,298.3l3.5-0.5c0.4-0.1,0.7,0.2,0.8,0.5l0.5,2.7c0.1,0.3-0.2,0.6-0.5,0.7l-3.5,0.5
		c-0.4,0.1-0.7-0.2-0.8-0.5l-0.5-2.7C445.2,298.7,445.4,298.4,445.8,298.3z"/>
	<path style="fill:#2C3B80;" d="M405.9,242.1l3.5,0.3c0.4,0,0.6,0.3,0.6,0.7l-0.2,2.7c0,0.3-0.4,0.6-0.7,0.5l-3.5-0.3
		c-0.4,0-0.6-0.3-0.6-0.7l0.2-2.7C405.3,242.3,405.6,242.1,405.9,242.1z"/>
	<path style="fill:#2C3B80;" d="M167.3,301.3l3.5-0.5c0.4,0,0.7,0.2,0.8,0.5l0.5,2.7c0.1,0.3-0.2,0.6-0.6,0.7l-3.5,0.5
		c-0.4,0-0.7-0.2-0.8-0.5l-0.5-2.7C166.7,301.7,167,301.4,167.3,301.3z"/>
	<path style="fill:#2C3B80;" d="M187.7,131.9l3.5,0.4c0.4,0,0.6,0.4,0.6,0.7l-0.4,2.7c0,0.3-0.4,0.6-0.7,0.5l-3.5-0.4
		c-0.4,0-0.6-0.4-0.6-0.7l0.4-2.7C187,132.1,187.3,131.9,187.7,131.9z"/>
	<path style="fill:#2C3B80;" d="M144.2,124l3.5,0.4c0.4,0,0.6,0.4,0.6,0.7l-0.4,2.7c0,0.3-0.4,0.6-0.7,0.5l-3.5-0.4
		c-0.4,0-0.6-0.4-0.6-0.7l0.4-2.7C143.5,124.2,143.8,124,144.2,124z"/>
	<path style="fill:#2D3B80;" d="M137,160.6l3.5,0.4c0.4,0,0.6,0.4,0.6,0.7l-0.4,2.7c0,0.3-0.4,0.6-0.7,0.5l-3.5-0.4
		c-0.4,0-0.6-0.4-0.6-0.7l0.4-2.7C136.3,160.8,136.7,160.6,137,160.6z"/>
	<path style="fill:#2C3B80;" d="M117.6,174.2l3.5,0.4c0.4,0,0.6,0.4,0.6,0.7l-0.4,2.7c0,0.3-0.4,0.6-0.7,0.5l-3.5-0.4
		c-0.4,0-0.6-0.4-0.6-0.7l0.4-2.7C116.9,174.4,117.2,174.2,117.6,174.2z"/>
	<path style="fill:#2D3B80;" d="M174.9,173.3l3.5,0.4c0.4,0,0.6,0.4,0.6,0.7l-0.4,2.7c0,0.3-0.4,0.6-0.7,0.5l-3.5-0.4
		c-0.4,0-0.6-0.4-0.6-0.7l0.4-2.7C174.2,173.4,174.5,173.2,174.9,173.3z"/>
	<path style="fill:#2C3B80;" d="M72.4,175.2l3.7,0.4c0.4,0,0.7,0.4,0.6,0.7l-0.4,2.9c0,0.4-0.4,0.6-0.8,0.6l-3.7-0.4
		c-0.4,0-0.7-0.4-0.6-0.7l0.4-2.9C71.7,175.4,72,175.1,72.4,175.2z"/>
	<path style="fill:#2C3B80;" d="M63.1,236.3l3.7,0.4c0.4,0,0.7,0.4,0.6,0.7l-0.4,2.9c0,0.4-0.4,0.6-0.8,0.6l-3.7-0.4
		c-0.4,0-0.7-0.4-0.6-0.7l0.4-2.9C62.4,236.6,62.7,236.3,63.1,236.3z"/>
	<path style="fill:#2D3B80;" d="M111.4,210.2l3.5,0.4c0.4,0,0.6,0.4,0.6,0.7l-0.4,2.7c0,0.3-0.4,0.6-0.7,0.5l-3.5-0.4
		c-0.4,0-0.6-0.4-0.6-0.7l0.4-2.7C110.7,210.4,111.1,210.2,111.4,210.2z"/>
	<path style="fill:#2C3B80;" d="M171.9,225.3l3.5,0.4c0.4,0,0.6,0.4,0.6,0.7l-0.4,2.7c0,0.3-0.4,0.6-0.7,0.5l-3.5-0.4
		c-0.4,0-0.6-0.4-0.6-0.7l0.4-2.7C171.2,225.4,171.6,225.2,171.9,225.3z"/>
	<path style="fill:#2C3B80;" d="M220.2,211.4l3.5,0.4c0.4,0,0.6,0.4,0.6,0.7l-0.4,2.7c0,0.3-0.4,0.6-0.7,0.5l-3.5-0.4
		c-0.4,0-0.6-0.4-0.6-0.7l0.4-2.7C219.5,211.6,219.9,211.4,220.2,211.4z"/>
	<path style="fill:#2D3B80;" d="M312.4,174l3.5,0.4c0.4,0,0.6,0.4,0.6,0.7l-0.4,2.7c0,0.3-0.4,0.6-0.7,0.5l-3.5-0.4
		c-0.4,0-0.6-0.4-0.6-0.7l0.4-2.7C311.7,174.2,312,174,312.4,174z"/>
	<path style="fill:#2C3B80;" d="M292.6,134.9l3.5-0.3c0.4,0,0.7,0.2,0.7,0.6l0.3,2.7c0,0.3-0.2,0.6-0.6,0.7l-3.5,0.3
		c-0.4,0-0.7-0.2-0.7-0.6l-0.3-2.7C291.9,135.2,292.2,134.9,292.6,134.9z"/>
	<path style="fill:#2C3B80;" d="M310.7,127.5l3.5-0.2c0.4,0,0.7,0.2,0.7,0.6l0.2,2.7c0,0.3-0.2,0.6-0.6,0.6l-3.5,0.2
		c-0.4,0-0.7-0.2-0.7-0.6l-0.2-2.7C310.1,127.8,310.4,127.5,310.7,127.5z"/>
	<path style="fill:#2C3B80;" d="M323.8,126.7l3.5-0.2c0.4,0,0.7,0.2,0.7,0.6l0.2,2.7c0,0.3-0.2,0.6-0.6,0.6l-3.5,0.2
		c-0.4,0-0.7-0.2-0.7-0.6l-0.2-2.7C323.2,127,323.4,126.8,323.8,126.7z"/>
	<path style="fill:#2C3B80;" d="M272.1,130.1l3.5-0.5c0.4,0,0.7,0.2,0.8,0.5l0.5,2.7c0.1,0.3-0.2,0.6-0.6,0.7l-3.5,0.5
		c-0.4,0-0.7-0.2-0.8-0.5l-0.5-2.7C271.5,130.4,271.8,130.1,272.1,130.1z"/>
	<path style="fill:#2C3B80;" d="M336.8,130.7l3.5-0.3c0.4,0,0.7,0.2,0.7,0.6l0.3,2.7c0,0.3-0.2,0.6-0.6,0.7l-3.5,0.3
		c-0.4,0-0.7-0.2-0.7-0.6l-0.3-2.7C336.1,131,336.4,130.7,336.8,130.7z"/>
	<path style="fill:#2C3B80;" d="M346.5,129.5l3.5-0.3c0.4,0,0.7,0.2,0.7,0.5l0.3,2.7c0,0.3-0.2,0.6-0.6,0.7l-3.5,0.3
		c-0.4,0-0.7-0.2-0.7-0.5l-0.3-2.7C345.9,129.9,346.2,129.6,346.5,129.5z"/>
	<path style="fill:#2C3B80;" d="M424.5,176.1l3.5,0.3c0.4,0,0.6,0.3,0.6,0.7l-0.2,2.7c0,0.3-0.3,0.6-0.7,0.6l-3.5-0.3
		c-0.4,0-0.6-0.3-0.6-0.7l0.2-2.7C423.9,176.3,424.2,176.1,424.5,176.1z"/>
	<path style="fill:#2C3B80;" d="M350.8,203.7l3.4-0.6c0.4-0.1,0.7,0.1,0.8,0.5l0.6,2.7c0.1,0.3-0.2,0.6-0.5,0.7l-3.4,0.6
		c-0.4,0.1-0.7-0.1-0.8-0.5l-0.6-2.7C350.2,204,350.5,203.7,350.8,203.7z"/>
	<path style="fill:#2D3B80;" d="M397.5,212.8l3.3,1.2c0.3,0.1,0.5,0.5,0.4,0.8l-1.1,2.5c-0.1,0.3-0.5,0.5-0.9,0.3l-3.3-1.2
		c-0.3-0.1-0.5-0.5-0.4-0.8l1.1-2.5C396.8,212.8,397.1,212.6,397.5,212.8z"/>
	<path style="fill:#2C3B80;" d="M262.3,232.9l3.5,0.4c0.4,0,0.6,0.3,0.6,0.7l-0.3,2.7c0,0.3-0.4,0.6-0.7,0.5l-3.5-0.4
		c-0.4,0-0.6-0.3-0.6-0.7l0.3-2.7C261.6,233.1,262,232.9,262.3,232.9z"/>
	<path style="fill:#2C3B80;" d="M314,237.6l3.5,0.1c0.4,0,0.7,0.3,0.6,0.6l-0.1,2.7c0,0.3-0.3,0.6-0.7,0.6l-3.5-0.1
		c-0.4,0-0.7-0.3-0.6-0.6l0.1-2.7C313.3,237.9,313.6,237.6,314,237.6z"/>
	<path style="fill:#2D3B80;" d="M271.2,178.6l3.5,0.4c0.4,0,0.6,0.4,0.6,0.7l-0.4,2.7c0,0.3-0.4,0.6-0.7,0.5l-3.5-0.4
		c-0.4,0-0.6-0.4-0.6-0.7l0.4-2.7C270.5,178.8,270.8,178.5,271.2,178.6z"/>
	<path style="fill:#2C3B80;" d="M85.8,311.9l3.7-0.5c0.4-0.1,0.8,0.2,0.8,0.6l0.4,2.9c0,0.4-0.2,0.7-0.6,0.7l-3.7,0.5
		c-0.4,0.1-0.8-0.2-0.8-0.6l-0.4-2.9C85.2,312.2,85.4,311.9,85.8,311.9z"/>
	<path style="fill:#3580AF;" d="M315.8,324l66.2,3.7c0.4,0,0.7-0.2,0.7-0.6l0.4-6.9c0-0.3,0.3-0.5,0.6-0.6l9.3-1.2
		c0.3,0,0.6-0.3,0.6-0.6l-0.9-11.7c0-0.4-0.4-0.6-0.8-0.6l-6.8,1.2c-0.3,0.1-0.6,0.3-0.5,0.6l0.2,2c0,0.3-0.2,0.6-0.6,0.6l-20.6,2.5
		c-0.4,0-0.7-0.2-0.8-0.5l-0.3-1.8c-0.1-0.3-0.4-0.5-0.7-0.5l-25.9,2.7c-0.4,0-0.7-0.2-0.7-0.5l-1.6-10.7c0-0.3-0.4-0.6-0.7-0.5
		l-15.3,1.6c-0.3,0-0.6,0.3-0.6,0.6l-1.5,20.5C315.2,323.7,315.4,324,315.8,324z"/>
	<path style="fill:#3580AF;" d="M318,282.1l30.4-3.9c0,0,0.1,0,0.1,0l40.2,2.2c0.3,0,0.6,0.3,0.6,0.6l2.4,21.7
		c0,0.3-0.2,0.6-0.5,0.7l-9.3,1.5c-0.4,0.1-0.7-0.2-0.8-0.5l-1.8-13.4c0-0.3-0.4-0.6-0.8-0.5l-27.6,3.3c-0.4,0-0.6,0.4-0.6,0.7
		l0.1,0.5c0.1,0.3-0.2,0.7-0.6,0.7l-16.6,1.9c-0.3,0-0.6,0.3-0.6,0.6l0,0.2c0,0.3-0.2,0.6-0.6,0.6l-14.9,1.6c-0.4,0-0.8-0.3-0.7-0.6
		l0.5-8.3c0-0.3,0.3-0.5,0.6-0.6l6-0.5c0.4,0,0.7-0.3,0.6-0.7l-0.7-4.4c-0.1-0.3-0.4-0.5-0.7-0.5l-4.6,0.4c-0.4,0-0.8-0.3-0.7-0.6
		l0.1-1.9C317.5,282.3,317.7,282.1,318,282.1z"/>
	<path style="fill:#3580AF;" d="M458.5,284.3L471,285c0.4,0,0.7,0.3,0.6,0.6l-0.1,2.5c0,0.3,0.3,0.6,0.6,0.6l20.8,1.2
		c0.4,0,0.7,0.3,0.6,0.6l0,0.4c0,0.3,0.3,0.6,0.6,0.6l0.7,0c0.3,0,0.6,0.2,0.6,0.5l0.8,5.4c0,0.3,0.3,0.5,0.7,0.5l6.9-0.1
		c0.4,0,0.7,0.3,0.7,0.6l-1.3,24c0,0.3-0.3,0.5-0.6,0.6l-39.5,4.7c-0.4,0-0.7-0.2-0.8-0.5l-4.7-42.4
		C457.8,284.5,458.1,284.2,458.5,284.3z"/>
	<path style="fill:#3580AF;" d="M405.6,281.8l0.9,6.8c0,0.3,0.4,0.6,0.8,0.5l12.9-1.7c0.3,0,0.6-0.3,0.6-0.7l-0.4-4
		c0-0.4,0.3-0.7,0.7-0.7l33.8,1.9c0.3,0,0.6,0.2,0.6,0.5l0.8,6.3c0,0.3-0.2,0.6-0.5,0.7l-23.1,3.5c-0.4,0.1-0.6,0.4-0.5,0.7l0.3,1.9
		c0.1,0.3,0.4,0.6,0.8,0.5l0.2,0c0.4-0.1,0.7,0.2,0.8,0.5l2.3,16.5c0,0.3,0.4,0.6,0.7,0.5l9-0.6c0.4,0,0.7,0.2,0.7,0.6l1.5,13.6
		c0,0.3-0.2,0.6-0.5,0.6l-5.4,1c-0.1,0-0.1,0-0.2,0l-34.3-1.9c-0.3,0-0.6-0.2-0.6-0.5l-1.6-10.8c0-0.3-0.4-0.6-0.8-0.5l-8.6,1.1
		c-0.4,0-0.7-0.2-0.8-0.5l-4.3-36.5c0-0.4,0.3-0.7,0.7-0.7l13.1,0.7C405.3,281.3,405.6,281.5,405.6,281.8z"/>
	<path style="fill:#3580AF;" d="M396.3,236l1-0.5c0.1-0.1,0.2-0.1,0.4-0.1l14.5,0.8c0.4,0,0.7,0.3,0.6,0.6l-0.9,15.6
		c0,0.3-0.3,0.6-0.7,0.6l-6.2-0.3l-0.1,1.1l-1.4-0.1c-0.5,0-0.8,0.4-0.7,0.8l1.5,3.5c0,0.1,0,0.2,0,0.3l-1.1,20
		c0,0.3,0.3,0.6,0.6,0.6l18.9,1c0.4,0,0.7-0.2,0.7-0.6l0.5-8.1c0-0.3,0.3-0.6,0.7-0.6l5.6,0.3c0.4,0,0.7-0.2,0.7-0.6l0.7-12.9
		c0-0.2,0-0.3-0.1-0.4c-1.4-1.6-11.6-13.1-11.9-14.6c-0.4-1.7,0.4-7.6-1.6-9.6c-2-2-7.9-3.6-12-3.4s-4.7,0.9-6.6,2.1
		c-1.4,0.9-3.3,1.9-4.2,2.4c-0.3,0.1-0.4,0.5-0.3,0.8l0.4,0.8C395.5,236,396,236.2,396.3,236z"/>
	<path style="fill:#3580AF;" d="M439.5,260.7l59.2,3.3c0.4,0,0.7,0.3,0.6,0.6l-1.1,20.1c0,0.3-0.3,0.6-0.7,0.6l-30.4-1.7
		c-0.4,0-0.7-0.3-0.6-0.6l0.5-9.4c0-0.3-0.3-0.6-0.6-0.6l-27.4-1.5c-0.4,0-0.7-0.3-0.6-0.6l0.5-9.4
		C438.8,261,439.1,260.7,439.5,260.7z"/>
	<path style="fill:#3580AF;" d="M462.4,171.7l21.8,1.2c0.4,0,0.7-0.2,0.7-0.6l0.4-7.6c0-0.3,0.3-0.6,0.7-0.6l20.5,1.1
		c0.4,0,0.7,0.3,0.6,0.6l0,0.6c0,0.3,0.3,0.6,0.6,0.6l13.7,0.8c0.3,0,0.6-0.2,0.7-0.5l2.3-10.2c0.1-0.3,0.4-0.5,0.7-0.5l2.4,0.1
		c0.4,0,0.7,0.4,0.6,0.7l-4,17.8c-0.1,0.3-0.4,0.5-0.7,0.5l-9.2-0.5c-0.4,0-0.7,0.2-0.7,0.6l-0.5,12.4c0,0.3-0.3,0.6-0.7,0.6
		l-1.9-0.1c-0.3,0-0.6,0.2-0.7,0.5l-0.2,1c-0.1,0.3-0.4,0.5-0.7,0.5l-2.5-0.1c-0.3,0-0.6-0.3-0.6-0.6l0-1.1c0-0.3-0.3-0.6-0.6-0.6
		l-20.4-1c-0.4,0-0.7,0.2-0.7,0.6l-1.2,19.7c0,0.3-0.3,0.6-0.7,0.6l-21.7-1.2c-0.4,0-0.7-0.3-0.6-0.6l1.9-34.2
		C461.8,171.9,462.1,171.7,462.4,171.7z"/>
	<path style="fill:#3580AF;" d="M500.6,208.7l0.4-6.4c0-0.3,0.3-0.6,0.7-0.6l1.9,0.1c0.4,0,0.7-0.2,0.7-0.6l0.7-11.6
		c0-0.3-0.3-0.6-0.6-0.6l-18.8-0.8c-0.4,0-0.7,0.2-0.7,0.6l-1.1,18.8c0,0.3,0.3,0.6,0.6,0.6l15.6,1
		C500.2,209.3,500.6,209.1,500.6,208.7z"/>
	<path style="fill:#3580AF;" d="M372.2,161.2c4-0.4,24.4-1.6,35.6,13.5c0.2,0.3,0.7,0.4,1,0.1l6.4-5.3c0.1-0.1,0.3-0.2,0.5-0.2
		l12.4,0.7c0.4,0,0.7-0.2,0.7-0.6l0.9-15.5c0-0.3,0.3-0.6,0.7-0.6l54.7,3c0.4,0,0.7,0.3,0.6,0.6l-0.3,5.4c0,0.3,0.3,0.6,0.6,0.6
		l26.2,1.2c0.4,0,0.7-0.2,0.7-0.6l0.7-11.9c0-0.3,0.3-0.6,0.7-0.6l14.8,0.8c0.3,0,0.6-0.2,0.7-0.5c0.9-3.8,6.4-28.4,5.8-40
		c-0.7-12.6-9.6-29.9-25.4-37c-15.8-7.1-28.2-4.5-33.2-2.5s-67.1,29.7-67.1,29.7l-5.4,2.6c-0.2,0.1-0.3,0.3-0.3,0.4l-1.6,9.6
		c0,0.3-0.3,0.5-0.6,0.5l-27,0.3c-0.4,0-0.7,0.3-0.7,0.6l0.1,3.2c0,0.3-0.2,0.6-0.6,0.6l-13.8,1.4c-0.4,0-0.6,0.3-0.6,0.7l0.9,9.7
		c0,0.3,0.4,0.6,0.7,0.6l7.5-0.7c0.4,0,0.7,0.2,0.7,0.6l2.3,28.8C371.5,161,371.8,161.3,372.2,161.2z"/>
	<path style="fill:#3580AF;" d="M309.3,242.4l2.1,0.1c0.4,0,0.7-0.2,0.7-0.6l0.2-4.4c0-0.3,0.3-0.6,0.7-0.6l13.3,0.7
		c0.4,0,0.7,0.3,0.6,0.6l-0.5,8.6c0,0.3-0.3,0.6-0.7,0.6l-16.8-0.9c-0.4,0-0.7,0.2-0.7,0.6l-0.7,12.9c0,0.3,0.3,0.6,0.6,0.6l3.1,0.2
		c0.1,0,0.2,0,0.3,0l34.7-10.9c0.1,0,0.3-0.1,0.3-0.3l7-10.4c0.2-0.3,0.6-0.4,0.9-0.2l2,1.1c0.3,0.2,0.7,0.1,0.9-0.2l1.9-2.7
		c0.2-0.3,0.1-0.6-0.1-0.8l-12.7-9.5c-0.2-0.1-0.4-0.2-0.6-0.1l-18.7,3.6c-0.1,0-0.1,0-0.2,0l-17.1-0.9c-0.4,0-0.7,0.2-0.7,0.6
		l-0.6,11.5C308.7,242.1,309,242.4,309.3,242.4z"/>
	<path style="fill:#3580AF;" d="M233.3,235.2l13.5,1.1c0.4,0,0.6,0.3,0.6,0.6l-0.6,11.5c0,0.3,0.3,0.6,0.6,0.6l2.4,0.1
		c0.4,0,0.7,0.3,0.6,0.6l-0.3,4.9c0,0.3-0.3,0.6-0.7,0.6l-17.8-1.3c-0.4,0-0.6-0.3-0.6-0.7l1.6-17.7
		C232.6,235.4,233,235.1,233.3,235.2z"/>
	<path style="fill:#3580AF;" d="M237.4,199.7l5.9-0.4c0.4,0,0.7,0.3,0.7,0.6l-0.9,15.7c0,0.3-0.3,0.6-0.7,0.6l-6.7-0.4
		c-0.4,0-0.7-0.3-0.6-0.7l1.6-14.9C236.8,200,237.1,199.7,237.4,199.7z"/>
	<path style="fill:#3580AF;" d="M258.9,198.5l-1,18c0,0.3-0.3,0.6-0.7,0.6l-12.4-0.7c-0.4,0-0.7-0.3-0.6-0.6l0.9-15.9
		c0-0.3,0.3-0.5,0.6-0.6l12.5-1.4C258.5,197.8,258.9,198.1,258.9,198.5z"/>
	<path style="fill:#3580AF;" d="M303.9,194.3l-1.2,21.7c0,0.1-0.1,0.3-0.2,0.4l-2.5,2.5c-0.1,0.1-0.3,0.2-0.5,0.2l-12.2-0.4
		c-0.4,0-0.7-0.3-0.6-0.6l0.4-6.6c0-0.1,0.1-0.2,0.1-0.3l2.6-3c0.1-0.1,0.1-0.2,0.1-0.3l0.7-12.4c0-0.3,0.3-0.5,0.6-0.6l12-1.1
		C303.6,193.6,303.9,193.9,303.9,194.3z"/>
	<path style="fill:#3580AF;" d="M314.9,193l-0.7,13c0,0.2-0.1,0.3-0.2,0.4l-9.1,8.1c-0.4,0.4-1.2,0.1-1.1-0.5l1.1-20.1
		c0-0.3,0.3-0.5,0.6-0.6l8.7-1C314.6,192.3,314.9,192.7,314.9,193z"/>
	<path style="fill:#3580AF;" d="M322.5,194.8l-0.8,11.3c0,0.3-0.3,0.6-0.7,0.6l-5.4-0.3c-0.4,0-0.7-0.3-0.6-0.6l0.7-12.6
		c0-0.4,0.4-0.7,0.9-0.5l5.5,1.6C322.3,194.2,322.5,194.5,322.5,194.8z"/>
	<path style="fill:#3580AF;" d="M328.9,196.4l-0.6,10.1c0,0.3-0.3,0.6-0.7,0.6l-4.4-0.2c-0.4,0-0.7-0.3-0.6-0.7l0.7-10.8
		c0-0.4,0.4-0.6,0.8-0.5l4.2,0.9C328.7,195.8,328.9,196.1,328.9,196.4z"/>
	<path style="fill:#3580AF;" d="M303.3,222.8l23.6,1.3c0.1,0,0.2,0,0.4-0.1l13.7-6.7c0.3-0.1,0.4-0.4,0.3-0.7l-6-18.9
		c-0.1-0.2-0.3-0.4-0.5-0.4l-4.3-0.9c-0.4-0.1-0.8,0.2-0.8,0.6l-0.3,10.2c0,0.3-0.3,0.6-0.7,0.6l-13.4-0.7c-0.2,0-0.4,0-0.5,0.2
		l-14.2,12.2l0,0.8l1.6,0.1c0.4,0,0.6,0.3,0.6,0.6l-0.1,1.2C302.7,222.5,302.9,222.8,303.3,222.8z"/>
	<path style="fill:#3580AF;" d="M186.8,220.5l7.6,1.5c0,0,0,0,0.1,0l11,1.1c0.4,0,0.7-0.2,0.7-0.5l2.5-23.6c0-0.3-0.2-0.6-0.6-0.7
		l-22-3.6c-0.4-0.1-0.7,0.2-0.8,0.5l-1.7,10.5c-0.1,0.3,0.2,0.6,0.5,0.7l4.5,1c0.3,0.1,0.6,0.4,0.5,0.7l-0.4,3l-1.1-0.1l-1.4,9
		C186.2,220.1,186.4,220.4,186.8,220.5z"/>
	<path style="fill:#3580AF;" d="M172.6,192.3c1.8,0.3,6.9,1.2,8.7,1.5c0.4,0.1,0.6,0.4,0.5,0.7l-1.7,10.6c-0.1,0.3-0.4,0.6-0.7,0.5
		l-4.8-0.6c-0.3,0-0.7,0.2-0.7,0.5l-0.5,2.1c-0.1,0.3-0.4,0.5-0.7,0.5l-2.6-0.1c-0.4,0-0.7-0.3-0.6-0.7l2.3-14.5
		C171.9,192.5,172.3,192.2,172.6,192.3z"/>
	<path style="fill:#3580AF;" d="M147.3,196.5l-1,6.6c0,0.3,0.2,0.6,0.5,0.7l20.9,3.7c0.4,0.1,0.7-0.2,0.8-0.5l2.5-14.5
		c0.1-0.3-0.2-0.6-0.6-0.7l-15.3-2.3c-0.2,0-0.5,0-0.6,0.2c-0.9,1-3.9,4.4-7,6.4C147.4,196.2,147.3,196.3,147.3,196.5z"/>
	<path style="fill:#3580AF;" d="M135,200.6c1.6-0.2,6.5-0.8,9.7-2.5c0.5-0.2,1.1,0.1,1,0.6l-0.8,5c-0.1,0.3,0.2,0.6,0.5,0.7l19,3.4
		c0.4,0.1,0.6,0.4,0.5,0.7l-1.3,7.5c-0.1,0.3-0.4,0.6-0.8,0.5l-29.3-4.9c-0.4-0.1-0.6-0.4-0.5-0.7l1.4-9.8
		C134.5,200.8,134.7,200.6,135,200.6z"/>
	<path style="fill:#3580AF;" d="M133.3,212.5l15.6,2.7c0.4,0.1,0.6,0.4,0.5,0.7l-1.6,11.2c0,0.3-0.4,0.6-0.8,0.5l-15.8-2.4
		c-0.4-0.1-0.6-0.4-0.6-0.7l1.9-11.5C132.6,212.7,132.9,212.4,133.3,212.5z"/>
	<path style="fill:#3580AF;" d="M129.5,229.7l-1.9,12.4c0,0,0,0.1,0,0.1l2,17.4c0,0.3,0.3,0.5,0.6,0.5l16.1,2.6c0.1,0,0.2,0,0.3,0
		l14.3-4.2c0.2-0.1,0.4-0.3,0.4-0.5l1.1-7.2c0.1-0.4-0.2-0.7-0.6-0.7l-2.4-0.1c-0.4,0-0.7-0.3-0.6-0.7l1.2-9.3
		c0-0.3-0.2-0.6-0.6-0.7l-12.4-1.9c-0.3-0.1-0.6-0.3-0.6-0.7l0.4-3.8c0-0.3-0.2-0.6-0.5-0.7l-15.9-3
		C129.9,229.2,129.6,229.4,129.5,229.7z"/>
	<path style="fill:#3580AF;" d="M61,160.2l8.7,1.4c0.4,0.1,0.7-0.2,0.8-0.5l0.4-2.3c0.1-0.3,0.4-0.5,0.8-0.5l23.1,3.9
		c0.4,0.1,0.6,0.4,0.5,0.7l-0.6,3c-0.1,0.3,0.2,0.6,0.5,0.7l10.1,1.9c0.4,0.1,0.7-0.2,0.8-0.5l2.3-12.9c0-0.1,0.1-0.3,0.2-0.4l6.8-5
		c0.3-0.2,0.3-0.5,0.1-0.8l-6.1-8.8c-0.2-0.3-0.7-0.4-1-0.2l-5.6,3.8c-0.2,0.2-0.5,0.2-0.8,0L89.4,136c-0.1,0-0.2-0.1-0.3-0.1
		l-5.8-1.6l-5.4-1.3l-9.9-1.5c0,0-2.6-0.7-3,1.8c-0.3,2.3-3.8,22.4-4.5,26.1C60.4,159.9,60.7,160.2,61,160.2z"/>
	<path style="fill:#3580AF;" d="M144.2,104.8l-2.3,14.9c-0.1,0.3-0.4,0.6-0.8,0.5l-13.4-2.4c-0.4-0.1-0.7,0.2-0.8,0.5l-1.6,10.3
		c-0.1,0.3,0.2,0.6,0.5,0.7l1.4,0.2c0.4,0.1,0.6,0.4,0.5,0.7l-2,13.1c0,0.3-0.3,0.5-0.7,0.5l-0.9,0c-0.2,0-0.3,0-0.4,0.1l-5.4,3.8
		c-0.3,0.2-0.8,0.1-1-0.1l-6.3-8.7c-0.2-0.3-0.1-0.6,0.1-0.8l4.5-3.7c0.2-0.1,0.3-0.4,0.2-0.6l-3.5-14.8c0-0.1,0-0.2,0-0.2l0.4-5.9
		l0.4-5.3l0.6-2.4c0,0,0-0.1,0-0.1c0-0.4,0.2-3.2,4.1-2.5c18.2,1,23.9,1.3,25.6,1.4C144,104.1,144.3,104.4,144.2,104.8z"/>
	<path style="fill:#3580AF;" d="M129.1,134.2c1.2,0.1,3.5,0.4,4.7,0.6c0.4,0,0.6,0.4,0.6,0.7l-1.4,9.2c-0.1,0.3-0.4,0.6-0.8,0.5
		l-4.6-0.7c-0.4-0.1-0.6-0.4-0.6-0.7l1.3-9.1C128.4,134.4,128.8,134.2,129.1,134.2z"/>
	<path style="fill:#3580AF;" d="M199.9,108.4l-1.9,11.4c-0.1,0.4,0.2,0.7,0.6,0.7l0,0c0.4,0,0.7,0.4,0.6,0.7l-4.2,22.6l-3.1,17.4
		c-0.1,0.5,0.4,0.8,0.9,0.7l13.6-4.1c0.2-0.1,0.4-0.3,0.4-0.5l1.9-14.8c0-0.1,0.1-0.2,0.1-0.3l3.3-4.1c0.1-0.1,0.1-0.2,0.1-0.3
		l1.5-16.3c0-0.2,0-0.3-0.2-0.5L201,108.1C200.6,107.7,199.9,107.9,199.9,108.4z"/>
	<path style="fill:#3580AF;" d="M221.9,139.5l-1.9,18.2c0,0.3-0.3,0.6-0.7,0.5l-10.5-0.4c-0.4,0-0.7-0.3-0.6-0.7l1.9-14
		c0-0.1,0-0.2,0.1-0.3l3.3-4.4c0.1-0.2,0.4-0.3,0.6-0.3l7.2,0.6C221.7,138.9,222,139.2,221.9,139.5z"/>
	<path style="fill:#3580AF;" d="M237.5,141.1l-1.7,17.2c0,0.3-0.3,0.6-0.7,0.5l-12.9-0.3c-0.4,0-0.7-0.3-0.7-0.7l1.9-18.4
		c0-0.3,0.4-0.6,0.7-0.5l12.7,1.4C237.3,140.5,237.5,140.8,237.5,141.1z"/>
	<path style="fill:#3580AF;" d="M246.2,141.8l0.1,16.7c0,0.3-0.3,0.6-0.7,0.6L238,159c-0.4,0-0.7-0.3-0.7-0.7l1.6-17.1
		c0-0.3,0.4-0.6,0.7-0.5l5.9,0.6C245.9,141.2,246.2,141.5,246.2,141.8z"/>
	<path style="fill:#3580AF;" d="M285,109.6l1.4,17.3c0,0.3-0.2,0.6-0.6,0.6l-14.5,1c-0.4,0-0.6,0.3-0.6,0.6l2.2,28.1
		c0,0.3,0.4,0.6,0.7,0.6l12.9-1.2c0.4,0,0.7,0.2,0.7,0.6l0.5,4.5c0,0.3-0.2,0.6-0.6,0.7l-27.5,2.4c-0.1,0-0.2,0-0.4-0.1l-10.9-4.9
		c-0.2-0.1-0.4-0.3-0.4-0.5l-0.4-18.9c0,0,0,0,0-0.1l1.3-15.7c0-0.2,0.1-0.3,0.2-0.4l16.9-13.2c0.1-0.1,0.2-0.1,0.4-0.1l17.9-1.8
		C284.6,109,285,109.2,285,109.6z"/>
	<path style="fill:#3580AF;" d="M316.5,125.5l5.1-0.5c0.4,0,0.7,0.2,0.7,0.6l2.7,32.6c0,0.3-0.2,0.6-0.6,0.6l-7,0.6
		c-0.4,0-0.7-0.2-0.7-0.6l-1.7-16.5c0-0.3,0.2-0.6,0.6-0.7l0.9-0.1c0.4,0,0.6-0.3,0.6-0.6l-1.1-14.8
		C315.9,125.8,316.1,125.6,316.5,125.5z"/>
	<path style="fill:#3580AF;" d="M355.6,140.1L358,166c0,0.3-0.2,0.6-0.5,0.6l-10.9,1.9c-0.4,0.1-0.8-0.2-0.8-0.5l-2-20.3
		c0-0.3,0.2-0.6,0.6-0.7l7.5-0.7c0.4,0,0.6-0.3,0.6-0.6l-0.3-5.3c0-0.3,0.2-0.6,0.6-0.6l2-0.3C355.2,139.5,355.6,139.8,355.6,140.1z
		"/>
	<path style="fill:#3580AF;" d="M183.2,223.8l11.5,2.1c0,0,0.1,0,0.1,0l10.2,0.6c0.5,0,0.9,0.5,0.9,0.9l-2.5,25.1
		c0,0.5-0.5,0.8-1,0.8l-23.6-0.9c-0.1,0-0.2,0-0.3,0l-0.7,0.2c-0.7,0.1-1.3-0.4-1.2-1l5.4-27.1C182.2,224.1,182.6,223.8,183.2,223.8
		z"/>
	<path style="fill:#3580AF;" d="M277,235.2l24.8,1.6c0.5,0,0.9,0.4,0.9,0.9l-0.8,20.8c0,0.5-0.6,0.9-1.1,0.8
		c-3.8-0.8-16.4-3.5-16.6-3.4c-0.1,0-5.8-0.3-8.1-0.4c-0.5,0-0.9-0.4-0.9-0.9L276,236C276.1,235.6,276.5,235.2,277,235.2z"/>
	<path style="fill:#3580AF;" d="M263.3,197.4c2.1-0.1,7.9-0.6,10.3-0.9c0.6-0.1,1.1,0.4,1,0.9l-1.1,19.3c0,0.5-0.5,0.8-1,0.8
		l-10.5-0.3c-0.5,0-0.9-0.4-0.9-0.9l1.3-18.1C262.4,197.8,262.8,197.4,263.3,197.4z"/>
	<path style="fill:#3580AF;" d="M275.4,197l-0.8,20.1c0,0.5,0.4,0.9,0.9,0.9l8.9,0.5c0.5,0,0.9-0.3,1-0.8l0.6-7.3
		c0-0.2,0.1-0.4,0.2-0.5l2.6-2.7c0.1-0.1,0.2-0.3,0.2-0.5l0.4-10.8c0-0.5-0.5-0.9-1-0.9l-12.1,1.2
		C275.8,196.2,275.4,196.6,275.4,197z"/>
	<path style="fill:#3580AF;" d="M235.6,216.8l21.1,1.2c0.5,0,0.9,0.4,0.9,0.9l-0.7,12.1c0,0.5-0.5,0.8-1,0.8l-21.4-1.6
		c-0.5,0-0.9-0.5-0.9-0.9l1-11.7C234.6,217.1,235.1,216.8,235.6,216.8z"/>
	<path style="fill:#3580AF;" d="M289.8,220.4L301,221c0.5,0,0.9,0.4,0.9,0.9l-0.4,11.5c0,0.5-0.5,0.9-1,0.8l-11.4-0.9
		c-0.5,0-0.9-0.4-0.9-0.9l0.6-11.2C288.9,220.8,289.3,220.4,289.8,220.4z"/>
	<path style="fill:#3580AF;" d="M181.1,141.1l11.7,2.2c0.5,0.1,0.8,0.5,0.7,1l-3.3,16.7c-0.1,0.4-0.5,0.8-1,0.7l-11.5-1.5
		c-0.5-0.1-0.9-0.5-0.8-1l3-17.4C180.1,141.4,180.6,141,181.1,141.1z"/>
	<path style="fill:#3580AF;" d="M157.7,105.6l-7.8,43.6c-0.1,0.3,0.1,0.6,0.3,0.8l9.5,7c0.1,0.1,0.3,0.2,0.4,0.2l12.6,2.1
		c0.5,0.1,1-0.2,1.1-0.7l7-41.9c0.1-0.5,0.6-0.8,1.1-0.7l2,0.3c0.5,0.1,1-0.2,1.1-0.7l1.6-8.3c0.1-0.5-0.3-1-0.9-1l-27.2-1.5
		C158.2,104.8,157.8,105.1,157.7,105.6z"/>
	<path style="fill:#3580AF;" d="M136.4,135.4l9.6,1.3c0.5,0.1,0.9,0.5,0.8,1l-1.5,8.7c-0.1,0.5-0.6,0.8-1.1,0.7l-9.3-1.4
		c-0.5-0.1-0.9-0.5-0.8-1l1.3-8.6C135.4,135.7,135.8,135.3,136.4,135.4z"/>
	<path style="fill:#3580AF;" d="M291.3,143.7l7.5-0.6c0.5,0,1,0.3,1,0.8l1.3,16.2c0,0.5-0.3,0.9-0.8,0.9l-7.2,0.7
		c-0.5,0.1-1-0.3-1.1-0.8l-1.6-16.3C290.5,144.2,290.8,143.8,291.3,143.7z"/>
	<path style="fill:#3580AF;" d="M300.9,143.7l1.4,16c0,0.5,0.5,0.8,1,0.8l11.2-0.8c0.5,0,0.9-0.5,0.8-0.9l-1.6-16.1
		c0-0.5-0.5-0.8-1-0.8l-10.9,1C301.2,142.8,300.8,143.2,300.9,143.7z"/>
	<path style="fill:#3580AF;" d="M357.4,137.9l9.4-0.8c0.5,0,1,0.3,1,0.8l1.8,23.4c0,0.4-0.2,0.7-0.6,0.9c-1.6,0.5-5.3,1.6-6.7,2.1
		c-0.7,0.3-1.3,0.5-1.8,0.7c-0.6,0.2-1.3-0.1-1.3-0.7l-2.6-25.4C356.5,138.3,356.9,137.9,357.4,137.9z"/>
	<path style="fill:#3580AF;" d="M435.3,172.3l-1,17.2c0,0.5-0.5,0.8-1,0.8l-18.2-1c-0.6,0-1.1,0.5-1,1.1c1,3,4.3,10.7,12,11.4
		c8.4,0.7,24.2,1.4,28.1,1.6c0.5,0,0.9-0.3,1-0.8l1.1-19.3c0-0.5-0.4-0.9-0.9-0.9l-13-0.7c-0.5,0-0.9-0.4-0.9-0.9l0.4-8
		c0-0.5-0.4-0.9-0.9-0.9l-4.9-0.3C435.8,171.5,435.3,171.9,435.3,172.3z"/>
	<path style="fill:#3580AF;" d="M54.7,197.9l33,5.9c0.5,0.1,0.8,0.5,0.8,1l-1.9,11.9c-0.1,0.5,0.3,0.9,0.8,1l7.1,0.8
		c0.5,0.1,1-0.3,1-0.8l0.1-1.9c0-0.1,0.1-0.3,0.1-0.4l15.4-22.9c0.2-0.3,0.2-0.7,0-0.9c-1.2-1.6-5.2-7.1-6.2-15.8
		c0-0.4-0.4-0.7-0.8-0.8c-5.7-1-8.2-1.4-9.4-1.6c-0.5-0.1-1,0.2-1.1,0.7l-2.3,10.5c-0.1,0.5-0.6,0.8-1.1,0.7l-19-3.4
		c-0.5-0.1-0.8-0.5-0.8-0.9l0.3-2.8c0-0.4-0.3-0.9-0.8-0.9l-11.1-1.8c-0.5-0.1-1,0.2-1.1,0.7L54,197
		C53.9,197.4,54.2,197.8,54.7,197.9z"/>
	<path style="fill:#3580AF;" d="M329.2,149.4l12-1.4c0.5-0.1,1,0.3,1.1,0.8l1.6,18.6c0.1,0.7-0.9,1.2-1.5,0.7l-13.3-9.5
		c-0.2-0.2-0.4-0.4-0.4-0.6l-0.4-7.7C328.4,149.8,328.7,149.4,329.2,149.4z"/>
	<path style="fill:#3580AF;" d="M296.2,108.7l1.4,16.7c0,0.5,0.5,0.8,1,0.8l45-4c0.5,0,1,0.3,1,0.8l0.6,4.4c0.1,0.5,0.5,0.8,1.1,0.8
		l7.2-0.8c0.5-0.1,0.9-0.5,0.8-0.9l-1.9-17.9c0-0.3-0.3-0.6-0.6-0.7l-12.4-3.8c-0.1,0-0.3-0.1-0.4,0l-42,3.9
		C296.5,107.9,296.2,108.3,296.2,108.7z"/>
	<path style="fill:#3580AF;" d="M64,320.9l6.8-1.1c0.4-0.1,0.6-0.4,0.5-0.7L70,307.8c0-0.4,0.2-0.7,0.6-0.7l2.5-0.4
		c0.4-0.1,0.7,0.2,0.8,0.6l0.1,0.6c0,0.4,0.4,0.6,0.8,0.6l1.9-0.3c0.3-0.1,0.6-0.4,0.5-0.7l-0.2-1.7c0-0.4,0.2-0.7,0.6-0.7l16.4-2
		c0.4,0,0.7,0.2,0.7,0.6l1.7,13.3c0,0.4,0.4,0.6,0.7,0.6l21-2.7c0.4,0,0.6-0.4,0.6-0.7l-2-16.2c0-0.1-0.1-0.2-0.1-0.3l-10.4-13
		c-0.1-0.2-0.4-0.3-0.6-0.2l-29.1,4c-0.2,0-0.3,0.1-0.4,0.3l-14.1,18.7c-0.1,0.1-0.1,0.3-0.1,0.5l1.5,12.6
		C63.3,320.7,63.7,321,64,320.9z"/>
	<path style="fill:#3580AF;" d="M66.8,339.8l53.1-7.3c0.4,0,0.6-0.4,0.6-0.7l-1.5-15c0-0.4-0.4-0.6-0.7-0.6l-29,3.6
		c-0.4,0-0.6,0.4-0.6,0.7l0.1,1.7c0,0.3-0.2,0.6-0.5,0.7l-6.5,1.1c-0.4,0.1-0.8-0.2-0.8-0.7v0c0-0.4-0.4-0.7-0.8-0.7L70,324.2
		c-0.4,0.1-0.7-0.2-0.8-0.6l-0.2-1.7c-0.1-0.4-0.4-0.6-0.8-0.6l-4,0.8c-0.3,0.1-0.6,0.4-0.5,0.7l2.4,16.2
		C66.1,339.6,66.4,339.8,66.8,339.8z"/>
	<path style="fill:#3580AF;" d="M144.2,283.4l-5.7,11.3c-0.1,0.1-0.1,0.3-0.1,0.4l2,15.5c0,0.4,0.4,0.6,0.8,0.6l20.9-3
		c0.4-0.1,0.6-0.4,0.6-0.7l-1.6-12.7c0-0.4,0.2-0.7,0.6-0.7l16.3-1.9c0.4,0,0.7,0.2,0.7,0.6l0.1,0.9c0,0.4,0.4,0.6,0.7,0.6l5.3-0.6
		v-1.3l5.6-0.5c0.3,0,0.7,0.2,0.7,0.6l1.7,10.8c0.1,0.4,0.4,0.6,0.7,0.6l6.6-0.9c0.3,0,0.5-0.3,0.6-0.6l0.4-5.6c0-0.1,0-0.3-0.1-0.4
		l-10.5-18.3c-0.1-0.2-0.4-0.4-0.7-0.3l-45,5.6C144.5,283.1,144.3,283.2,144.2,283.4z"/>
	<path style="fill:#3580AF;" d="M143.7,330l55.5-7.6c0.3,0,0.6-0.3,0.6-0.6l0.8-17.1c0-0.4-0.4-0.8-0.8-0.7l-14.7,2.4
		c-0.4,0.1-0.6,0.4-0.5,0.8l0.3,1.3c0.1,0.4-0.2,0.8-0.5,0.8l-18.4,2.8c-0.3,0.1-0.7-0.2-0.7-0.5l-0.6-2.2c-0.1-0.3-0.4-0.5-0.7-0.5
		l-22.5,3.7c-0.4,0.1-0.6,0.4-0.5,0.7l2.1,16.1C143,329.8,143.4,330.1,143.7,330z"/>
	<path style="fill:#3580AF;" d="M239.5,275.6L229.4,295c-0.1,0.1-0.1,0.3-0.1,0.4l3.1,25.5c0,0.3,0.3,0.6,0.6,0.6l57.2,2.6
		c0.4,0,0.7-0.3,0.7-0.6l0.8-17c0-0.4-0.3-0.7-0.6-0.7l-20.3-0.9c-0.4,0-0.7,0.3-0.7,0.6l-0.1,1.4c0,0.4-0.3,0.6-0.7,0.6l-20.7-0.9
		c-0.4,0-0.6-0.3-0.6-0.7v-1.5c0-0.4-0.3-0.6-0.6-0.7l-6.9-0.4c-0.4,0-0.6-0.3-0.6-0.7l0.6-12.7c0-0.4,0.3-0.6,0.7-0.6l7.7,0.3
		c0.4,0,0.7-0.3,0.7-0.6l0.8-12.5c0-0.4-0.3-0.7-0.6-0.7l-9.5-0.5C239.9,275.2,239.6,275.4,239.5,275.6z"/>
	<path style="fill:#3580AF;" d="M286.1,277.7l6.5,10.4c0.1,0.1,0.1,0.2,0.1,0.4l-0.8,15.4c0,0.4-0.3,0.6-0.7,0.6l-20.4-1
		c-0.4,0-0.6-0.3-0.6-0.7l0.4-12.7c0-0.4-0.3-0.7-0.6-0.7l-18.4-0.6c-0.4,0-0.7-0.3-0.6-0.7l0.7-11.5c0-0.4,0.3-0.6,0.7-0.6
		l33.4,1.4C285.8,277.4,286,277.6,286.1,277.7z"/>
	<path style="fill:#3580AF;" d="M47,253.4l31.3,4.8c0.1,0,0.2,0,0.4,0l15.9-3.3c0.4-0.1,0.7-0.4,0.8-0.8l2.9-20.3c0-0.1,0-0.2,0-0.3
		l-1.4-8.4c-0.1-0.4-0.4-0.8-0.9-0.8l-9.3-1.3c-0.5-0.1-1,0.3-1.1,0.8L83,236.5c-0.1,0.5-0.6,0.9-1.1,0.8L64,234.9
		c-0.6-0.1-0.9-0.6-0.9-1.2l2.2-13.5c0.1-0.5-0.3-1.1-0.8-1.1l-12.5-1.9c-0.6-0.1-1.1,0.3-1.1,0.9l-4.7,34.1
		C46.1,252.8,46.5,253.3,47,253.4z"/>
	<path style="fill:#3580AF;" d="M54.7,199.5l15.5,3l-2.5,15.5l-16.5-2.8l2.3-14.8C53.6,199.7,54.2,199.4,54.7,199.5z"/>
	<path style="fill:#2E3B80;" d="M153.8,219l12.3,1.7c0.6,0.1,0.9,0.6,0.8,1.2l-2.3,13c-0.1,0.5-0.6,0.9-1.1,0.8l-11.9-1.7
		c-0.5-0.1-0.9-0.6-0.8-1.1l1.9-13C152.7,219.3,153.2,218.9,153.8,219z"/>
	<path style="fill:#2E3B80;" d="M274.3,145l11.2-0.8c0.5,0,1,0.4,1.1,0.9l1,9.2c0.1,0.6-0.4,1.1-0.9,1.1l-11.3,1
		c-0.5,0-1-0.4-1.1-0.9l-0.8-9.3C273.4,145.5,273.8,145,274.3,145z"/>
	<path style="fill:#2E3B80;" d="M445.2,167.7l10.8,0.4c0.6,0,1,0.5,1,1.1l-0.8,10.9c0,0.6-0.5,1-1.1,0.9l-10.5-0.8
		c-0.5,0-0.9-0.5-0.9-1.1l0.6-10.5C444.2,168.1,444.7,167.7,445.2,167.7z"/>
	<path style="fill:#2E3B80;" d="M452.3,274.8l10.1,0.6c0.6,0,1,0.5,0.9,1.1l-0.4,5.3c0,0.6-0.5,1-1.1,0.9l-9.9-0.8
		c-0.5,0-0.9-0.5-0.9-1l0.1-5C451.2,275.2,451.7,274.8,452.3,274.8z"/>
	<path style="fill:#2E3B80;" d="M339.2,297.9l5.3-0.5c0.5,0,1,0.4,1.1,0.9l1,10.3c0.1,0.6-0.4,1-0.9,1.1l-5.2,0.5
		c-0.5,0.1-1-0.3-1.1-0.9l-1.1-10.3C338.2,298.5,338.6,298,339.2,297.9z"/>
</g>
</svg>
