<?xml version="1.0" encoding="utf-8"?>
<!-- Generator: Adobe Illustrator 23.0.1, SVG Export Plug-In . SVG Version: 6.00 Build 0)  -->
<svg version="1.1" id="图层_1" xmlns="http://www.w3.org/2000/svg" xmlns:xlink="http://www.w3.org/1999/xlink" x="0px" y="0px"
	 viewBox="0 0 580 428" style="enable-background:new 0 0 580 428;" xml:space="preserve">
<g>
	<path style="fill:#2C3B80;" d="M187.6,126l3.5,0.5c0.4,0.1,0.6,0.4,0.6,0.7l-0.4,2.7c-0.1,0.3-0.4,0.6-0.8,0.5L187,130
		c-0.4-0.1-0.6-0.4-0.6-0.7l0.4-2.7C186.9,126.1,187.2,125.9,187.6,126z"/>
	<path style="fill:#2C3B80;" d="M143.8,117l3.5,0.5c0.4,0.1,0.6,0.4,0.6,0.7l-0.4,2.7c-0.1,0.3-0.4,0.6-0.8,0.5l-3.5-0.5
		c-0.4-0.1-0.6-0.4-0.6-0.7l0.4-2.7C143.1,117.2,143.4,117,143.8,117z"/>
	<path style="fill:#2D3B80;" d="M136,154.4l3.5,0.5c0.4,0.1,0.6,0.4,0.6,0.7l-0.4,2.7c-0.1,0.3-0.4,0.6-0.8,0.5l-3.5-0.5
		c-0.4-0.1-0.6-0.4-0.6-0.7l0.4-2.7C135.3,154.6,135.6,154.4,136,154.4z"/>
	<path style="fill:#2C3B80;" d="M116.1,168.1l3.5,0.5c0.4,0.1,0.6,0.4,0.6,0.7l-0.4,2.7c-0.1,0.3-0.4,0.6-0.8,0.5l-3.5-0.5
		c-0.4-0.1-0.6-0.4-0.6-0.7l0.4-2.7C115.4,168.2,115.8,168,116.1,168.1z"/>
	<path style="fill:#2C3B80;" d="M82.8,162.7l3.5,0.5c0.4,0.1,0.6,0.4,0.6,0.7l-0.4,2.7c-0.1,0.3-0.4,0.6-0.8,0.5l-3.5-0.5
		c-0.4-0.1-0.6-0.4-0.6-0.7l0.4-2.7C82.1,162.8,82.5,162.6,82.8,162.7z"/>
	<path style="fill:#2C3B80;" d="M62,223l3.7,0.5c0.4,0.1,0.7,0.4,0.6,0.7l-0.4,2.8c-0.1,0.4-0.4,0.6-0.8,0.5l-3.7-0.5
		c-0.4-0.1-0.7-0.4-0.6-0.7l0.4-2.8C61.3,223.2,61.6,222.9,62,223z"/>
	<path style="fill:#2D3B80;" d="M109.4,204.8l3.5,0.5c0.4,0.1,0.6,0.4,0.6,0.7l-0.4,2.7c-0.1,0.3-0.4,0.6-0.8,0.5l-3.5-0.5
		c-0.4-0.1-0.6-0.4-0.6-0.7l0.4-2.7C108.6,205,109,204.8,109.4,204.8z"/>
	<path style="fill:#2C3B80;" d="M170.1,221.4l3.5,0.5c0.4,0.1,0.6,0.4,0.6,0.7l-0.4,2.7c-0.1,0.3-0.4,0.6-0.8,0.5l-3.5-0.5
		c-0.4-0.1-0.6-0.4-0.6-0.7l0.4-2.7C169.4,221.6,169.8,221.3,170.1,221.4z"/>
	<path style="fill:#2D3B80;" d="M312.7,171.4l3.5,0.5c0.4,0.1,0.6,0.4,0.6,0.7l-0.4,2.7c-0.1,0.3-0.4,0.6-0.8,0.5l-3.5-0.5
		c-0.4-0.1-0.6-0.4-0.6-0.7l0.4-2.7C312,171.6,312.3,171.4,312.7,171.4z"/>
	<path style="fill:#2C3B80;" d="M293.4,130.9l3.5-0.2c0.4,0,0.7,0.2,0.7,0.6l0.2,2.8c0,0.3-0.2,0.6-0.6,0.7l-3.5,0.2
		c-0.4,0-0.7-0.2-0.7-0.6l-0.2-2.8C292.7,131.2,293,130.9,293.4,130.9z"/>
	<path style="fill:#2C3B80;" d="M311.8,123.7l3.5-0.2c0.4,0,0.7,0.2,0.7,0.6l0.2,2.8c0,0.3-0.3,0.6-0.6,0.7l-3.5,0.2
		c-0.4,0-0.7-0.2-0.7-0.6l-0.2-2.8C311.2,124,311.4,123.7,311.8,123.7z"/>
	<path style="fill:#2C3B80;" d="M325,123.1l3.5-0.2c0.4,0,0.7,0.2,0.7,0.6l0.2,2.8c0,0.3-0.3,0.6-0.6,0.7l-3.5,0.2
		c-0.4,0-0.7-0.2-0.7-0.6l-0.2-2.8C324.3,123.4,324.6,123.1,325,123.1z"/>
	<path style="fill:#2C3B80;" d="M272.8,125.6l3.5-0.4c0.4,0,0.7,0.2,0.8,0.5l0.4,2.8c0.1,0.3-0.2,0.7-0.6,0.7l-3.5,0.4
		c-0.4,0-0.7-0.2-0.8-0.5l-0.4-2.8C272.2,125.9,272.5,125.6,272.8,125.6z"/>
	<path style="fill:#2C3B80;" d="M338,127.4l3.5-0.2c0.4,0,0.7,0.2,0.7,0.6l0.2,2.8c0,0.3-0.3,0.6-0.6,0.7l-3.5,0.2
		c-0.4,0-0.7-0.2-0.7-0.6l-0.2-2.8C337.4,127.7,337.7,127.4,338,127.4z"/>
	<path style="fill:#2C3B80;" d="M347.9,126.4l3.5-0.2c0.4,0,0.7,0.2,0.7,0.6l0.3,2.8c0,0.3-0.2,0.6-0.6,0.7l-3.5,0.2
		c-0.4,0-0.7-0.2-0.7-0.6l-0.3-2.8C347.2,126.7,347.5,126.4,347.9,126.4z"/>
	<path style="fill:#2C3B80;" d="M424,174.6l3.5,0.3c0.4,0,0.6,0.3,0.6,0.7l-0.3,2.8c0,0.3-0.4,0.6-0.7,0.6l-3.5-0.3
		c-0.4,0-0.6-0.3-0.6-0.7l0.3-2.8C423.3,174.8,423.6,174.6,424,174.6z"/>
	<path style="fill:#2C3B80;" d="M351,202.5l3.5-0.6c0.4-0.1,0.7,0.2,0.8,0.5l0.6,2.7c0.1,0.3-0.2,0.7-0.5,0.7l-3.5,0.6
		c-0.4,0.1-0.7-0.2-0.8-0.5l-0.6-2.7C350.4,202.9,350.6,202.6,351,202.5z"/>
	<path style="fill:#2D3B80;" d="M397.9,212.7l3.3,1.3c0.3,0.1,0.5,0.5,0.4,0.8l-1.2,2.6c-0.1,0.3-0.5,0.5-0.9,0.3l-3.3-1.3
		c-0.3-0.1-0.5-0.5-0.4-0.8l1.2-2.6C397.2,212.8,397.6,212.6,397.9,212.7z"/>
	<path style="fill:#2C3B80;" d="M261.2,230.9l3.5,0.5c0.4,0,0.6,0.4,0.6,0.7l-0.4,2.8c0,0.3-0.4,0.6-0.8,0.5l-3.5-0.5
		c-0.4,0-0.6-0.4-0.6-0.7l0.4-2.8C260.5,231.1,260.9,230.9,261.2,230.9z"/>
	<path style="fill:#2C3B80;" d="M312.9,239.2l3.5,0.2c0.4,0,0.7,0.3,0.6,0.7l-0.1,2.8c0,0.3-0.3,0.6-0.7,0.6l-3.5-0.2
		c-0.4,0-0.7-0.3-0.6-0.7l0.1-2.8C312.2,239.5,312.5,239.2,312.9,239.2z"/>
	<path style="fill:#3580AF;" d="M371.2,157.6c4.1-0.3,24.6-1.2,35.7,14.5c0.2,0.3,0.7,0.4,1,0.1l6.5-5.3c0.1-0.1,0.3-0.2,0.5-0.2
		l12.5,0.9c0.4,0,0.7-0.2,0.7-0.6l1.1-15.9c0-0.3,0.3-0.6,0.7-0.6l55.2,4.1c0.4,0,0.7,0.3,0.6,0.7l-0.4,5.5c0,0.3,0.3,0.7,0.6,0.7
		l26.4,1.7c0.4,0,0.7-0.2,0.7-0.6l0.9-12.2c0-0.3,0.3-0.6,0.7-0.6l14.9,1.1c0.3,0,0.6-0.2,0.7-0.5c1-3.9,6.9-29.1,6.5-41
		c-0.4-12.9-9.2-30.8-25-38.5c-15.8-7.6-28.3-5.1-33.4-3.2c-5.1,2-68.1,29.3-68.1,29.3l-5.5,2.6c-0.2,0.1-0.3,0.3-0.4,0.5l-1.8,9.9
		c-0.1,0.3-0.3,0.5-0.7,0.5l-27.3-0.2c-0.4,0-0.7,0.3-0.7,0.6l0,3.3c0,0.3-0.3,0.6-0.6,0.6l-13.9,1.2c-0.4,0-0.6,0.3-0.6,0.7
		l0.8,9.9c0,0.4,0.4,0.6,0.7,0.6l7.5-0.6c0.4,0,0.7,0.2,0.7,0.6l1.8,29.6C370.5,157.4,370.8,157.7,371.2,157.6z"/>
	<path style="fill:#2C3B80;" d="M255.7,300.7l3.5,0.2c0.4,0,0.7,0.3,0.6,0.7l-0.2,2.8c0,0.3-0.3,0.6-0.7,0.6l-3.5-0.2
		c-0.4,0-0.7-0.3-0.6-0.7l0.2-2.8C255,300.9,255.4,300.7,255.7,300.7z"/>
	<path style="fill:#2C3B80;" d="M315.1,287.3l3.5-0.2c0.4,0,0.7,0.2,0.7,0.6l0.2,2.8c0,0.3-0.3,0.6-0.6,0.7l-3.5,0.2
		c-0.4,0-0.7-0.2-0.7-0.6l-0.2-2.8C314.4,287.6,314.7,287.3,315.1,287.3z"/>
	<path style="fill:#2C3B80;" d="M350.2,302.7l3.5-0.2c0.4,0,0.7,0.2,0.7,0.6l0.2,2.8c0,0.3-0.3,0.6-0.6,0.7l-3.5,0.2
		c-0.4,0-0.7-0.2-0.7-0.6l-0.2-2.8C349.5,303,349.8,302.7,350.2,302.7z"/>
	<path style="fill:#2C3B80;" d="M164.4,302.1l3.5-0.4c0.4,0,0.7,0.2,0.8,0.5l0.4,2.8c0.1,0.3-0.2,0.7-0.6,0.7l-3.5,0.4
		c-0.4,0-0.7-0.2-0.8-0.5l-0.4-2.8C163.8,302.5,164,302.1,164.4,302.1z"/>
	<path style="fill:#2C3B80;" d="M79.4,310.8l3.5-0.4c0.4,0,0.7,0.2,0.8,0.6l0.3,2.8c0,0.3-0.2,0.6-0.6,0.7l-3.5,0.4
		c-0.4,0-0.7-0.2-0.8-0.6l-0.3-2.8C78.8,311.1,79,310.8,79.4,310.8z"/>
	<path style="fill:#3580AF;" d="M311.8,326.1l66.8,5c0.4,0,0.7-0.2,0.7-0.6l0.5-7c0-0.3,0.3-0.5,0.6-0.6l9.4-1
		c0.4,0,0.6-0.3,0.6-0.7l-0.8-12c0-0.4-0.4-0.7-0.8-0.6l-6.9,1.1c-0.3,0.1-0.6,0.3-0.6,0.6l0.1,2c0,0.3-0.2,0.6-0.6,0.7l-20.8,2.2
		c-0.4,0-0.7-0.2-0.8-0.5l-0.3-1.9c-0.1-0.3-0.4-0.6-0.7-0.5l-26.2,2.3c-0.4,0-0.7-0.2-0.7-0.6l-1.4-11c0-0.3-0.4-0.6-0.7-0.6
		l-15.4,1.4c-0.3,0-0.6,0.3-0.6,0.6l-1.9,21C311.1,325.8,311.4,326.1,311.8,326.1z"/>
	<path style="fill:#3580AF;" d="M314.7,283.2l30.8-3.4c0,0,0.1,0,0.1,0l40.5,3c0.3,0,0.6,0.3,0.6,0.6l2,22.3c0,0.3-0.2,0.6-0.6,0.7
		l-9.4,1.3c-0.4,0.1-0.7-0.2-0.8-0.6l-1.6-13.7c0-0.3-0.4-0.6-0.8-0.6l-27.9,2.8c-0.4,0-0.6,0.4-0.6,0.7l0.1,0.5
		c0.1,0.4-0.2,0.7-0.6,0.7l-16.8,1.7c-0.4,0-0.6,0.3-0.6,0.6l0,0.2c0,0.3-0.2,0.6-0.6,0.6l-15,1.3c-0.4,0-0.8-0.3-0.8-0.7l0.6-8.5
		c0-0.3,0.3-0.6,0.6-0.6l6,3.6c0.4,0,0.7-4.3,0.6-4.7l-0.7-4.5c0-0.3-0.4-0.6-0.7-0.6l-4.6,0.3c-0.4,0-0.8-0.3-0.7-0.7l0.1-2
		C314.1,283.4,314.4,283.2,314.7,283.2z"/>
	<path style="fill:#3580AF;" d="M403.1,286.5l0.8,7c0,0.4,0.4,0.6,0.8,0.6l13-1.5c0.4,0,0.6-0.3,0.6-0.7l-0.3-4.1
		c0-0.4,0.3-0.7,0.7-0.7l34,2.5c0.3,0,0.6,0.3,0.6,0.6l0.7,6.5c0,0.3-0.2,0.6-0.6,0.7l-23.3,3.2c-0.4,0-0.6,0.4-0.6,0.7l0.2,1.9
		c0,0.4,0.4,0.6,0.8,0.6l0.2,0c0.4-0.1,0.8,0.2,0.8,0.6l2,17c0,0.3,0.4,0.6,0.7,0.6l9.1-0.4c0.4,0,0.7,0.2,0.7,0.6l1.3,13.9
		c0,0.3-0.2,0.6-0.5,0.7l-5.5,1c-0.1,0-0.1,0-0.2,0l-34.6-2.6c-0.3,0-0.6-0.3-0.6-0.6l-1.4-11.1c0-0.3-0.4-0.6-0.8-0.6l-8.7,0.9
		c-0.4,0-0.7-0.2-0.8-0.6l-3.7-37.5c0-0.4,0.3-0.7,0.7-0.7l13.2,1C402.8,286,403.1,286.2,403.1,286.5z"/>
	<path style="fill:#3580AF;" d="M459.9,333.7l13-1c0.4,0,0.6-0.3,0.6-0.7l-4.2-38.4c0-0.3-0.3-0.5-0.6-0.6l-12.3-0.9
		c-0.4,0-0.8,0.3-0.7,0.7l3.5,40.3C459.2,333.5,459.5,333.8,459.9,333.7z"/>
	<path style="fill:#3580AF;" d="M495.8,304l1,6.6c0.1,0.4-0.2,0.7-0.6,0.7l-3.4,0.2c-0.4,0-0.6,0.3-0.6,0.6l0.4,13.1
		c0,0.3-0.2,0.6-0.6,0.6l-16.3,1.9c-0.4,0-0.6,0.3-0.6,0.7l0.3,3.4c0,0.4,0.4,0.6,0.8,0.6l23.3-2.6c0.3,0,0.6-0.3,0.6-0.6l1.8-24.7
		c0-0.3-0.3-0.6-0.6-0.7l-4.6-0.3C496.1,303.3,495.8,303.7,495.8,304z"/>
	<path style="fill:#3580AF;" d="M394.2,239.6c4.1-2.1,33.2-18.4,20.8-56.4c-0.1-0.4,0.2-0.8,0.7-0.8l12.7,0.9c0.4,0,0.7-0.2,0.7-0.6
		l1-14.4c0-0.3,0.3-0.6,0.7-0.6l2.7,0.2c0.4,0,0.7-0.2,0.7-0.6l0.4-5c0-0.3,0.3-0.6,0.7-0.6l21.6,1.6c0.4,0,0.7-0.2,0.7-0.6l0.6-8.2
		c0-0.3,0.3-0.6,0.7-0.6l24,1.8c0.4,0,0.7,0.3,0.6,0.7l-0.4,6c0,0.3,0.3,0.6,0.6,0.7l16.3,1.2c0.4,0,0.7,0.3,0.6,0.7l-0.1,1.2
		c0,0.3,0.3,0.6,0.6,0.7l20.5,1.5c0.4,0,0.7-0.2,0.7-0.6l1.2-16.3c0-0.3,0.3-0.6,0.7-0.6l6.4,0.5c0.4,0,0.7,0.4,0.6,0.8l-5.3,23.6
		c-0.1,0.3-0.4,0.5-0.7,0.5l-6.3-0.5c-0.4,0-0.7,0.2-0.7,0.6l-6.3,87.6c0,0.3-0.3,0.6-0.7,0.6l-2.1-0.2c-0.4,0-0.7,0.2-0.7,0.6
		l-1.9,27.1c0,0.3-0.3,0.6-0.7,0.6L399.8,285c-0.4,0-0.7-0.3-0.6-0.7l1.5-21.5c0-0.1,0-0.1,0-0.2l-6.8-22.2
		C393.8,240,393.9,239.8,394.2,239.6z"/>
	<path style="fill:#3580AF;" d="M323.7,217.7l1,0.9c0.1,0.1,0.3,0.2,0.4,0.2l15.5,1.2c0.3,0,0.5,0.2,0.6,0.4
		c0.7,1.9,4.4,10.7,16.4,18.4c0.3,0.2,0.4,0.5,0.2,0.8c-0.8,1.4-1.3,2.3-1.7,2.8c-0.2,0.3-0.6,0.4-0.9,0.2l-1.4-0.8
		c-0.3-0.2-0.7-0.1-0.9,0.2l-7.9,10.9c-0.1,0.1-0.2,0.2-0.3,0.2L310,263.8c-0.1,0-0.2,0-0.3,0l-3-0.5c-0.3-0.1-0.6-0.3-0.6-0.7
		l0.9-13.3c0-0.3,0.3-0.6,0.7-0.6l2.1,0.2c0.4,0,0.7,0.3,0.6,0.7l0,0c0,0.3,0.3,0.6,0.6,0.7l2.7,0.2c0.4,0,0.7-0.2,0.7-0.6l0-0.4
		c0-0.3,0.3-0.6,0.7-0.6l8.8,0.7c0.4,0,0.7-0.2,0.7-0.6l0.6-9c0-0.3-0.3-0.6-0.6-0.7l-13.4-1c-0.4,0-0.7,0.2-0.7,0.6l-0.3,3.5
		c0,0.3-0.3,0.6-0.7,0.6l-2-0.1c-0.4,0-0.7-0.3-0.6-0.7l1.2-16.5c0-0.2,0.1-0.4,0.3-0.5l14.3-7.7
		C323.2,217.4,323.5,217.5,323.7,217.7z"/>
	<path style="fill:#3580AF;" d="M315.3,206.7l-11.8,6.7c-0.1,0.1-0.3,0.1-0.4,0.1l-19.3-1.4c-0.4,0-0.7-0.3-0.6-0.7l1.7-17.8
		c0-0.2,0.2-0.4,0.4-0.5l15-6.1c0.1-0.1,0.3-0.1,0.5,0l15.2,4.3c0.3,0.1,0.5,0.3,0.5,0.6l-0.6,14.4
		C315.6,206.4,315.5,206.6,315.3,206.7z"/>
	<path style="fill:#3580AF;" d="M51.6,198.2l16.5,3.1c0.4,0.1,0.6,0.4,0.5,0.7l-1.9,9c-0.1,0.3,0.2,0.7,0.5,0.7l12.9,2.6
		c0.4,0.1,0.8-0.2,0.8-0.6l0.1-1.5c0-0.4,0.4-0.6,0.8-0.6l12.6,2.6c0.5,0.1,0.9-0.3,0.8-0.7l-2.6-10.7c0-0.2,0-0.3,0.1-0.5l6.3-9.8
		c0.2-0.4,0-0.9-0.5-0.9l-44.2-8.4c-0.4-0.1-0.7,0.2-0.8,0.5l-2.4,13.7C51,197.8,51.2,198.1,51.6,198.2z"/>
	<path style="fill:#3580AF;" d="M92.7,167.6l10.6,2c0.4,0.1,0.6,0.4,0.5,0.7l-3.5,20c-0.1,0.4-0.4,0.6-0.8,0.5l-36.3-7.2
		c-0.4-0.1-0.6-0.4-0.5-0.7l0.7-3.8c0.1-0.3,0.4-0.6,0.8-0.5l10.2,1.9c0.4,0.1,0.7-0.1,0.8-0.5l0.4-1.7c0.1-0.3,0.4-0.5,0.8-0.5
		l14.3,2.4c0.4,0.1,0.7-0.2,0.8-0.5l0.3-2c0.1-0.3-0.2-0.7-0.5-0.7l-0.4-0.1c-0.4-0.1-0.6-0.4-0.5-0.7l1.5-8.1
		C91.9,167.8,92.3,167.5,92.7,167.6z"/>
	<path style="fill:#3580AF;" d="M145.6,133.4l-1.6,9.9c-0.1,0.4-0.4,0.6-0.8,0.5l-5.4-1c-0.4-0.1-0.6-0.4-0.6-0.7l1.5-9.9
		c0.1-0.4,0.4-0.6,0.8-0.5l5.5,1C145.4,132.8,145.6,133.1,145.6,133.4z"/>
	<path style="fill:#3580AF;" d="M171.4,118.1l9.1,1.7c0.4,0.1,0.6,0.4,0.5,0.7l-5.7,33.4c-0.1,0.5-0.7,0.7-1.1,0.4l-8.7-6.7
		c-0.2-0.1-0.3-0.4-0.2-0.6l5.2-28.3C170.6,118.3,171,118,171.4,118.1z"/>
	<path style="fill:#3580AF;" d="M199.8,103l-1.9,12.1c-0.1,0.3,0.2,0.7,0.6,0.7l2.6,0.4c0.4,0.1,0.6,0.4,0.6,0.7l-3.1,17.3
		c-0.1,0.3,0.2,0.6,0.5,0.7l1.3,0.3c0.4,0.1,0.6,0.4,0.5,0.7l-3.5,18.6c0,0.1,0,0.2,0,0.3l0.5,1.2c0.1,0.3,0.5,0.5,0.8,0.4l6.6-1.9
		c0.1,0,0.2,0,0.3,0l12.6,0.8c0.4,0,0.7-0.2,0.7-0.5l2.5-19c0-0.3-0.2-0.7-0.6-0.7l-8.4-0.9c-0.4,0-0.6-0.4-0.6-0.7l1.8-16.4
		c0-0.2,0-0.3-0.2-0.5L201,102.7C200.6,102.3,199.8,102.5,199.8,103z"/>
	<path style="fill:#3580AF;" d="M236.4,137.7l-2.4,17.9c0,0.3-0.4,0.6-0.7,0.5l-12.9-1c-0.4,0-0.7-0.4-0.6-0.7l2.8-18.6
		c0.1-0.3,0.4-0.6,0.8-0.5l12.5,1.7C236.2,137,236.5,137.3,236.4,137.7z"/>
	<path style="fill:#3580AF;" d="M245.8,138.4l-1.3,17.5c0,0.3-0.3,0.6-0.7,0.6l-8.1-0.6c-0.4,0-0.7-0.4-0.6-0.7l2.5-18
		c0-0.3,0.4-0.6,0.8-0.5l6.8,1.1C245.6,137.7,245.8,138,245.8,138.4z"/>
	<path style="fill:#3580AF;" d="M291.4,139.8l7.6-0.5c0.4,0,0.7,0.2,0.7,0.6l1.2,17.5c0,0.3-0.2,0.6-0.6,0.7l-7.3,0.6
		c-0.4,0-0.7-0.2-0.7-0.6l-1.5-17.5C290.8,140.1,291.1,139.8,291.4,139.8z"/>
	<path style="fill:#3580AF;" d="M329.7,146.2c2.3-0.2,10.2-0.8,12.6-1.1c0.4,0,0.7,0.2,0.7,0.6l0.9,15.3c0,0.5-0.5,0.8-1,0.6
		l-13.1-5.8c-0.2-0.1-0.4-0.3-0.4-0.5l-0.4-8.4C329.1,146.5,329.4,146.3,329.7,146.2z"/>
	<path style="fill:#3580AF;" d="M159.5,99l27,2c0.6,0,1,0.5,0.9,1l-3.1,16.5c-0.1,0.5-0.6,0.8-1.1,0.7l-12.6-2.8
		c-0.5-0.1-1,0.2-1.1,0.7l-5.5,28.6c-0.1,0.5-0.6,0.8-1.1,0.7l-12.5-2.3c-0.5-0.1-0.9-0.6-0.8-1l9-43.5
		C158.6,99.3,159.1,99,159.5,99z"/>
	<path style="fill:#3580AF;" d="M144.3,99.8l-2.5,15.2c-0.1,0.5-0.6,0.8-1.1,0.7l-10.3-2.1c-0.5-0.1-1,0.2-1.1,0.7l-2.2,14
		c-0.1,0.5,0.3,0.9,0.7,1l9.1,1.9c0.5,0.1,0.8,0.6,0.7,1l-1.7,9c-0.1,0.5-0.6,0.8-1.1,0.7l-12.1-2.3c-0.3-0.1-0.6,0-0.8,0.2
		l-3.9,2.9c-0.4,0.3-1.1,0.2-1.4-0.2l-6.1-8.3c-0.3-0.4-0.2-0.8,0.1-1.1l4.2-3.6c0.2-0.2,0.3-0.5,0.3-0.8l-3.5-16.4
		c0-0.1,0-0.2,0-0.3l2.6-14.6c0.1-0.4,0.5-0.8,1-0.7l28.1,2.1C144,98.8,144.4,99.3,144.3,99.8z"/>
	<path style="fill:#3580AF;" d="M60,155.1l6,1.2c0.5,0.1,1-0.2,1.1-0.7l2.7-14.8c0.1-0.5,0.6-0.8,1.1-0.7l37.5,7.9
		c0.3,0.1,0.5,0,0.8-0.1l5.9-4c0.4-0.3,0.5-0.8,0.2-1.2l-5.9-7.5c-0.3-0.4-0.9-0.5-1.3-0.2l-6.1,3.8c-0.3,0.2-0.8,0.2-1.1,0
		l-13.2-9.3c-0.1-0.1-0.2-0.1-0.4-0.2l-22-4.2c-0.5-0.1-1,0.2-1.1,0.7l-4.9,28.4C59.2,154.5,59.5,155,60,155.1z"/>
	<path style="fill:#3580AF;" d="M72.7,142.1l34.3,7.2c0.5,0.1,0.8,0.5,0.7,1l-2.4,14.4c-0.1,0.5-0.6,0.8-1.1,0.7l-10-1.9
		c-0.5-0.1-0.8-0.5-0.8-1l0.4-3.1c0.1-0.5-0.3-0.9-0.8-1L70.2,154c-0.5-0.1-0.8-0.6-0.8-1l2.1-10.2C71.6,142.3,72.2,142,72.7,142.1z
		"/>
	<path style="fill:#3580AF;" d="M47.3,226.4l33.1,6.3c0.5,0.1,1-0.2,1.1-0.7l2.3-13.4c0.1-0.5,0.6-0.8,1.1-0.7l11.9,2.1
		c0.5,0.1,0.9,0.5,0.8,1l-5.4,30.7c-0.1,0.3-0.3,0.6-0.7,0.7c-2.9,0.7-15.6,3.7-15.8,3.7c-0.3,0-27.7-5.4-31.2-6.1
		c-0.2,0-0.5-0.2-0.6-0.4l-1.3-1.8c-0.1-0.2-0.2-0.4-0.1-0.6l3.8-20.1C46.3,226.7,46.8,226.3,47.3,226.4z"/>
	<path style="fill:#3580AF;" d="M343.9,146.1l1,14.3c0,0.5,0.5,0.9,1.1,0.8l23.1-2.1c0.5,0,0.9-0.5,0.8-0.9l-1.9-21.5
		c0-0.5-0.5-0.8-1-0.8l-10.7,0.3c-0.5,0-0.9,0.4-0.9,0.9l0.1,6.4c0,0.5-0.4,0.8-0.8,0.9l-10,0.9
		C344.3,145.3,343.9,145.7,343.9,146.1z"/>
	<path style="fill:#3580AF;" d="M296.9,104.8l1.4,17.2c0,0.5,0.5,0.9,1,0.8l46.2-3.2l3.5-0.2c0.5,0,0.9-0.4,0.9-0.9l-1.2-15.2
		c0-0.4-0.3-0.7-0.6-0.8l-7.5-2.5c-0.1,0-0.3-0.1-0.4,0l-42.5,3.9C297.2,103.9,296.9,104.3,296.9,104.8z"/>
	<path style="fill:#3580AF;" d="M303.2,157.3l11.7-0.9c0.2,0,0.3-0.1,0.4-0.1l3.3-1.9c0.1-0.1,0.3-0.1,0.5-0.1l4.8-0.1
		c0.5,0,0.9-0.4,0.9-0.9l-2.4-30.5c0-0.5-0.5-0.9-1-0.8l-3.6,0.3c-0.5,0-0.9,0.4-0.9,0.9l0.7,11.7c0,0.5-0.4,0.9-0.9,0.9l-7.6,0.4
		c-0.5,0-0.9,0.4-0.9,0.9l0.1,1c0,0.5-0.4,0.9-0.9,0.9l-5.7,0.3c-0.5,0-0.9,0.4-0.9,0.9l1.4,16.3C302.2,157,302.7,157.3,303.2,157.3
		z"/>
	<path style="fill:#3580AF;" d="M180.7,138.1l13,2.3c0.5,0.1,0.9,0.5,0.8,1l-2.9,16.6c-0.1,0.5-0.6,0.8-1.1,0.7l-12.9-2.6
		c-0.5-0.1-0.8-0.5-0.7-1l2.8-16.2C179.7,138.3,180.2,138,180.7,138.1z"/>
	<path style="fill:#3580AF;" d="M60,319l6.8-1.1c0.4-0.1,0.6-0.4,0.5-0.7l-1.4-11.3c0-0.4,0.2-0.7,0.6-0.7l2.5-0.4
		c0.4-0.1,0.7,0.2,0.8,0.6l0.1,0.6c0,0.4,0.4,0.6,0.8,0.6l1.9-0.3c0.3-0.1,0.6-0.4,0.5-0.7l-0.2-1.7c0-0.4,0.2-0.7,0.6-0.7l16.4-2
		c0.4,0,0.7,0.2,0.7,0.6l1.7,13.3c0,0.4,0.4,0.6,0.7,0.6l21-2.7c0.4,0,0.6-0.4,0.6-0.7l-2-16.2c0-0.1-0.1-0.2-0.1-0.3l-10.4-13
		c-0.1-0.2-0.4-0.3-0.6-0.2l-29.1,4c-0.2,0-0.3,0.1-0.4,0.3l-14.1,18.7c-0.1,0.1-0.1,0.3-0.1,0.5l1.5,12.6
		C59.2,318.8,59.6,319,60,319z"/>
	<path style="fill:#3580AF;" d="M62,338.5l53.1-7.3c0.4,0,0.6-0.4,0.6-0.7l-1.5-15c0-0.4-0.4-0.6-0.7-0.6l-29,3.6
		c-0.4,0-0.6,0.4-0.6,0.7l0.1,1.7c0,0.3-0.2,0.6-0.5,0.7l-6.5,1.1c-0.4,0.1-0.8-0.2-0.8-0.7l0,0c0-0.4-0.4-0.7-0.8-0.7L65.3,323
		c-0.4,0.1-0.7-0.2-0.8-0.6l-0.2-1.7c-0.1-0.4-0.4-0.6-0.8-0.6l-4,0.8c-0.3,0.1-0.6,0.4-0.5,0.7l2.4,16.2
		C61.4,338.3,61.7,338.6,62,338.5z"/>
	<path style="fill:#3580AF;" d="M140.5,284.2l-5.7,11.3c-0.1,0.1-0.1,0.3-0.1,0.4l2,15.5c0,0.4,0.4,0.6,0.8,0.6l20.9-3
		c0.4-0.1,0.6-0.4,0.6-0.7l-1.6-12.7c0-0.4,0.2-0.7,0.6-0.7l16.3-1.9c0.4,0,0.7,0.2,0.7,0.6l0.1,0.9c0,0.4,0.4,0.6,0.7,0.6l5.3-0.6
		v-1.3l5.6-0.5c0.3,0,0.7,0.2,0.7,0.6l1.7,10.8c0.1,0.4,0.4,0.6,0.7,0.6l6.6-0.9c0.3,0,0.5-0.3,0.6-0.6l0.4-5.6c0-0.1,0-0.3-0.1-0.4
		l-10.5-18.3c-0.1-0.2-0.4-0.4-0.7-0.3l-45,5.6C140.8,283.8,140.6,284,140.5,284.2z"/>
	<path style="fill:#3580AF;" d="M139.6,330.8l55.5-7.6c0.3,0,0.6-0.3,0.6-0.6l0.8-17.1c0-0.4-0.4-0.8-0.8-0.7l-14.7,2.4
		c-0.4,0.1-0.6,0.4-0.5,0.8l0.3,1.3c0.1,0.4-0.2,0.8-0.5,0.8l-18.4,2.8c-0.3,0.1-0.7-0.2-0.7-0.5l-0.6-2.2c-0.1-0.3-0.4-0.5-0.7-0.5
		l-22.5,3.7c-0.4,0.1-0.6,0.4-0.5,0.7l2.1,16.1C138.9,330.6,139.3,330.8,139.6,330.8z"/>
	<path style="fill:#3580AF;" d="M236.3,304.4l6.8,0.4c0.5,0,0.9,0.5,0.9,1v1c0,0.5,0.4,1,0.9,1l41.4,2.9c0.5,0,0.9,0.5,0.9,1
		l-0.5,14.1c0,0.6-0.5,1-1.1,1l-50.5-3.1c-0.5,0-1-0.5-0.9-1l0.9-17.3C235.3,304.8,235.8,304.4,236.3,304.4z"/>
	<path style="fill:#3580AF;" d="M267.7,291l20.2,1.3c0.5,0,1,0.5,0.9,1.1l-0.9,15.2c0,0.6-0.5,1-1.1,0.9l-20.1-1.4
		c-0.5,0-1-0.5-0.9-1l0.8-15.1C266.7,291.4,267.1,291,267.7,291z"/>
	<path style="fill:#3580AF;" d="M236.6,276l45.4,3.1c0.3,0,0.6,0.2,0.8,0.5l6.1,10c0.1,0.2,0.2,0.4,0.1,0.6l-0.1,0.9l-39-2.4
		c-0.6,0-1,0.4-1.1,0.9l-0.1,2c0,0.5-0.5,1-1,0.9l-11.8-0.6c-0.5,0-1,0.4-1,0.9l-1.8,29.4c0,0.5-0.5,1-1,0.9l-2.6-0.1
		c-0.5,0-0.9-0.4-0.9-0.9l-3.3-26.1c0-0.2,0-0.4,0.1-0.6l10.3-19.1C235.9,276.2,236.2,276,236.6,276z"/>
	<path style="fill:#3580AF;" d="M284.3,106l1.3,16.6c0,0.5-0.4,1-0.9,1.1l-27.9,3.1c-0.5,0.1-0.9,0.5-0.9,1.1l2.3,32.5
		c0.1,0.8-0.7,1.3-1.4,1l-10.5-4.9c-0.4-0.2-0.6-0.6-0.6-1l1.9-34.2c0-0.3,0.2-0.6,0.4-0.7l17.3-13.6c0.2-0.1,0.3-0.2,0.5-0.2
		l17.4-1.6C283.8,105,284.3,105.5,284.3,106z"/>
	<path style="fill:#3580AF;" d="M260.6,161.7l10.5-1c0.5-0.1,0.9-0.5,0.9-1.1l-2.1-32.5c0-0.6-0.6-1-1.1-0.9l-10.4,1.5
		c-0.5,0.1-0.9,0.5-0.9,1.1l2,32C259.5,161.3,260,161.7,260.6,161.7z"/>
	<path style="fill:#3580AF;" d="M286.7,154.7l0.3,3.7c0,0.5-0.4,1-0.9,1.1l-11.6,1.1c-0.6,0.1-1.1-0.4-1.1-1l-0.2-4
		c0-0.5,0.4-1,0.9-1l11.4-0.9C286.1,153.7,286.6,154.2,286.7,154.7z"/>
	<path style="fill:#2E3B80;" d="M152.2,216.2l11.8,2.3c0.5,0.1,0.9,0.6,0.8,1.1l-2.2,14.1c-0.1,0.6-0.6,0.9-1.2,0.8l-11.7-2.4
		c-0.5-0.1-0.9-0.6-0.8-1.1l2-14C151.1,216.4,151.7,216.1,152.2,216.2z"/>
	<path style="fill:#2E3B80;" d="M57.7,168l5.6,1.2c0.5,0.1,0.9,0.6,0.8,1.2l-2.5,12c-0.1,0.6-0.7,0.9-1.2,0.8l-5.2-1.3
		c-0.5-0.1-0.8-0.6-0.7-1.1l2.1-11.9C56.6,168.3,57.1,167.9,57.7,168z"/>
	<path style="fill:#2E3B80;" d="M274.2,141.9l10.2-0.8c0.6,0,1,0.4,1.1,0.9l0.5,9.1c0,0.5-0.4,1-0.9,1.1l-10.2,0.7
		c-0.6,0-1-0.4-1.1-0.9l-0.5-9C273.2,142.5,273.6,142,274.2,141.9z"/>
</g>
</svg>
