<?xml version="1.0" encoding="utf-8"?>
<!-- Generator: Adobe Illustrator 23.0.1, SVG Export Plug-In . SVG Version: 6.00 Build 0)  -->
<svg version="1.1" id="图层_1" xmlns="http://www.w3.org/2000/svg" xmlns:xlink="http://www.w3.org/1999/xlink" x="0px" y="0px"
	 viewBox="0 0 580 428" style="enable-background:new 0 0 580 428;" xml:space="preserve">
<g>
	<g>
		<path style="fill:#2C3B80;" d="M495.3,116.1l3.4,0.2c0.6,0,1,0.5,1,1.1l-0.2,2.7c0,0.6-0.6,1-1.2,0.9l-3.4-0.2c-0.6,0-1-0.5-1-1.1
			l0.2-2.7C494.2,116.5,494.7,116.1,495.3,116.1z"/>
		<path style="fill:#2C3B80;" d="M503.8,179.2l3.4,0.2c0.6,0,1,0.5,1,1.1l-0.2,2.7c0,0.6-0.6,1-1.2,0.9l-3.4-0.2c-0.6,0-1-0.5-1-1.1
			l0.2-2.7C502.7,179.6,503.2,179.2,503.8,179.2z"/>
		<path style="fill:#3580AF;" d="M328.5,200.1l19.8-0.5c0.6,0,1-0.4,1-1l1.3-25.4c0-0.6,0.5-1,1.1-1l4.3,0.2c0.6,0,1.1-0.4,1.1-1
			l1.5-29.8c0-0.6-0.4-1.1-1-1.1l-27-1.3c-0.5,0-1,0.3-1.1,0.9l-3.3,19.1c0,0.1,0,0.1,0,0.2l1.1,39.6
			C327.4,199.6,327.9,200.1,328.5,200.1z"/>
		<path style="fill:#3580AF;" d="M383.1,101.3l0.4,0.9c0.2,0.5,0,1.1-0.5,1.4l-7,3c-0.4,0.2-0.6,0.5-0.6,0.9l-0.6,11.3
			c0,0.6,0.4,1.1,1,1.1l1.7,0.1c0.2,0,0.3,0,0.5-0.1l10.8-4.8c0.5-0.2,1.1,0,1.4,0.4l0.8,1.4c0.1,0.2,0.2,0.4,0.1,0.6l-0.3,6.4
			c0,0.6,0.4,1.1,1,1.1l3.6,0.2c0.6,0,1,0.5,1,1.1l-0.7,13.3c0,0.6-0.5,1-1.1,1l-63.4-3c-0.6,0-1.1-0.6-1-1.2l2.3-14.3
			c0.1-0.4,0.3-0.6,0.6-0.8l48.7-20.4C382.3,100.5,382.9,100.8,383.1,101.3z"/>
		<path style="fill:#3580AF;" d="M388.6,98.6l6.8,15.1c0.2,0.4,0.5,0.6,0.9,0.6l55.2,2.6c0.6,0,1.1-0.4,1.1-1l1.7-41.7
			c0-0.6-0.5-1.1-1.2-1.1c-2.8,0.2-11.1,1.5-28.2,9c-18.7,8.2-32.2,13.6-35.8,15C388.7,97.5,388.4,98.1,388.6,98.6z"/>
		<path style="fill:#3580AF;" d="M482.1,104.7l32,1.5c0.4,0,0.7,0.2,0.9,0.6l4.6,9.4c0.2,0.4,0.6,0.6,1,0.6l3.2-0.1
			c0.7,0,1.2-0.7,1-1.4c-2-5.3-10.7-25.5-32.2-35.2c-9-4-22.3-7.8-30.8-7.3l-3.6,0.2c-0.6,0-1,0.5-1,1l-1.9,42.3c0,0.6,0.4,1,1,1.1
			l22.8,1.1c0.6,0,1.1-0.4,1.1-1l0.7-11.7C481,105.1,481.5,104.6,482.1,104.7z"/>
		<path style="fill:#3580AF;" d="M519.2,133.9l0.7-13.9c0-0.5,0.5-0.9,1-1l4.2-0.3c0.5,0,0.9,0.2,1.1,0.7c1.3,3.2,5.7,17.7-2.6,47.1
			c-0.1,0.5-0.6,0.8-1.1,0.8l-3.9-0.2c-0.6,0-1-0.5-1-1.1l0.4-8c0-0.6-0.4-1.1-1-1.1l-38.3-1.8c-0.6,0-1-0.5-1-1.1l1.1-21.2
			c0-0.6,0.5-1,1.1-1l12.7,0.6"/>
		<path style="fill:#3580AF;" d="M472,155.9l-0.2,3.5c0,0.6,0.4,1.1,1,1.1l19.2,0.9c0.6,0,1,0.5,1,1.1l-1.2,22.7c0,0.6-0.5,1-1.1,1
			l-34.8-1.7c-0.6,0-1-0.5-1-1.1l1.4-27.9c0-0.6,0.5-1,1.1-1l13.5,0.3C471.5,154.8,472,155.3,472,155.9z"/>
		<path style="fill:#3580AF;" d="M451.8,154.5l-1.7,32.5c0,0.6-0.5,1-1.1,1l-21.5-1c-0.6,0-1-0.5-1-1.1l0.1-1.9c0-0.6-0.4-1.1-1-1.1
			l-15.9-0.8c-0.6,0-1.1,0.4-1.1,1l-0.4,7.7c0,0.6-0.5,1-1.1,1l-35.2-1.7c-0.6,0-1-0.5-1-1.1l2-38c0-0.6,0.5-1,1.1-1l76.9,3.4
			C451.4,153.5,451.9,154,451.8,154.5z"/>
	</g>
</g>
</svg>
