<?xml version="1.0" encoding="utf-8"?>
<!-- Generator: Adobe Illustrator 23.0.1, SVG Export Plug-In . SVG Version: 6.00 Build 0)  -->
<svg version="1.1" id="图层_1" xmlns="http://www.w3.org/2000/svg" xmlns:xlink="http://www.w3.org/1999/xlink" x="0px" y="0px"
	 viewBox="0 0 580 428" style="enable-background:new 0 0 580 428;" xml:space="preserve">
<path style="fill:#2C3B80;" d="M387.5,211.2l3.7,0.1c0.4,0,0.7,0.3,0.7,0.7l-0.1,3.2c0,0.4-0.3,0.7-0.7,0.7l-3.7-0.1
	c-0.4,0-0.7-0.3-0.7-0.7l0.1-3.2C386.8,211.5,387.1,211.2,387.5,211.2z"/>
<g>
	<path style="fill:#3580AF;" d="M366.7,191.9l33.2,0.9c1.2,0,2.3-0.9,2.3-2.2l0.2-5.8c0-1.2,1.1-2.2,2.3-2.2l42.5,1.2
		c1.2,0,2.3-0.9,2.3-2.2l0-1.4c0-1.2,1.1-2.2,2.3-2.2l15.2,0.4c1.2,0,2.2,1.1,2.2,2.3l0,1.7c0,1.2,0.9,2.3,2.2,2.3l2.6,0.1
		c1.2,0,2.3-0.9,2.3-2.2l0.1-5.2c0-1.2,1.1-2.2,2.3-2.2l13.4,0.4c1.2,0,2.2,1.1,2.2,2.3l-0.4,15.2c0,1.2,0.9,2.3,2.2,2.3l5.5,0.2
		c1.2,0,2.3-0.9,2.3-2.2l0.3-9.9c0-1.2,1.1-2.2,2.3-2.2l2,0.1c1.2,0,2.3-0.9,2.3-2.2l0.2-6.1c0-1.2,1.1-2.2,2.3-2.2l2.9,0.1
		c1.2,0,2.2,1.1,2.2,2.3l0,0.5c0,1.2,0.9,2.3,2.2,2.3l8.2,0.2c1,0,1.8-0.6,2.2-1.5c3.3-9.2,18.7-57.9-12.5-87.5
		c-0.1-0.1-0.2-0.1-0.2-0.2c-9.5-6.9-32.7-19-51.2-12.3c-17.3,6.3-87.5,40.3-96.9,44.9c-0.7,0.3-1.1,0.9-1.2,1.7l-5.3,33.5
		c0,0.1,0,0.3,0,0.4l1.3,34.2C364.6,190.9,365.5,191.8,366.7,191.9z"/>
	<path style="fill:#3580AF;" d="M385.1,222l8.8,0.2c1.2,0,2.2,1.1,2.2,2.3v0c0,1.2,0.9,2.3,2.2,2.3l0.8,0c1.2,0,2.3-0.9,2.3-2.2
		l0.5-18.2c0-1.2,1.1-2.2,2.3-2.2l14.1,0.4c1.2,0,2.2,1.1,2.2,2.3l0,0.4c0,1.2,0.9,2.3,2.2,2.3l4.5,0.1c1.2,0,2.3-0.9,2.3-2.2l0-0.4
		c0-1.2,1.1-2.2,2.3-2.2l4.3,0.1c1.2,0,2.2,1.1,2.2,2.3l-1.5,51.3c0,1.2,0.9,2.3,2.2,2.3l68.1,1.9c1.2,0,2.3-0.9,2.3-2.2l1.4-49.1
		c0-1.2,1.1-2.2,2.3-2.2l1.6,0c1.2,0,2.2,1.1,2.2,2.3l-3,107.8c0,1.2-1.1,2.2-2.3,2.2l-56.9-1.6c-0.2,0-0.5,0-0.7,0.1l-54.2,15.9
		c-0.2,0.1-0.5,0.1-0.7,0.1l-26-0.7c-1,0-1.8-0.7-2.1-1.6l-11.2-35.6c-0.3-1,0.1-2.1,1-2.6c7.9-4.5,42.1-27,22.2-70.6
		C382.3,223.7,383.5,222,385.1,222z"/>
</g>
</svg>
