<?xml version="1.0" encoding="utf-8"?>
<!-- Generator: Adobe Illustrator 23.0.1, SVG Export Plug-In . SVG Version: 6.00 Build 0)  -->
<svg version="1.1" id="图层_1" xmlns="http://www.w3.org/2000/svg" xmlns:xlink="http://www.w3.org/1999/xlink" x="0px" y="0px"
	 viewBox="0 0 580 428" style="enable-background:new 0 0 580 428;" xml:space="preserve">
<g>
	<g>
		<path style="fill:#2C3B80;" d="M391.7,211.6l2.9,0.2c0.5,0,0.9,0.5,0.9,1l-0.2,2.4c0,0.5-0.5,0.9-1,0.9l-2.9-0.2
			c-0.5,0-0.9-0.5-0.9-1l0.2-2.4C390.8,211.9,391.2,211.5,391.7,211.6z"/>
		<path style="fill:#3580AF;" d="M360.5,115.7l-4.5,36.7c0,0,0,0.1,0,0.1l1.5,49.2c0,0.3,0.1,0.5,0.4,0.7l3.7,2.8
			c0.4,0.3,1,0.2,1.3-0.1l23.3-28.2c0.1-0.1,0.2-0.3,0.2-0.4l11.7-75.9c0.1-0.7-0.6-1.3-1.3-1L361.1,115
			C360.8,115.1,360.6,115.4,360.5,115.7z"/>
		<path style="fill:#3580AF;" d="M378,226c3.3,7.6,17.1,45.9-26.3,71.5c-0.4,0.2-0.5,0.7-0.4,1.1l11.7,38.4c0.1,0.4,0.5,0.6,0.8,0.6
			l28.1,1c0.5,0,0.9-0.4,0.9-0.9l0.6-17.9c0-0.5,0.4-0.9,1-0.9l117.5,4.4c0.5,0,0.9-0.4,1-0.9l1.9-56.9c0-0.5-0.4-0.9-0.9-0.9
			l-66.1-2.3c-0.5,0-0.9-0.4-0.9-0.9l1.9-55.7c0-0.5-0.4-0.9-0.9-0.9l-50-1.7c-0.5,0-0.9,0.4-0.9,0.9l-0.7,20.7c0,0.5-0.4,0.9-1,0.9
			l-16.5-0.7C378.2,224.7,377.8,225.4,378,226z"/>
		<path style="fill:#3580AF;" d="M402.1,101.2c0.1-0.2,0.2-0.3,0.4-0.4c4.2-1.9,56.9-25.2,59.9-26.3c3.1-1.1,18.1-4.3,29.1-0.8
			c11.1,3.4,29.1,11.2,37.3,27.9c7.9,16.2,7,29.5,6.9,30.3c0,0,0,0.1,0,0.1l-12.3,70.4c-0.1,0.4-0.5,0.8-0.9,0.8l-149.1-3.7
			c-0.7,0-1.2-0.9-0.7-1.5l4.4-5.7c0.2-0.2,0.5-0.4,0.7-0.4l38.9,0.7c0.5,0,0.9-0.4,0.9-0.9l0.3-7.9c0-0.5,0.4-0.9,0.9-0.9l4.9,0.2
			c0.5,0,0.9-0.4,0.9-0.9l0-0.8c0-0.5,0.4-0.9,0.9-0.9l5.1,0.2c0.5,0,0.9-0.4,0.9-0.9l0.7-20.4l1.9-54.4c0-0.5-0.4-0.9-0.9-0.9
			l-30.9-0.9c-0.7,0-1.1-0.8-0.8-1.4L402.1,101.2z"/>
		<path style="fill:#3580AF;" d="M399.9,105.5l30.5,0.5c0.5,0,0.9,0.4,0.9,0.9l-1.7,50.1c0,0.5-0.4,0.9-0.9,0.9l-27.6-0.9
			c-0.5,0-0.9,0.4-0.9,0.9l-0.4,11.3c0,0.5-0.4,0.9-0.9,0.9l-8.1-0.3c-0.5,0-1-0.5-0.9-1.1l9.2-62.4
			C399.1,105.8,399.5,105.5,399.9,105.5z"/>
		<path style="fill:#3580AF;" d="M389.6,171.7l10.9,0.4c0.5,0,0.9-0.4,0.9-0.9l0.4-11.4c0-0.5,0.4-0.9,0.9-0.9l26.9,0.9
			c0.5,0,0.9,0.4,0.9,0.9l-0.6,17.5c0,0.5-0.4,0.9-0.9,0.9l-5.4-0.2c-0.5,0-0.9,0.4-0.9,0.9l0,0.4c0,0.5-0.4,0.9-0.9,0.9l-4.9-0.2
			c-0.5,0-0.9,0.4-0.9,0.9l-0.3,8c0,0.5-0.4,0.9-0.9,0.9l-34.8-1.2c-0.5,0-0.9-0.4-0.9-0.9l0-0.8c0-0.2,0.1-0.4,0.2-0.6l8.2-9.7
			c0.1-0.1,0.2-0.3,0.2-0.4l0.9-4.7C388.8,172,389.2,171.7,389.6,171.7z"/>
	</g>
</g>
</svg>
