<?xml version="1.0" encoding="utf-8"?>
<!-- Generator: Adobe Illustrator 23.0.1, SVG Export Plug-In . SVG Version: 6.00 Build 0)  -->
<svg version="1.1" id="B1" xmlns="http://www.w3.org/2000/svg" xmlns:xlink="http://www.w3.org/1999/xlink" x="0px" y="0px"
	 viewBox="0 0 580.1 428.6" style="enable-background:new 0 0 580.1 428.6;" xml:space="preserve">
<g>
	<path style="fill:#2C3B80;" d="M209.4,155.1H229c3.1,0,5.7,2.5,5.7,5.7v32.3c0,3.1-2.5,5.7-5.7,5.7h-19.7c-3.1,0-5.7-2.5-5.7-5.7
		v-32.4C203.7,157.6,206.2,155.1,209.4,155.1z"/>
	<path style="fill:#2C3B80;" d="M243.5,155.1h19.7c3.1,0,5.7,2.5,5.7,5.7v32.3c0,3.1-2.5,5.7-5.7,5.7h-19.7c-3.1,0-5.7-2.5-5.7-5.7
		v-32.4C237.8,157.6,240.3,155.1,243.5,155.1z"/>
	<path style="fill:#2C3B80;" d="M277.2,155.1h19.7c3.1,0,5.7,2.5,5.7,5.7v32.3c0,3.1-2.5,5.7-5.7,5.7h-19.7c-3.1,0-5.7-2.5-5.7-5.7
		v-32.4C271.5,157.6,274,155.1,277.2,155.1z"/>
	<g>
		<path style="fill:#2E3B80;" d="M311.6,155.1H367c3.1,0,5.7,2.5,5.7,5.7v32.3c0,3.1-2.5,5.7-5.7,5.7h-55.5c-3.1,0-5.7-2.5-5.7-5.7
			v-32.4C305.9,157.6,308.4,155.1,311.6,155.1z"/>
	</g>
	<path style="fill:#2C3B80;" d="M209.4,229.6H229c3.1,0,5.7,2.5,5.7,5.7v32.4c0,3.1-2.5,5.7-5.7,5.7h-19.7c-3.1,0-5.7-2.5-5.7-5.7
		v-32.4C203.7,232.1,206.2,229.6,209.4,229.6z"/>
	<path style="fill:#2C3B80;" d="M243.7,229.9h19.6c3.1,0,5.7,2.5,5.7,5.7V268c0,3.1-2.5,5.7-5.7,5.7h-19.7c-3.1,0-5.7-2.5-5.7-5.7
		v-32.4C238,232.4,240.5,229.9,243.7,229.9z"/>
	<path style="fill:#2C3B80;" d="M277.2,229.6h19.6c3.1,0,5.7,2.5,5.7,5.7v32.4c0,3.1-2.5,5.7-5.7,5.7h-19.7c-3.1,0-5.7-2.5-5.7-5.7
		v-32.4C271.5,232.1,274,229.6,277.2,229.6z"/>
	<path style="fill:#2E3B80;" d="M311.6,229.6H367c3.1,0,5.7,2.5,5.7,5.7v32.4c0,3.1-2.5,5.7-5.7,5.7h-55.5c-3.1,0-5.7-2.5-5.7-5.7
		v-32.4C305.9,232.1,308.4,229.6,311.6,229.6z"/>
	<path style="fill:#3580AF;" d="M516.2,382.9H405.8c-3.1,0-5.7-2.5-5.7-5.7v-56.4c0-3.1,2.5-5.7,5.7-5.7h110.4
		c3.1,0,5.7,2.5,5.7,5.7v56.4C521.8,380.4,519.3,382.9,516.2,382.9z"/>
	<path style="fill:#3580AF;" d="M391.2,315.2H185.9v-48.4c0-3.1-2.5-5.7-5.7-5.7H63.9c-3.1,0-5.7,2.5-5.7,5.7v110.4
		c0,3.1,2.5,5.7,5.7,5.7h116.3c0.2,0,0.5,0,0.7,0h210.3c3.1,0,5.7-2.5,5.7-5.7v-56.3C396.8,317.8,394.3,315.2,391.2,315.2z"/>
	<path style="fill:#3580AF;" d="M180.1,258H86.2c-3.1,0-5.7-2.5-5.7-5.7v-77.1c0-3.1,2.5-5.7,5.7-5.7h93.9c3.1,0,5.7,2.5,5.7,5.7
		v77.1C185.8,255.5,183.2,258,180.1,258z"/>
	<path style="fill:#3580AF;" d="M229,125.7H63.9c-3.1,0-5.7-2.5-5.7-5.7V51.4c0-3.1,2.5-5.7,5.7-5.7H229c3.1,0,5.7,2.5,5.7,5.7V120
		C234.7,123.2,232.2,125.7,229,125.7z"/>
	<path style="fill:#3580AF;" d="M333.6,91.3h-90.3c-3.1,0-5.7-2.5-5.7-5.7V51.4c0-3.1,2.5-5.7,5.7-5.7h90.3c3.1,0,5.7,2.5,5.7,5.7
		v34.2C339.2,88.7,336.7,91.3,333.6,91.3z"/>
	<path style="fill:#3580AF;" d="M333.6,139.8h-90.3c-3.1,0-5.7-2.5-5.7-5.7V99.9c0-3.1,2.5-5.7,5.7-5.7h90.3c3.1,0,5.7,2.5,5.7,5.7
		v34.2C339.2,137.3,336.7,139.8,333.6,139.8z"/>
	<path style="fill:#3580AF;" d="M516.2,311.7H405.8c-3.1,0-5.7-2.5-5.7-5.7v-34.2c0-3.1,2.5-5.7,5.7-5.7h110.4
		c3.1,0,5.7,2.5,5.7,5.7V306C521.8,309.2,519.3,311.7,516.2,311.7z"/>
	<path style="fill:#3580AF;" d="M488.7,263h-82.9c-3.1,0-5.7-2.5-5.7-5.7v-34.2c0-3.1,2.5-5.7,5.7-5.7h82.9c3.1,0,5.7,2.5,5.7,5.7
		v34.2C494.4,260.4,491.9,263,488.7,263z"/>
	<path style="fill:#3580AF;" d="M516,45.7H351.1c-3.1,0-5.7,2.5-5.7,5.7v82.8c0,3.1,2.5,5.7,5.7,5.7h50V159
		c-0.2,0.6-0.3,1.1-0.3,1.8v48.1c0,3.1,2.5,5.6,5.6,5.6h83c3.1,0,5.6-2.5,5.6-5.6v-42.4h21c3.1,0,5.7-2.5,5.7-5.7v-26.5v-21V51.4
		C521.6,48.2,519.1,45.7,516,45.7z"/>
</g>
</svg>
