<?xml version="1.0" encoding="utf-8"?>
<!-- Generator: Adobe Illustrator 23.0.1, SVG Export Plug-In . SVG Version: 6.00 Build 0)  -->
<svg version="1.1" id="图层_1" xmlns="http://www.w3.org/2000/svg" xmlns:xlink="http://www.w3.org/1999/xlink" x="0px" y="0px"
	 viewBox="0 0 580 428" style="enable-background:new 0 0 580 428;" xml:space="preserve">
<path style="fill:#3580AF;" d="M134.3,101.8V51.4c0-3.1-2.5-5.7-5.7-5.7H64.1c-3.1,0-5.7,2.5-5.7,5.7v109.3c0,3.1,2.5,5.7,5.7,5.7
	h34.1h36.1h34c3.1,0,5.7-2.5,5.7-5.7v-47.5c0-3.1-2.5-5.7-5.7-5.7h-28.4C136.8,107.4,134.3,104.9,134.3,101.8z"/>
<path style="fill:#3580AF;" d="M287,45.7h-42.2h-22.3h-75.9c-4.9,0-8.7,2.5-8.7,5.7v47.4c0,3.2,4,5.7,8.7,5.7h75.9h22.3H287
	c3.2,0,5.7-2.6,5.7-5.7V51.4C292.7,48.2,290.1,45.7,287,45.7z"/>
<path style="fill:#3580AF;" d="M301.5,45.7h49c3.1,0,5.7,2.5,5.7,5.7v47.4c0,3.1-2.5,5.7-5.7,5.7h-49c-3.1,0-5.7-2.5-5.7-5.7V51.4
	C295.8,48.2,298.3,45.7,301.5,45.7z"/>
<path style="fill:#3580AF;" d="M364.4,45.7h49c3.1,0,5.7,2.5,5.7,5.7v47.4c0,3.1-2.5,5.7-5.7,5.7h-49c-3.1,0-5.7-2.5-5.7-5.7V51.4
	C358.7,48.2,361.2,45.7,364.4,45.7z"/>
<path style="fill:#3580AF;" d="M428,45.7h88.1c3.1,0,5.7,2.5,5.7,5.7v47.4c0,3.1-2.5,5.7-5.7,5.7h-88.2c-3.1,0-5.7-2.5-5.7-5.7V51.4
	C422.3,48.2,424.8,45.7,428,45.7z"/>
<path style="fill:#3580AF;" d="M428,107.4h88.1c3.1,0,5.7,2.5,5.7,5.7v47.4c0,3.1-2.5,5.7-5.7,5.7h-88.2c-3.1,0-5.7-2.5-5.7-5.7
	v-47.4C422.3,109.9,424.8,107.4,428,107.4z"/>
<path style="fill:#3580AF;" d="M406,169.6h84.8c1.6,0,2.8,1.3,2.8,2.8v34.1c0,3.1-2.5,5.7-5.7,5.7h-82c-3.1,0-5.7-2.5-5.7-5.7v-31.3
	C400.3,172.1,402.8,169.6,406,169.6z"/>
<path style="fill:#3580AF;" d="M405.9,215.3h82c3.1,0,5.7,2.5,5.7,5.7v31.3c0,3.1-2.5,5.6-5.6,5.6h-82.1c-3.1,0-5.6-2.5-5.6-5.6
	v-31.4C400.3,217.8,402.8,215.3,405.9,215.3z"/>
<path style="fill:#3580AF;" d="M86.3,169.4h82.1c3.1,0,5.6,2.5,5.6,5.6v31.4c0,3.1-2.5,5.6-5.6,5.6H86.3c-3.1,0-5.6-2.5-5.6-5.6V175
	C80.7,171.9,83.2,169.4,86.3,169.4z"/>
<path style="fill:#3580AF;" d="M86.4,215.3h81.9c3.1,0,5.7,2.5,5.7,5.7v31.2c0,3.1-2.5,5.7-5.7,5.7H86.4c-3.1,0-5.7-2.5-5.7-5.7V221
	C80.7,217.8,83.2,215.3,86.4,215.3z"/>
<path style="fill:#3580AF;" d="M391.3,315.2h-78.7h-12.7H196.3c-4,0-7.3,2.6-7.3,5.7v56.3c0,3.1,3.3,5.7,7.3,5.7h102.6
	c0.3,0.1,0.7,0.1,1,0.1h91.4c3.2,0,5.7-2.6,5.7-5.7v-56.4C397,317.7,394.4,315.2,391.3,315.2z"/>
<path style="fill:#3580AF;" d="M64.1,261.2h116.2c3.1,0,5.6,2.5,5.6,5.6v110.3c0,3.1-2.5,5.6-5.6,5.6H64.1c-3.1,0-5.7-2.5-5.7-5.6
	V266.9C58.4,263.8,61,261.2,64.1,261.2z"/>
<path style="fill:#2C3B80;" d="M209.6,155h19.6c3.1,0,5.7,2.5,5.7,5.7V193c0,3.1-2.5,5.7-5.7,5.7h-19.7c-3.1,0-5.7-2.5-5.7-5.7
	v-32.4C203.9,157.5,206.4,155,209.6,155z"/>
<path style="fill:#2C3B80;" d="M243.7,155h19.7c3.1,0,5.7,2.5,5.7,5.7V193c0,3.1-2.5,5.7-5.7,5.7h-19.7c-3.1,0-5.7-2.5-5.7-5.7
	v-32.4C238,157.5,240.5,155,243.7,155z"/>
<path style="fill:#2C3B80;" d="M277.4,155h19.7c3.1,0,5.7,2.5,5.7,5.7V193c0,3.1-2.5,5.7-5.7,5.7h-19.7c-3.1,0-5.7-2.5-5.7-5.7
	v-32.4C271.7,157.5,274.2,155,277.4,155z"/>
<g>
	<path style="fill:#2E3B80;" d="M311.8,155h55.4c3.1,0,5.7,2.5,5.7,5.7V193c0,3.1-2.5,5.7-5.7,5.7h-55.5c-3.1,0-5.7-2.5-5.7-5.7
		v-32.4C306.1,157.5,308.6,155,311.8,155z"/>
</g>
<path style="fill:#2C3B80;" d="M209.6,229.5h19.6c3.1,0,5.7,2.5,5.7,5.7v32.4c0,3.1-2.5,5.7-5.7,5.7h-19.7c-3.1,0-5.7-2.5-5.7-5.7
	v-32.4C203.9,232,206.4,229.5,209.6,229.5z"/>
<path style="fill:#2C3B80;" d="M243.5,229.5h19.6c3.1,0,5.7,2.5,5.7,5.7v32.4c0,3.1-2.5,5.7-5.7,5.7h-19.7c-3.1,0-5.7-2.5-5.7-5.7
	v-32.4C237.8,232,240.3,229.5,243.5,229.5z"/>
<path style="fill:#2C3B80;" d="M277.4,229.5H297c3.1,0,5.7,2.5,5.7,5.7v32.4c0,3.1-2.5,5.7-5.7,5.7h-19.7c-3.1,0-5.7-2.5-5.7-5.7
	v-32.4C271.7,232,274.2,229.5,277.4,229.5z"/>
<path style="fill:#2E3B80;" d="M311.8,229.5h55.4c3.1,0,5.7,2.5,5.7,5.7v32.4c0,3.1-2.5,5.7-5.7,5.7h-55.5c-3.1,0-5.7-2.5-5.7-5.7
	v-32.4C306.1,232,308.6,229.5,311.8,229.5z"/>
<g>
	<path style="fill:#3580AF;" d="M515.5,383.2H405.3c-2.7,0-4.9-2.2-4.9-4.9V329c0-2.7,2.2-4.9,4.9-4.9h110.2c2.7,0,4.9,2.2,4.9,4.9
		v49.3C520.4,381,518.2,383.2,515.5,383.2z"/>
	<path style="fill:#3580AF;" d="M515.5,320.8H405.3c-2.7,0-4.9-2.2-4.9-4.9v-49.2c0-2.7,2.2-4.9,4.9-4.9h110.2
		c2.7,0,4.9,2.2,4.9,4.9v49.2C520.4,318.6,518.2,320.8,515.5,320.8z"/>
</g>
</svg>
