<?xml version="1.0" encoding="utf-8"?>
<!-- Generator: Adobe Illustrator 23.0.1, SVG Export Plug-In . SVG Version: 6.00 Build 0)  -->
<svg version="1.1" id="图层_1" xmlns="http://www.w3.org/2000/svg" xmlns:xlink="http://www.w3.org/1999/xlink" x="0px" y="0px"
	 viewBox="0 0 580 428" style="enable-background:new 0 0 580 428;" xml:space="preserve">
<path style="fill:#3580AF;" d="M365.9,315.7h-71.5h-11.6h-94.2c-3.6,0-6.6,2.6-6.6,5.7v56.3c0,3.1,3,5.7,6.6,5.7h93.2
	c0.3,0.1,0.6,0.1,0.9,0.1h83.1c2.9,0,5.2-2.6,5.2-5.7v-56.4C371.1,318.2,368.7,315.7,365.9,315.7z"/>
<path style="fill:#2C3B80;" d="M209.4,155H229c3.1,0,5.7,2.5,5.7,5.7V193c0,3.1-2.5,5.7-5.7,5.7h-19.7c-3.1,0-5.7-2.5-5.7-5.7v-32.4
	C203.7,157.5,206.2,155,209.4,155z"/>
<path style="fill:#2C3B80;" d="M243.5,155h19.7c3.1,0,5.7,2.5,5.7,5.7V193c0,3.1-2.5,5.7-5.7,5.7h-19.7c-3.1,0-5.7-2.5-5.7-5.7
	v-32.4C237.8,157.5,240.3,155,243.5,155z"/>
<path style="fill:#2C3B80;" d="M277.2,155h19.7c3.1,0,5.7,2.5,5.7,5.7V193c0,3.1-2.5,5.7-5.7,5.7h-19.7c-3.1,0-5.7-2.5-5.7-5.7
	v-32.4C271.5,157.5,274,155,277.2,155z"/>
<g>
	<path style="fill:#2E3B80;" d="M311.6,155H367c3.1,0,5.7,2.5,5.7,5.7V193c0,3.1-2.5,5.7-5.7,5.7h-55.5c-3.1,0-5.7-2.5-5.7-5.7
		v-32.4C305.9,157.5,308.4,155,311.6,155z"/>
</g>
<path style="fill:#2C3B80;" d="M209.4,229.5H229c3.1,0,5.7,2.5,5.7,5.7v32.4c0,3.1-2.5,5.7-5.7,5.7h-19.7c-3.1,0-5.7-2.5-5.7-5.7
	v-32.4C203.7,232,206.2,229.5,209.4,229.5z"/>
<path style="fill:#2C3B80;" d="M243.3,229.2h19.6c3.1,0,5.7,2.5,5.7,5.7v32.4c0,3.1-2.5,5.7-5.7,5.7h-19.7c-3.1,0-5.7-2.5-5.7-5.7
	v-32.4C237.6,231.7,240.1,229.2,243.3,229.2z"/>
<path style="fill:#2C3B80;" d="M277.2,229.2h19.6c3.1,0,5.7,2.5,5.7,5.7v32.4c0,3.1-2.5,5.7-5.7,5.7h-19.7c-3.1,0-5.7-2.5-5.7-5.7
	v-32.4C271.5,231.7,274,229.2,277.2,229.2z"/>
<path style="fill:#2E3B80;" d="M311.6,229.5H367c3.1,0,5.7,2.5,5.7,5.7v32.4c0,3.1-2.5,5.7-5.7,5.7h-55.5c-3.1,0-5.7-2.5-5.7-5.7
	v-32.4C305.9,232,308.4,229.5,311.6,229.5z"/>
<path style="fill:#3580AF;" d="M516,148.9h-79.1c-3.1,0-5.7-2.5-5.7-5.7V51.3c0-3.1,2.5-5.7,5.7-5.7H516c3.1,0,5.7,2.5,5.7,5.7v91.9
	C521.6,146.3,519.1,148.9,516,148.9z"/>
<path style="fill:#3580AF;" d="M488.3,212h-83.2c-2,0-3.6-1.6-3.6-3.6v-35.2c0-2,1.6-3.6,3.6-3.6h83.2c2,0,3.6,1.6,3.6,3.6v35.2
	C492,210.4,490.3,212,488.3,212z"/>
<path style="fill:#3580AF;" d="M488.3,257.9h-83.2c-2,0-3.6-1.6-3.6-3.6V219c0-2,1.6-3.6,3.6-3.6h83.2c2,0,3.6,1.6,3.6,3.6v35.2
	C492,256.3,490.3,257.9,488.3,257.9z"/>
<path style="fill:#3580AF;" d="M516.1,382.8H405.9c-2.7,0-4.9-2.2-4.9-4.9v-49.3c0-2.7,2.2-4.9,4.9-4.9h110.2c2.7,0,4.9,2.2,4.9,4.9
	v49.3C521.1,380.5,518.8,382.8,516.1,382.8z"/>
<path style="fill:#3580AF;" d="M516.1,320.3H405.9c-2.7,0-4.9-2.2-4.9-4.9v-49.2c0-2.7,2.2-4.9,4.9-4.9h110.2c2.7,0,4.9,2.2,4.9,4.9
	v49.2C521.1,318.1,518.8,320.3,516.1,320.3z"/>
<path style="fill:#3580AF;" d="M143,148.9H63.9c-3.1,0-5.7-2.5-5.7-5.7V51.3c0-3.1,2.5-5.7,5.7-5.7H143c3.1,0,5.7,2.5,5.7,5.7v91.9
	C148.7,146.3,146.2,148.9,143,148.9z"/>
<path style="fill:#3580AF;" d="M330.8,121H156.2c-2.4,0-4.3-1.9-4.3-4.3V49.9c0-2.4,1.9-4.3,4.3-4.3h174.6c2.4,0,4.3,1.9,4.3,4.3
	v66.8C335.1,119,333.2,121,330.8,121z"/>
<path style="fill:#3580AF;" d="M167.5,169.7H79.7c-3.1,0-5.6,2.5-5.6,5.6v84.4h-12c-2.1,0-3.9,1.7-3.9,3.9v116.1
	c0,2.1,1.7,3.9,3.9,3.9h17.6h55.6h32.1c3.1,0,5.6-2.5,5.6-5.6V175.4C173.1,172.2,170.6,169.7,167.5,169.7z"/>
<path style="fill:#3580AF;" d="M425,121h-84c-1.7,0-3-1.3-3-3V48.7c0-1.7,1.3-3,3-3h84c1.7,0,3,1.3,3,3V118
	C428,119.7,426.7,121,425,121z"/>
</svg>
