<?xml version="1.0" encoding="utf-8"?>
<!-- Generator: Adobe Illustrator 23.0.1, SVG Export Plug-In . SVG Version: 6.00 Build 0)  -->
<svg version="1.1" id="B1" xmlns="http://www.w3.org/2000/svg" xmlns:xlink="http://www.w3.org/1999/xlink" x="0px" y="0px"
	 viewBox="0 0 580.1 428.6" style="enable-background:new 0 0 580.1 428.6;" xml:space="preserve">
<g>
	<path style="fill:#2C3B80;" d="M209.5,154.8h19.6c3.1,0,5.7,2.5,5.7,5.7v32.3c0,3.1-2.5,5.7-5.7,5.7h-19.7c-3.1,0-5.7-2.5-5.7-5.7
		v-32.4C203.8,157.3,206.3,154.8,209.5,154.8z"/>
	<path style="fill:#2C3B80;" d="M243.6,154.8h19.7c3.1,0,5.7,2.5,5.7,5.7v32.3c0,3.1-2.5,5.7-5.7,5.7h-19.7c-3.1,0-5.7-2.5-5.7-5.7
		v-32.4C237.9,157.3,240.4,154.8,243.6,154.8z"/>
	<path style="fill:#2C3B80;" d="M277.3,154.8H297c3.1,0,5.7,2.5,5.7,5.7v32.3c0,3.1-2.5,5.7-5.7,5.7h-19.7c-3.1,0-5.7-2.5-5.7-5.7
		v-32.4C271.6,157.3,274.1,154.8,277.3,154.8z"/>
	<g>
		<path style="fill:#2E3B80;" d="M311.7,154.8h55.4c3.1,0,5.7,2.5,5.7,5.7v32.3c0,3.1-2.5,5.7-5.7,5.7h-55.5c-3.1,0-5.7-2.5-5.7-5.7
			v-32.4C306,157.3,308.5,154.8,311.7,154.8z"/>
	</g>
	<path style="fill:#2C3B80;" d="M209.5,229.3h19.6c3.1,0,5.7,2.5,5.7,5.7v32.4c0,3.1-2.5,5.7-5.7,5.7h-19.7c-3.1,0-5.7-2.5-5.7-5.7
		V235C203.8,231.8,206.3,229.3,209.5,229.3z"/>
	<path style="fill:#2C3B80;" d="M243.7,229.3h19.6c3.1,0,5.7,2.5,5.7,5.7v32.4c0,3.1-2.5,5.7-5.7,5.7h-19.7c-3.1,0-5.7-2.5-5.7-5.7
		V235C238,231.8,240.5,229.3,243.7,229.3z"/>
	<path style="fill:#2C3B80;" d="M277.3,229.3h19.6c3.1,0,5.7,2.5,5.7,5.7v32.4c0,3.1-2.5,5.7-5.7,5.7h-19.7c-3.1,0-5.7-2.5-5.7-5.7
		V235C271.6,231.8,274.1,229.3,277.3,229.3z"/>
	<path style="fill:#2E3B80;" d="M311.7,229.3h55.4c3.1,0,5.7,2.5,5.7,5.7v32.4c0,3.1-2.5,5.7-5.7,5.7h-55.5c-3.1,0-5.7-2.5-5.7-5.7
		V235C306,231.8,308.5,229.3,311.7,229.3z"/>
	<path style="fill:#3580AF;" d="M167.6,148.6H64c-3.5,0-5.7-2.9-5.7-6.4V51.8c0-3.5,2.2-6.4,5.7-6.4h103.6c3.5,0,6.4,2.9,6.4,6.4
		v90.5C173.9,145.8,171.1,148.6,167.6,148.6z"/>
	<path style="fill:#3580AF;" d="M280.5,148.1H209c-3,0-5.4-2.4-5.4-5.4V51.4c0-3,2.4-5.4,5.4-5.4h71.5c3,0,5.4,2.4,5.4,5.4v91.3
		C285.9,145.6,283.5,148.1,280.5,148.1z"/>
	<path style="fill:#3580AF;" d="M516.9,104.2H410.6c-2.7,0-4.8-2.2-4.8-4.8V50.3c0-2.7,2.2-4.8,4.8-4.8h106.3c2.7,0,4.8,2.2,4.8,4.8
		v49.1C521.8,102.1,519.6,104.2,516.9,104.2z"/>
	<path style="fill:#3580AF;" d="M516.9,166H410.6c-2.7,0-4.8-2.2-4.8-4.8v-49.1c0-2.7,2.2-4.8,4.8-4.8h106.3c2.7,0,4.8,2.2,4.8,4.8
		v49.1C521.8,163.9,519.6,166,516.9,166z"/>
	<path style="fill:#3580AF;" d="M489.8,211.8H404c-2,0-3.7-1.7-3.7-3.7v-35.3c0-2,1.7-3.7,3.7-3.7h85.9c2,0,3.7,1.7,3.7,3.7v35.3
		C493.5,210.2,491.9,211.8,489.8,211.8z"/>
	<path style="fill:#3580AF;" d="M169.8,154.8H62.6c-2.3,0-4.2,1.9-4.2,4.2v11.1c0,2.4,2,4.4,4.4,4.4h17c1,0,1.8,0.8,1.8,1.8V201
		c0,1.6,1.3,3,3,3h85.8c1.6,0,3-1.3,3-3v-15.2v-13.3v-14.3C173.2,156.3,171.6,154.8,169.8,154.8z"/>
	<path style="fill:#3580AF;" d="M488.8,283.8h-83.9c-2.6,0-4.7-2.1-4.7-4.7v-59.4c0-2.6,2.1-4.7,4.7-4.7h83.9c2.6,0,4.7,2.1,4.7,4.7
		v59.4C493.5,281.7,491.4,283.8,488.8,283.8z"/>
	<path style="fill:#3580AF;" d="M284.3,383.2h-76.2c-3.1,0-5.6-2.5-5.6-5.6v-91.8c0-3.1,2.5-5.6,5.6-5.6h76.2c3.1,0,5.6,2.5,5.6,5.6
		v91.8C289.9,380.7,287.4,383.2,284.3,383.2z"/>
	<path style="fill:#3580AF;" d="M167.7,383.2H64c-3.4,0-5.7-2.8-5.7-6.2v-90.5c0-3.4,2.2-6.2,5.7-6.2h103.7c3.4,0,6.2,2.8,6.2,6.2
		V377C173.9,380.4,171.2,383.2,167.7,383.2z"/>
	<path style="fill:#3580AF;" d="M514.5,382.7H303c-4,0-7.3-3.3-7.3-7.3v-53.3c0-4,3.3-7.3,7.3-7.3h211.5c4,0,7.3,3.3,7.3,7.3v53.3
		C521.8,379.5,518.5,382.7,514.5,382.7z"/>
	<path style="fill:#3580AF;" d="M367,148.1h-71.5c-3,0-5.4-2.4-5.4-5.4V51.4c0-3,2.4-5.4,5.4-5.4H367c3,0,5.4,2.4,5.4,5.4v91.3
		C372.4,145.6,369.9,148.1,367,148.1z"/>
</g>
</svg>
