<?xml version="1.0" encoding="utf-8"?>
<!-- Generator: Adobe Illustrator 23.0.1, SVG Export Plug-In . SVG Version: 6.00 Build 0)  -->
<svg version="1.1" id="图层_1" xmlns="http://www.w3.org/2000/svg" xmlns:xlink="http://www.w3.org/1999/xlink" x="0px" y="0px"
	 viewBox="0 0 580 428" style="enable-background:new 0 0 580 428;" xml:space="preserve">
<path style="opacity:0.3;fill:#4A7793;enable-background:new    ;" d="M530.3,175.2l15.5,0c1.1,0,2-1,2-2.1
	c-1.1-27.5-3.3-63.8-6.3-91.5l-5.3-47.4c0-4.8-3.9-8.8-8.8-8.8l-34.9-1.1c-1.1-0.1-2.1,0.8-2.1,1.9l-0.2,6.3c0,1.1-1,2-2.1,1.9
	L417.4,31c-1.1,0-2-1-1.9-2.1l0.3-7c0-1.1-0.8-2-1.9-2.1L355,17.5c-1.1,0-2.1,0.9-2.1,2v5.6c0,1.1-0.9,2-2,2H247.3c-1.1,0-2-0.9-2-2
	v-5.7c0-1.1-0.9-2-2.1-2l-50.4,1.9c-1.1,0-2,1-1.9,2.1l0.2,6.7c0,1.1-0.8,2-1.9,2.1l-93.7,3.3c-1.1,0-2-0.8-2.1-1.9l-0.2-5.7
	c0-1.1-1-2-2.1-1.9l-39,1.5c-4.8,0-8.8,3.9-8.8,8.8l0,0c-4.6,41.2-9.6,97.4-11,138.8c0,1.1,0.9,2.1,2,2.1H48c1.1,0,2,0.9,2,2v76.7
	c0,1.1-0.9,2-2,2H34.4c-1.1,0-2,0.9-2,2.1c1.4,41.4,6.4,94.8,11,136l0,0c0,4.8,3.9,8.8,8.8,8.8l39.3,1.5c1.1,0,2-0.8,2.1-1.9
	l0.3-7.1c0-1.1,1-2,2.1-1.9l93.7,3.5c1.1,0,2,1,1.9,2.1l-0.3,7.6c0,1.1,0.8,2,1.9,2.1l50,1.9c1.1,0,2.1-0.9,2.1-2v-5.1
	c0-1.1,0.9-2,2-2h103.7c1.1,0,2,0.9,2,2v5c0,1.1,0.9,2,2.1,2l59.1-2.3c1.1,0,1.9-1,1.9-2.1l-0.2-7.4c0-1.1,0.8-2,1.9-2.1l70.7-3.1
	c1.1,0,2,0.8,2.1,1.9l0.2,6.4c0,1.1,1,2,2.1,1.9l34.6-1.1c4.8,0,8.8-3.9,8.8-8.8l5.3-47.4c2.6-23.2,4.5-64.8,5.7-88.5
	c0.1-1.1-0.8-2.1-2-2.1c-2.2,0-10.7,0-12.9,0c-1.1,0-2-0.9-2-2v-78.7H530.3z"/>
</svg>
