<?xml version="1.0" encoding="utf-8"?>
<!-- Generator: Adobe Illustrator 23.0.1, SVG Export Plug-In . SVG Version: 6.00 Build 0)  -->
<svg version="1.1" id="B1" xmlns="http://www.w3.org/2000/svg" xmlns:xlink="http://www.w3.org/1999/xlink" x="0px" y="0px"
	 viewBox="0 0 580.1 428.6" style="enable-background:new 0 0 580.1 428.6;" xml:space="preserve">
<path style="opacity:0.3;fill:#4A7793;enable-background:new    ;" d="M576.2,167.3h-11.4c-1.1-28.5-3.3-57.1-6.4-85.5l-5.3-47.4
	c0-4.8-3.9-8.8-8.8-8.8l-29.9-1.2l-0.3,10.4l-107.7-3.6l0.4-11l-62.9-2.5v9.7H236.2v-9.8l-54.5,2.1l0.3,10.7L74.3,33.8L74,24.1
	l-41,1.6c-4.8,0-8.8,3.9-8.8,8.8v0c-4.7,41.9-7.7,83.8-9.1,125.9H3.9v107.7h11.4c1.4,42.1,4.4,84.2,9.1,126.1v0
	c0,4.8,3.9,8.8,8.8,8.8l41.3,1.6l0.4-11.1l107.7,3.7l-0.4,11.6l54.1,2.1v-9.2h107.7v9.1l63.2-2.5l-0.3-11.4l107.7-3.2l0.3,10.4
	l29.6-1.2c4.8,0,8.8-3.9,8.8-8.8l5.3-47.4c2.7-23.9,4.6-47.8,5.8-71.8h12V167.3z"/>
</svg>
